<?xml version='1.0' encoding='utf-8'?>
<mlt LC_NUMERIC="C" producer="main_bin" root="/home/sans/Videos" version="7.28.0">
 <profile colorspace="709" description="HD 720p 30 fps" display_aspect_den="9" display_aspect_num="16" frame_rate_den="1" frame_rate_num="30" height="720" progressive="1" sample_aspect_den="1" sample_aspect_num="1" width="1280"/>
 <producer id="producer0" in="00:00:00.000" out="00:08:10.233">
  <property name="length">2147483647</property>
  <property name="eof">continue</property>
  <property name="resource">black</property>
  <property name="aspect_ratio">1</property>
  <property name="mlt_service">color</property>
  <property name="kdenlive:playlistid">black_track</property>
  <property name="mlt_image_format">rgba</property>
  <property name="set.test_audio">0</property>
 </producer>
 <chain id="chain0" out="00:00:46.700">
  <property name="length">1402</property>
  <property name="eof">pause</property>
  <property name="resource">2024-11-08 22-41-37.mkv</property>
  <property name="mlt_service">avformat-novalidate</property>
  <property name="seekable">1</property>
  <property name="format">3</property>
  <property name="audio_index">1</property>
  <property name="video_index">0</property>
  <property name="vstream">0</property>
  <property name="astream">0</property>
  <property name="kdenlive:folderid">-1</property>
  <property name="kdenlive:id">60</property>
  <property name="kdenlive:control_uuid">{883883da-2f4a-4f2a-9424-bf0c6a906a44}</property>
  <property name="mute_on_pause">0</property>
  <property name="kdenlive:clip_type">0</property>
  <property name="kdenlive:file_size">15576245</property>
  <property name="kdenlive:file_hash">f3fee7106fc61a3973ca7f3e95e2a1f2</property>
  <property name="kdenlive:audio_max1">64</property>
  <property name="kdenlive:monitorPosition">303</property>
  <property name="meta.media.nb_streams">2</property>
  <property name="meta.media.0.stream.type">video</property>
  <property name="meta.media.0.stream.frame_rate">30</property>
  <property name="meta.media.0.stream.sample_aspect_ratio">0</property>
  <property name="meta.media.0.codec.width">1280</property>
  <property name="meta.media.0.codec.height">720</property>
  <property name="meta.media.0.codec.rotate">0</property>
  <property name="meta.media.0.codec.pix_fmt">yuv420p</property>
  <property name="meta.media.0.codec.sample_aspect_ratio">1</property>
  <property name="meta.media.0.codec.colorspace">709</property>
  <property name="meta.media.0.codec.color_trc">1</property>
  <property name="meta.media.0.codec.name">h264</property>
  <property name="meta.media.0.codec.long_name">H.264 / AVC / MPEG-4 AVC / MPEG-4 part 10</property>
  <property name="meta.media.0.codec.bit_rate">0</property>
  <property name="meta.attr.0.stream.DURATION.markup">00:00:46.733000000</property>
  <property name="meta.media.1.stream.type">audio</property>
  <property name="meta.media.1.codec.sample_fmt">fltp</property>
  <property name="meta.media.1.codec.sample_rate">48000</property>
  <property name="meta.media.1.codec.channels">2</property>
  <property name="meta.media.1.codec.layout">stereo</property>
  <property name="meta.media.1.codec.name">aac</property>
  <property name="meta.media.1.codec.long_name">AAC (Advanced Audio Coding)</property>
  <property name="meta.media.1.codec.bit_rate">0</property>
  <property name="meta.attr.1.stream.title.markup">simple_aac</property>
  <property name="meta.attr.1.stream.DURATION.markup">00:00:46.634000000</property>
  <property name="meta.attr.ENCODER.markup">Lavf61.1.100</property>
  <property name="meta.media.sample_aspect_num">1</property>
  <property name="meta.media.sample_aspect_den">1</property>
  <property name="meta.media.frame_rate_num">30</property>
  <property name="meta.media.frame_rate_den">1</property>
  <property name="meta.media.colorspace">709</property>
  <property name="meta.media.color_trc">1</property>
  <property name="meta.media.has_b_frames">1</property>
  <property name="meta.media.width">1280</property>
  <property name="meta.media.height">720</property>
  <property name="meta.media.aspect_ratio">1</property>
  <property name="meta.media.color_range">mpeg</property>
  <property name="xml">was here</property>
  <property name="meta.media.top_field_first">0</property>
  <property name="meta.media.progressive">1</property>
  <property name="set.test_audio">0</property>
  <property name="set.test_image">1</property>
 </chain>
 <chain id="chain1" out="00:00:38.500">
  <property name="length">1156</property>
  <property name="eof">pause</property>
  <property name="resource">2024-11-08 22-42-27.mkv</property>
  <property name="mlt_service">avformat-novalidate</property>
  <property name="seekable">1</property>
  <property name="format">3</property>
  <property name="audio_index">1</property>
  <property name="video_index">0</property>
  <property name="vstream">0</property>
  <property name="astream">0</property>
  <property name="kdenlive:folderid">-1</property>
  <property name="kdenlive:id">59</property>
  <property name="kdenlive:control_uuid">{81728a52-e807-42be-9849-4a6fafa2d726}</property>
  <property name="mute_on_pause">0</property>
  <property name="kdenlive:clip_type">0</property>
  <property name="kdenlive:file_size">12885503</property>
  <property name="kdenlive:file_hash">e804de783bacc59b44ade86eff91dfbe</property>
  <property name="kdenlive:audio_max1">70</property>
  <property name="kdenlive:monitorPosition">526</property>
  <property name="meta.media.nb_streams">2</property>
  <property name="meta.media.0.stream.type">video</property>
  <property name="meta.media.0.stream.frame_rate">30</property>
  <property name="meta.media.0.stream.sample_aspect_ratio">0</property>
  <property name="meta.media.0.codec.width">1280</property>
  <property name="meta.media.0.codec.height">720</property>
  <property name="meta.media.0.codec.rotate">0</property>
  <property name="meta.media.0.codec.pix_fmt">yuv420p</property>
  <property name="meta.media.0.codec.sample_aspect_ratio">1</property>
  <property name="meta.media.0.codec.colorspace">709</property>
  <property name="meta.media.0.codec.color_trc">1</property>
  <property name="meta.media.0.codec.name">h264</property>
  <property name="meta.media.0.codec.long_name">H.264 / AVC / MPEG-4 AVC / MPEG-4 part 10</property>
  <property name="meta.media.0.codec.bit_rate">0</property>
  <property name="meta.attr.0.stream.DURATION.markup">00:00:38.533000000</property>
  <property name="meta.media.1.stream.type">audio</property>
  <property name="meta.media.1.codec.sample_fmt">fltp</property>
  <property name="meta.media.1.codec.sample_rate">48000</property>
  <property name="meta.media.1.codec.channels">2</property>
  <property name="meta.media.1.codec.layout">stereo</property>
  <property name="meta.media.1.codec.name">aac</property>
  <property name="meta.media.1.codec.long_name">AAC (Advanced Audio Coding)</property>
  <property name="meta.media.1.codec.bit_rate">0</property>
  <property name="meta.attr.1.stream.title.markup">simple_aac</property>
  <property name="meta.attr.1.stream.DURATION.markup">00:00:38.485000000</property>
  <property name="meta.attr.ENCODER.markup">Lavf61.1.100</property>
  <property name="meta.media.sample_aspect_num">1</property>
  <property name="meta.media.sample_aspect_den">1</property>
  <property name="meta.media.frame_rate_num">30</property>
  <property name="meta.media.frame_rate_den">1</property>
  <property name="meta.media.colorspace">709</property>
  <property name="meta.media.color_trc">1</property>
  <property name="meta.media.has_b_frames">1</property>
  <property name="meta.media.width">1280</property>
  <property name="meta.media.height">720</property>
  <property name="meta.media.aspect_ratio">1</property>
  <property name="meta.media.color_range">mpeg</property>
  <property name="xml">was here</property>
  <property name="meta.media.top_field_first">0</property>
  <property name="meta.media.progressive">1</property>
  <property name="set.test_audio">0</property>
  <property name="set.test_image">1</property>
 </chain>
 <chain id="chain2" out="00:00:21.100">
  <property name="length">634</property>
  <property name="eof">pause</property>
  <property name="resource">2024-11-08 22-43-11.mkv</property>
  <property name="mlt_service">avformat-novalidate</property>
  <property name="seekable">1</property>
  <property name="format">3</property>
  <property name="audio_index">1</property>
  <property name="video_index">0</property>
  <property name="vstream">0</property>
  <property name="astream">0</property>
  <property name="kdenlive:folderid">-1</property>
  <property name="kdenlive:id">58</property>
  <property name="kdenlive:control_uuid">{d4aa302d-44b5-4979-b61f-295520fb5935}</property>
  <property name="mute_on_pause">0</property>
  <property name="kdenlive:clip_type">0</property>
  <property name="kdenlive:file_size">7038762</property>
  <property name="kdenlive:file_hash">f2a5b6fafc438599185afed205d1053d</property>
  <property name="kdenlive:audio_max1">60</property>
  <property name="kdenlive:monitorPosition">138</property>
  <property name="meta.media.nb_streams">2</property>
  <property name="meta.media.0.stream.type">video</property>
  <property name="meta.media.0.stream.frame_rate">30</property>
  <property name="meta.media.0.stream.sample_aspect_ratio">0</property>
  <property name="meta.media.0.codec.width">1280</property>
  <property name="meta.media.0.codec.height">720</property>
  <property name="meta.media.0.codec.rotate">0</property>
  <property name="meta.media.0.codec.pix_fmt">yuv420p</property>
  <property name="meta.media.0.codec.sample_aspect_ratio">1</property>
  <property name="meta.media.0.codec.colorspace">709</property>
  <property name="meta.media.0.codec.color_trc">1</property>
  <property name="meta.media.0.codec.name">h264</property>
  <property name="meta.media.0.codec.long_name">H.264 / AVC / MPEG-4 AVC / MPEG-4 part 10</property>
  <property name="meta.media.0.codec.bit_rate">0</property>
  <property name="meta.attr.0.stream.DURATION.markup">00:00:21.133000000</property>
  <property name="meta.media.1.stream.type">audio</property>
  <property name="meta.media.1.codec.sample_fmt">fltp</property>
  <property name="meta.media.1.codec.sample_rate">48000</property>
  <property name="meta.media.1.codec.channels">2</property>
  <property name="meta.media.1.codec.layout">stereo</property>
  <property name="meta.media.1.codec.name">aac</property>
  <property name="meta.media.1.codec.long_name">AAC (Advanced Audio Coding)</property>
  <property name="meta.media.1.codec.bit_rate">0</property>
  <property name="meta.attr.1.stream.title.markup">simple_aac</property>
  <property name="meta.attr.1.stream.DURATION.markup">00:00:21.077000000</property>
  <property name="meta.attr.ENCODER.markup">Lavf61.1.100</property>
  <property name="meta.media.sample_aspect_num">1</property>
  <property name="meta.media.sample_aspect_den">1</property>
  <property name="meta.media.frame_rate_num">30</property>
  <property name="meta.media.frame_rate_den">1</property>
  <property name="meta.media.colorspace">709</property>
  <property name="meta.media.color_trc">1</property>
  <property name="meta.media.has_b_frames">1</property>
  <property name="meta.media.width">1280</property>
  <property name="meta.media.height">720</property>
  <property name="meta.media.aspect_ratio">1</property>
  <property name="meta.media.color_range">mpeg</property>
  <property name="xml">was here</property>
  <property name="meta.media.top_field_first">0</property>
  <property name="meta.media.progressive">1</property>
  <property name="set.test_audio">0</property>
  <property name="set.test_image">1</property>
 </chain>
 <chain id="chain3" out="00:00:37.200">
  <property name="length">1117</property>
  <property name="eof">pause</property>
  <property name="resource">2024-11-08 22-45-51.mkv</property>
  <property name="mlt_service">avformat-novalidate</property>
  <property name="seekable">1</property>
  <property name="format">3</property>
  <property name="audio_index">1</property>
  <property name="video_index">0</property>
  <property name="vstream">0</property>
  <property name="astream">0</property>
  <property name="kdenlive:folderid">-1</property>
  <property name="kdenlive:id">48</property>
  <property name="kdenlive:control_uuid">{cb7e2b91-a38a-46b4-9c89-16f03f3fafcf}</property>
  <property name="mute_on_pause">0</property>
  <property name="kdenlive:clip_type">0</property>
  <property name="kdenlive:file_size">12390197</property>
  <property name="kdenlive:file_hash">7959f34c6cb9b32f41ae96c8c1822cec</property>
  <property name="kdenlive:audio_max1">72</property>
  <property name="kdenlive:monitorPosition">0</property>
  <property name="meta.media.nb_streams">2</property>
  <property name="meta.media.0.stream.type">video</property>
  <property name="meta.media.0.stream.frame_rate">30</property>
  <property name="meta.media.0.stream.sample_aspect_ratio">0</property>
  <property name="meta.media.0.codec.width">1280</property>
  <property name="meta.media.0.codec.height">720</property>
  <property name="meta.media.0.codec.rotate">0</property>
  <property name="meta.media.0.codec.pix_fmt">yuv420p</property>
  <property name="meta.media.0.codec.sample_aspect_ratio">1</property>
  <property name="meta.media.0.codec.colorspace">709</property>
  <property name="meta.media.0.codec.color_trc">1</property>
  <property name="meta.media.0.codec.name">h264</property>
  <property name="meta.media.0.codec.long_name">H.264 / AVC / MPEG-4 AVC / MPEG-4 part 10</property>
  <property name="meta.media.0.codec.bit_rate">0</property>
  <property name="meta.attr.0.stream.DURATION.markup">00:00:37.233000000</property>
  <property name="meta.media.1.stream.type">audio</property>
  <property name="meta.media.1.codec.sample_fmt">fltp</property>
  <property name="meta.media.1.codec.sample_rate">48000</property>
  <property name="meta.media.1.codec.channels">2</property>
  <property name="meta.media.1.codec.layout">stereo</property>
  <property name="meta.media.1.codec.name">aac</property>
  <property name="meta.media.1.codec.long_name">AAC (Advanced Audio Coding)</property>
  <property name="meta.media.1.codec.bit_rate">0</property>
  <property name="meta.attr.1.stream.title.markup">simple_aac</property>
  <property name="meta.attr.1.stream.DURATION.markup">00:00:37.141000000</property>
  <property name="meta.attr.ENCODER.markup">Lavf61.1.100</property>
  <property name="meta.media.sample_aspect_num">1</property>
  <property name="meta.media.sample_aspect_den">1</property>
  <property name="meta.media.frame_rate_num">30</property>
  <property name="meta.media.frame_rate_den">1</property>
  <property name="meta.media.colorspace">709</property>
  <property name="meta.media.color_trc">1</property>
  <property name="meta.media.has_b_frames">1</property>
  <property name="meta.media.width">1280</property>
  <property name="meta.media.height">720</property>
  <property name="meta.media.aspect_ratio">1</property>
  <property name="meta.media.color_range">mpeg</property>
  <property name="xml">was here</property>
  <property name="meta.media.top_field_first">0</property>
  <property name="meta.media.progressive">1</property>
  <property name="set.test_audio">0</property>
  <property name="set.test_image">1</property>
 </chain>
 <chain id="chain4" out="00:01:55.700">
  <property name="length">3472</property>
  <property name="eof">pause</property>
  <property name="resource">2024-11-08 22-29-50.mkv</property>
  <property name="mlt_service">avformat-novalidate</property>
  <property name="seekable">1</property>
  <property name="format">3</property>
  <property name="audio_index">1</property>
  <property name="video_index">0</property>
  <property name="vstream">0</property>
  <property name="astream">0</property>
  <property name="kdenlive:control_uuid">{ac2c5f4b-3d13-47e2-9922-975f7c3bf3bc}</property>
  <property name="kdenlive:id">31</property>
  <property name="kdenlive:clip_type">0</property>
  <property name="kdenlive:file_size">38525946</property>
  <property name="kdenlive:file_hash">d65240bbb916cb5a5f506ab90d0f0720</property>
  <property name="kdenlive:folderid">-1</property>
  <property name="kdenlive:audio_max1">72</property>
  <property name="kdenlive:monitorPosition">467</property>
  <property name="meta.media.nb_streams">2</property>
  <property name="meta.media.0.stream.type">video</property>
  <property name="meta.media.0.stream.frame_rate">30</property>
  <property name="meta.media.0.stream.sample_aspect_ratio">0</property>
  <property name="meta.media.0.codec.width">1280</property>
  <property name="meta.media.0.codec.height">720</property>
  <property name="meta.media.0.codec.rotate">0</property>
  <property name="meta.media.0.codec.pix_fmt">yuv420p</property>
  <property name="meta.media.0.codec.sample_aspect_ratio">1</property>
  <property name="meta.media.0.codec.colorspace">709</property>
  <property name="meta.media.0.codec.color_trc">1</property>
  <property name="meta.media.0.codec.name">h264</property>
  <property name="meta.media.0.codec.long_name">H.264 / AVC / MPEG-4 AVC / MPEG-4 part 10</property>
  <property name="meta.media.0.codec.bit_rate">0</property>
  <property name="meta.attr.0.stream.DURATION.markup">00:01:55.733000000</property>
  <property name="meta.media.1.stream.type">audio</property>
  <property name="meta.media.1.codec.sample_fmt">fltp</property>
  <property name="meta.media.1.codec.sample_rate">48000</property>
  <property name="meta.media.1.codec.channels">2</property>
  <property name="meta.media.1.codec.layout">stereo</property>
  <property name="meta.media.1.codec.name">aac</property>
  <property name="meta.media.1.codec.long_name">AAC (Advanced Audio Coding)</property>
  <property name="meta.media.1.codec.bit_rate">0</property>
  <property name="meta.attr.1.stream.title.markup">simple_aac</property>
  <property name="meta.attr.1.stream.DURATION.markup">00:01:55.605000000</property>
  <property name="meta.attr.ENCODER.markup">Lavf61.1.100</property>
  <property name="meta.media.sample_aspect_num">1</property>
  <property name="meta.media.sample_aspect_den">1</property>
  <property name="meta.media.frame_rate_num">30</property>
  <property name="meta.media.frame_rate_den">1</property>
  <property name="meta.media.colorspace">709</property>
  <property name="meta.media.color_trc">1</property>
  <property name="meta.media.has_b_frames">1</property>
  <property name="meta.media.width">1280</property>
  <property name="meta.media.height">720</property>
  <property name="meta.media.aspect_ratio">1</property>
  <property name="meta.media.color_range">mpeg</property>
  <property name="xml">was here</property>
  <property name="mute_on_pause">0</property>
  <property name="meta.media.top_field_first">0</property>
  <property name="meta.media.progressive">1</property>
  <property name="set.test_audio">0</property>
  <property name="set.test_image">1</property>
 </chain>
 <playlist id="playlist0">
  <property name="kdenlive:audio_track">1</property>
  <blank length="00:00:16.100"/>
  <entry in="00:00:00.000" out="00:00:03.900" producer="chain0">
   <property name="kdenlive:id">60</property>
  </entry>
  <entry in="00:00:05.400" out="00:00:07.300" producer="chain0">
   <property name="kdenlive:id">60</property>
  </entry>
  <entry in="00:00:08.033" out="00:00:09.467" producer="chain0">
   <property name="kdenlive:id">60</property>
  </entry>
  <entry in="00:00:10.333" out="00:00:11.133" producer="chain0">
   <property name="kdenlive:id">60</property>
  </entry>
  <entry in="00:00:12.500" out="00:00:16.033" producer="chain0">
   <property name="kdenlive:id">60</property>
  </entry>
  <entry in="00:00:16.467" out="00:00:17.600" producer="chain0">
   <property name="kdenlive:id">60</property>
  </entry>
  <entry in="00:00:18.967" out="00:00:21.333" producer="chain0">
   <property name="kdenlive:id">60</property>
  </entry>
  <blank length="00:00:07.067"/>
  <entry in="00:00:01.800" out="00:00:09.200" producer="chain1">
   <property name="kdenlive:id">59</property>
  </entry>
  <entry in="00:00:09.700" out="00:00:12.733" producer="chain1">
   <property name="kdenlive:id">59</property>
  </entry>
  <entry in="00:00:14.967" out="00:00:18.233" producer="chain1">
   <property name="kdenlive:id">59</property>
  </entry>
  <entry in="00:00:00.000" out="00:00:04.533" producer="chain2">
   <property name="kdenlive:id">58</property>
  </entry>
  <entry in="00:00:05.200" out="00:00:12.533" producer="chain2">
   <property name="kdenlive:id">58</property>
  </entry>
  <blank length="00:00:14.267"/>
  <entry in="00:00:00.000" out="00:00:03.967" producer="chain3">
   <property name="kdenlive:id">48</property>
  </entry>
  <entry in="00:00:04.233" out="00:00:05.833" producer="chain3">
   <property name="kdenlive:id">48</property>
  </entry>
  <entry in="00:00:07.633" out="00:00:09.133" producer="chain3">
   <property name="kdenlive:id">48</property>
  </entry>
  <entry in="00:00:10.133" out="00:00:12.733" producer="chain3">
   <property name="kdenlive:id">48</property>
  </entry>
  <blank length="00:00:03.133"/>
  <entry in="00:00:15.567" out="00:00:17.500" producer="chain3">
   <property name="kdenlive:id">48</property>
  </entry>
  <entry in="00:00:18.067" out="00:00:18.600" producer="chain3">
   <property name="kdenlive:id">48</property>
  </entry>
  <entry in="00:00:19.700" out="00:00:20.133" producer="chain3">
   <property name="kdenlive:id">48</property>
  </entry>
  <entry in="00:00:20.533" out="00:00:22.233" producer="chain3">
   <property name="kdenlive:id">48</property>
  </entry>
  <blank length="00:01:11.000"/>
  <entry in="00:01:35.233" out="00:01:39.000" producer="chain4">
   <property name="kdenlive:id">31</property>
  </entry>
  <entry in="00:01:40.900" out="00:01:43.000" producer="chain4">
   <property name="kdenlive:id">31</property>
  </entry>
  <entry in="00:01:44.367" out="00:01:46.500" producer="chain4">
   <property name="kdenlive:id">31</property>
  </entry>
  <entry in="00:01:49.367" out="00:01:52.800" producer="chain4">
   <property name="kdenlive:id">31</property>
  </entry>
 </playlist>
 <playlist id="playlist1">
  <property name="kdenlive:audio_track">1</property>
 </playlist>
 <tractor id="tractor0" in="00:00:00.000" out="00:02:58.667">
  <property name="kdenlive:audio_track">1</property>
  <property name="kdenlive:trackheight">62</property>
  <property name="kdenlive:timeline_active">1</property>
  <property name="kdenlive:collapsed">0</property>
  <property name="kdenlive:thumbs_format"/>
  <property name="kdenlive:audio_rec"/>
  <track hide="video" producer="playlist0"/>
  <track hide="video" producer="playlist1"/>
  <filter id="filter0">
   <property name="window">75</property>
   <property name="max_gain">20dB</property>
   <property name="mlt_service">volume</property>
   <property name="internal_added">237</property>
   <property name="disable">1</property>
  </filter>
  <filter id="filter1">
   <property name="channel">-1</property>
   <property name="mlt_service">panner</property>
   <property name="internal_added">237</property>
   <property name="start">0.5</property>
   <property name="disable">1</property>
  </filter>
  <filter id="filter2">
   <property name="iec_scale">0</property>
   <property name="mlt_service">audiolevel</property>
   <property name="dbpeak">1</property>
   <property name="disable">1</property>
  </filter>
 </tractor>
 <chain id="chain5" out="00:00:42.900">
  <property name="length">1288</property>
  <property name="eof">pause</property>
  <property name="resource">2024-11-08 22-24-31.mkv</property>
  <property name="mlt_service">avformat-novalidate</property>
  <property name="seekable">1</property>
  <property name="format">3</property>
  <property name="audio_index">1</property>
  <property name="video_index">0</property>
  <property name="vstream">0</property>
  <property name="astream">0</property>
  <property name="kdenlive:control_uuid">{2929d188-55e8-4247-b71c-741b2b6ffde0}</property>
  <property name="kdenlive:id">46</property>
  <property name="kdenlive:clip_type">0</property>
  <property name="kdenlive:file_size">14323625</property>
  <property name="kdenlive:file_hash">1b38ae47577e76c8050a07a65a36eb01</property>
  <property name="kdenlive:folderid">-1</property>
  <property name="kdenlive:audio_max1">59</property>
  <property name="kdenlive:monitorPosition">105</property>
  <property name="meta.media.nb_streams">2</property>
  <property name="meta.media.0.stream.type">video</property>
  <property name="meta.media.0.stream.frame_rate">30</property>
  <property name="meta.media.0.stream.sample_aspect_ratio">0</property>
  <property name="meta.media.0.codec.width">1280</property>
  <property name="meta.media.0.codec.height">720</property>
  <property name="meta.media.0.codec.rotate">0</property>
  <property name="meta.media.0.codec.pix_fmt">yuv420p</property>
  <property name="meta.media.0.codec.sample_aspect_ratio">1</property>
  <property name="meta.media.0.codec.colorspace">709</property>
  <property name="meta.media.0.codec.color_trc">1</property>
  <property name="meta.media.0.codec.name">h264</property>
  <property name="meta.media.0.codec.long_name">H.264 / AVC / MPEG-4 AVC / MPEG-4 part 10</property>
  <property name="meta.media.0.codec.bit_rate">0</property>
  <property name="meta.attr.0.stream.DURATION.markup">00:00:42.933000000</property>
  <property name="meta.media.1.stream.type">audio</property>
  <property name="meta.media.1.codec.sample_fmt">fltp</property>
  <property name="meta.media.1.codec.sample_rate">48000</property>
  <property name="meta.media.1.codec.channels">2</property>
  <property name="meta.media.1.codec.layout">stereo</property>
  <property name="meta.media.1.codec.name">aac</property>
  <property name="meta.media.1.codec.long_name">AAC (Advanced Audio Coding)</property>
  <property name="meta.media.1.codec.bit_rate">0</property>
  <property name="meta.attr.1.stream.title.markup">simple_aac</property>
  <property name="meta.attr.1.stream.DURATION.markup">00:00:42.816000000</property>
  <property name="meta.attr.ENCODER.markup">Lavf61.1.100</property>
  <property name="meta.media.sample_aspect_num">1</property>
  <property name="meta.media.sample_aspect_den">1</property>
  <property name="meta.media.frame_rate_num">30</property>
  <property name="meta.media.frame_rate_den">1</property>
  <property name="meta.media.colorspace">709</property>
  <property name="meta.media.color_trc">1</property>
  <property name="meta.media.has_b_frames">1</property>
  <property name="meta.media.width">1280</property>
  <property name="meta.media.height">720</property>
  <property name="meta.media.aspect_ratio">1</property>
  <property name="meta.media.color_range">mpeg</property>
  <property name="xml">was here</property>
  <property name="mute_on_pause">0</property>
  <property name="meta.media.top_field_first">0</property>
  <property name="meta.media.progressive">1</property>
  <property name="set.test_audio">0</property>
  <property name="set.test_image">1</property>
 </chain>
 <chain id="chain6" out="00:00:46.700">
  <property name="length">1402</property>
  <property name="eof">pause</property>
  <property name="resource">2024-11-08 22-41-37.mkv</property>
  <property name="mlt_service">avformat-novalidate</property>
  <property name="seekable">1</property>
  <property name="format">3</property>
  <property name="audio_index">1</property>
  <property name="video_index">0</property>
  <property name="vstream">0</property>
  <property name="astream">0</property>
  <property name="kdenlive:folderid">-1</property>
  <property name="kdenlive:id">60</property>
  <property name="kdenlive:control_uuid">{883883da-2f4a-4f2a-9424-bf0c6a906a44}</property>
  <property name="mute_on_pause">0</property>
  <property name="kdenlive:clip_type">0</property>
  <property name="kdenlive:file_size">15576245</property>
  <property name="kdenlive:file_hash">f3fee7106fc61a3973ca7f3e95e2a1f2</property>
  <property name="kdenlive:audio_max1">64</property>
  <property name="kdenlive:monitorPosition">334</property>
  <property name="meta.media.nb_streams">2</property>
  <property name="meta.media.0.stream.type">video</property>
  <property name="meta.media.0.stream.frame_rate">30</property>
  <property name="meta.media.0.stream.sample_aspect_ratio">0</property>
  <property name="meta.media.0.codec.width">1280</property>
  <property name="meta.media.0.codec.height">720</property>
  <property name="meta.media.0.codec.rotate">0</property>
  <property name="meta.media.0.codec.pix_fmt">yuv420p</property>
  <property name="meta.media.0.codec.sample_aspect_ratio">1</property>
  <property name="meta.media.0.codec.colorspace">709</property>
  <property name="meta.media.0.codec.color_trc">1</property>
  <property name="meta.media.0.codec.name">h264</property>
  <property name="meta.media.0.codec.long_name">H.264 / AVC / MPEG-4 AVC / MPEG-4 part 10</property>
  <property name="meta.media.0.codec.bit_rate">0</property>
  <property name="meta.attr.0.stream.DURATION.markup">00:00:46.733000000</property>
  <property name="meta.media.1.stream.type">audio</property>
  <property name="meta.media.1.codec.sample_fmt">fltp</property>
  <property name="meta.media.1.codec.sample_rate">48000</property>
  <property name="meta.media.1.codec.channels">2</property>
  <property name="meta.media.1.codec.layout">stereo</property>
  <property name="meta.media.1.codec.name">aac</property>
  <property name="meta.media.1.codec.long_name">AAC (Advanced Audio Coding)</property>
  <property name="meta.media.1.codec.bit_rate">0</property>
  <property name="meta.attr.1.stream.title.markup">simple_aac</property>
  <property name="meta.attr.1.stream.DURATION.markup">00:00:46.634000000</property>
  <property name="meta.attr.ENCODER.markup">Lavf61.1.100</property>
  <property name="meta.media.sample_aspect_num">1</property>
  <property name="meta.media.sample_aspect_den">1</property>
  <property name="meta.media.frame_rate_num">30</property>
  <property name="meta.media.frame_rate_den">1</property>
  <property name="meta.media.colorspace">709</property>
  <property name="meta.media.color_trc">1</property>
  <property name="meta.media.has_b_frames">1</property>
  <property name="meta.media.width">1280</property>
  <property name="meta.media.height">720</property>
  <property name="meta.media.aspect_ratio">1</property>
  <property name="meta.media.color_range">mpeg</property>
  <property name="xml">was here</property>
  <property name="meta.media.top_field_first">0</property>
  <property name="meta.media.progressive">1</property>
  <property name="set.test_audio">0</property>
  <property name="set.test_image">1</property>
 </chain>
 <chain id="chain7" out="00:00:31.400">
  <property name="length">943</property>
  <property name="eof">pause</property>
  <property name="resource">2024-11-08 22-43-33.mkv</property>
  <property name="mlt_service">avformat-novalidate</property>
  <property name="seekable">1</property>
  <property name="format">3</property>
  <property name="audio_index">1</property>
  <property name="video_index">0</property>
  <property name="vstream">0</property>
  <property name="astream">0</property>
  <property name="kdenlive:folderid">-1</property>
  <property name="kdenlive:id">57</property>
  <property name="kdenlive:control_uuid">{bd9c004b-0cee-4965-9051-29e615f0fdae}</property>
  <property name="mute_on_pause">0</property>
  <property name="kdenlive:clip_type">0</property>
  <property name="kdenlive:file_size">10458250</property>
  <property name="kdenlive:file_hash">2e51cc64937ae2529a5b1f49d347e9b0</property>
  <property name="kdenlive:audio_max1">59</property>
  <property name="kdenlive:monitorPosition">0</property>
  <property name="meta.media.nb_streams">2</property>
  <property name="meta.media.0.stream.type">video</property>
  <property name="meta.media.0.stream.frame_rate">30</property>
  <property name="meta.media.0.stream.sample_aspect_ratio">0</property>
  <property name="meta.media.0.codec.width">1280</property>
  <property name="meta.media.0.codec.height">720</property>
  <property name="meta.media.0.codec.rotate">0</property>
  <property name="meta.media.0.codec.pix_fmt">yuv420p</property>
  <property name="meta.media.0.codec.sample_aspect_ratio">1</property>
  <property name="meta.media.0.codec.colorspace">709</property>
  <property name="meta.media.0.codec.color_trc">1</property>
  <property name="meta.media.0.codec.name">h264</property>
  <property name="meta.media.0.codec.long_name">H.264 / AVC / MPEG-4 AVC / MPEG-4 part 10</property>
  <property name="meta.media.0.codec.bit_rate">0</property>
  <property name="meta.attr.0.stream.DURATION.markup">00:00:31.433000000</property>
  <property name="meta.media.1.stream.type">audio</property>
  <property name="meta.media.1.codec.sample_fmt">fltp</property>
  <property name="meta.media.1.codec.sample_rate">48000</property>
  <property name="meta.media.1.codec.channels">2</property>
  <property name="meta.media.1.codec.layout">stereo</property>
  <property name="meta.media.1.codec.name">aac</property>
  <property name="meta.media.1.codec.long_name">AAC (Advanced Audio Coding)</property>
  <property name="meta.media.1.codec.bit_rate">0</property>
  <property name="meta.attr.1.stream.title.markup">simple_aac</property>
  <property name="meta.attr.1.stream.DURATION.markup">00:00:31.338000000</property>
  <property name="meta.attr.ENCODER.markup">Lavf61.1.100</property>
  <property name="meta.media.sample_aspect_num">1</property>
  <property name="meta.media.sample_aspect_den">1</property>
  <property name="meta.media.frame_rate_num">30</property>
  <property name="meta.media.frame_rate_den">1</property>
  <property name="meta.media.colorspace">709</property>
  <property name="meta.media.color_trc">1</property>
  <property name="meta.media.has_b_frames">1</property>
  <property name="meta.media.width">1280</property>
  <property name="meta.media.height">720</property>
  <property name="meta.media.aspect_ratio">1</property>
  <property name="meta.media.color_range">mpeg</property>
  <property name="xml">was here</property>
  <property name="meta.media.top_field_first">0</property>
  <property name="meta.media.progressive">1</property>
  <property name="set.test_audio">0</property>
  <property name="set.test_image">1</property>
 </chain>
 <chain id="chain8" out="00:00:37.200">
  <property name="length">1117</property>
  <property name="eof">pause</property>
  <property name="resource">2024-11-08 22-45-51.mkv</property>
  <property name="mlt_service">avformat-novalidate</property>
  <property name="seekable">1</property>
  <property name="format">3</property>
  <property name="audio_index">1</property>
  <property name="video_index">0</property>
  <property name="vstream">0</property>
  <property name="astream">0</property>
  <property name="kdenlive:folderid">-1</property>
  <property name="kdenlive:id">48</property>
  <property name="kdenlive:control_uuid">{cb7e2b91-a38a-46b4-9c89-16f03f3fafcf}</property>
  <property name="mute_on_pause">0</property>
  <property name="kdenlive:clip_type">0</property>
  <property name="kdenlive:file_size">12390197</property>
  <property name="kdenlive:file_hash">7959f34c6cb9b32f41ae96c8c1822cec</property>
  <property name="kdenlive:audio_max1">72</property>
  <property name="kdenlive:monitorPosition">0</property>
  <property name="meta.media.nb_streams">2</property>
  <property name="meta.media.0.stream.type">video</property>
  <property name="meta.media.0.stream.frame_rate">30</property>
  <property name="meta.media.0.stream.sample_aspect_ratio">0</property>
  <property name="meta.media.0.codec.width">1280</property>
  <property name="meta.media.0.codec.height">720</property>
  <property name="meta.media.0.codec.rotate">0</property>
  <property name="meta.media.0.codec.pix_fmt">yuv420p</property>
  <property name="meta.media.0.codec.sample_aspect_ratio">1</property>
  <property name="meta.media.0.codec.colorspace">709</property>
  <property name="meta.media.0.codec.color_trc">1</property>
  <property name="meta.media.0.codec.name">h264</property>
  <property name="meta.media.0.codec.long_name">H.264 / AVC / MPEG-4 AVC / MPEG-4 part 10</property>
  <property name="meta.media.0.codec.bit_rate">0</property>
  <property name="meta.attr.0.stream.DURATION.markup">00:00:37.233000000</property>
  <property name="meta.media.1.stream.type">audio</property>
  <property name="meta.media.1.codec.sample_fmt">fltp</property>
  <property name="meta.media.1.codec.sample_rate">48000</property>
  <property name="meta.media.1.codec.channels">2</property>
  <property name="meta.media.1.codec.layout">stereo</property>
  <property name="meta.media.1.codec.name">aac</property>
  <property name="meta.media.1.codec.long_name">AAC (Advanced Audio Coding)</property>
  <property name="meta.media.1.codec.bit_rate">0</property>
  <property name="meta.attr.1.stream.title.markup">simple_aac</property>
  <property name="meta.attr.1.stream.DURATION.markup">00:00:37.141000000</property>
  <property name="meta.attr.ENCODER.markup">Lavf61.1.100</property>
  <property name="meta.media.sample_aspect_num">1</property>
  <property name="meta.media.sample_aspect_den">1</property>
  <property name="meta.media.frame_rate_num">30</property>
  <property name="meta.media.frame_rate_den">1</property>
  <property name="meta.media.colorspace">709</property>
  <property name="meta.media.color_trc">1</property>
  <property name="meta.media.has_b_frames">1</property>
  <property name="meta.media.width">1280</property>
  <property name="meta.media.height">720</property>
  <property name="meta.media.aspect_ratio">1</property>
  <property name="meta.media.color_range">mpeg</property>
  <property name="xml">was here</property>
  <property name="meta.media.top_field_first">0</property>
  <property name="meta.media.progressive">1</property>
  <property name="set.test_audio">0</property>
  <property name="set.test_image">1</property>
 </chain>
 <chain id="chain9" out="00:01:55.700">
  <property name="length">3472</property>
  <property name="eof">pause</property>
  <property name="resource">2024-11-08 22-29-50.mkv</property>
  <property name="mlt_service">avformat-novalidate</property>
  <property name="seekable">1</property>
  <property name="format">3</property>
  <property name="audio_index">1</property>
  <property name="video_index">0</property>
  <property name="vstream">0</property>
  <property name="astream">0</property>
  <property name="kdenlive:control_uuid">{ac2c5f4b-3d13-47e2-9922-975f7c3bf3bc}</property>
  <property name="kdenlive:id">31</property>
  <property name="kdenlive:clip_type">0</property>
  <property name="kdenlive:file_size">38525946</property>
  <property name="kdenlive:file_hash">d65240bbb916cb5a5f506ab90d0f0720</property>
  <property name="kdenlive:folderid">-1</property>
  <property name="kdenlive:audio_max1">72</property>
  <property name="kdenlive:monitorPosition">467</property>
  <property name="meta.media.nb_streams">2</property>
  <property name="meta.media.0.stream.type">video</property>
  <property name="meta.media.0.stream.frame_rate">30</property>
  <property name="meta.media.0.stream.sample_aspect_ratio">0</property>
  <property name="meta.media.0.codec.width">1280</property>
  <property name="meta.media.0.codec.height">720</property>
  <property name="meta.media.0.codec.rotate">0</property>
  <property name="meta.media.0.codec.pix_fmt">yuv420p</property>
  <property name="meta.media.0.codec.sample_aspect_ratio">1</property>
  <property name="meta.media.0.codec.colorspace">709</property>
  <property name="meta.media.0.codec.color_trc">1</property>
  <property name="meta.media.0.codec.name">h264</property>
  <property name="meta.media.0.codec.long_name">H.264 / AVC / MPEG-4 AVC / MPEG-4 part 10</property>
  <property name="meta.media.0.codec.bit_rate">0</property>
  <property name="meta.attr.0.stream.DURATION.markup">00:01:55.733000000</property>
  <property name="meta.media.1.stream.type">audio</property>
  <property name="meta.media.1.codec.sample_fmt">fltp</property>
  <property name="meta.media.1.codec.sample_rate">48000</property>
  <property name="meta.media.1.codec.channels">2</property>
  <property name="meta.media.1.codec.layout">stereo</property>
  <property name="meta.media.1.codec.name">aac</property>
  <property name="meta.media.1.codec.long_name">AAC (Advanced Audio Coding)</property>
  <property name="meta.media.1.codec.bit_rate">0</property>
  <property name="meta.attr.1.stream.title.markup">simple_aac</property>
  <property name="meta.attr.1.stream.DURATION.markup">00:01:55.605000000</property>
  <property name="meta.attr.ENCODER.markup">Lavf61.1.100</property>
  <property name="meta.media.sample_aspect_num">1</property>
  <property name="meta.media.sample_aspect_den">1</property>
  <property name="meta.media.frame_rate_num">30</property>
  <property name="meta.media.frame_rate_den">1</property>
  <property name="meta.media.colorspace">709</property>
  <property name="meta.media.color_trc">1</property>
  <property name="meta.media.has_b_frames">1</property>
  <property name="meta.media.width">1280</property>
  <property name="meta.media.height">720</property>
  <property name="meta.media.aspect_ratio">1</property>
  <property name="meta.media.color_range">mpeg</property>
  <property name="xml">was here</property>
  <property name="mute_on_pause">0</property>
  <property name="meta.media.top_field_first">0</property>
  <property name="meta.media.progressive">1</property>
  <property name="set.test_audio">0</property>
  <property name="set.test_image">1</property>
 </chain>
 <chain id="chain10" out="00:00:23.300">
  <property name="length">700</property>
  <property name="eof">pause</property>
  <property name="resource">2024-11-08 22-36-38.mkv</property>
  <property name="mlt_service">avformat-novalidate</property>
  <property name="seekable">1</property>
  <property name="format">3</property>
  <property name="audio_index">1</property>
  <property name="video_index">0</property>
  <property name="vstream">0</property>
  <property name="astream">0</property>
  <property name="kdenlive:control_uuid">{c5e49696-2b68-48f0-8080-1d5dc3643dde}</property>
  <property name="kdenlive:id">4</property>
  <property name="kdenlive:clip_type">0</property>
  <property name="kdenlive:file_size">7771849</property>
  <property name="kdenlive:file_hash">504d4e3716f446ed3c74cd2c35edd8a7</property>
  <property name="kdenlive:folderid">-1</property>
  <property name="kdenlive:monitorPosition">421</property>
  <property name="kdenlive:audio_max1">72</property>
  <property name="meta.media.nb_streams">2</property>
  <property name="meta.media.0.stream.type">video</property>
  <property name="meta.media.0.stream.frame_rate">30</property>
  <property name="meta.media.0.stream.sample_aspect_ratio">0</property>
  <property name="meta.media.0.codec.width">1280</property>
  <property name="meta.media.0.codec.height">720</property>
  <property name="meta.media.0.codec.rotate">0</property>
  <property name="meta.media.0.codec.pix_fmt">yuv420p</property>
  <property name="meta.media.0.codec.sample_aspect_ratio">1</property>
  <property name="meta.media.0.codec.colorspace">709</property>
  <property name="meta.media.0.codec.color_trc">1</property>
  <property name="meta.media.0.codec.name">h264</property>
  <property name="meta.media.0.codec.long_name">H.264 / AVC / MPEG-4 AVC / MPEG-4 part 10</property>
  <property name="meta.media.0.codec.bit_rate">0</property>
  <property name="meta.attr.0.stream.DURATION.markup">00:00:23.333000000</property>
  <property name="meta.media.1.stream.type">audio</property>
  <property name="meta.media.1.codec.sample_fmt">fltp</property>
  <property name="meta.media.1.codec.sample_rate">48000</property>
  <property name="meta.media.1.codec.channels">2</property>
  <property name="meta.media.1.codec.layout">stereo</property>
  <property name="meta.media.1.codec.name">aac</property>
  <property name="meta.media.1.codec.long_name">AAC (Advanced Audio Coding)</property>
  <property name="meta.media.1.codec.bit_rate">0</property>
  <property name="meta.attr.1.stream.title.markup">simple_aac</property>
  <property name="meta.attr.1.stream.DURATION.markup">00:00:23.274000000</property>
  <property name="meta.attr.ENCODER.markup">Lavf61.1.100</property>
  <property name="meta.media.sample_aspect_num">1</property>
  <property name="meta.media.sample_aspect_den">1</property>
  <property name="meta.media.frame_rate_num">30</property>
  <property name="meta.media.frame_rate_den">1</property>
  <property name="meta.media.colorspace">709</property>
  <property name="meta.media.color_trc">1</property>
  <property name="meta.media.has_b_frames">1</property>
  <property name="meta.media.width">1280</property>
  <property name="meta.media.height">720</property>
  <property name="meta.media.aspect_ratio">1</property>
  <property name="meta.media.color_range">mpeg</property>
  <property name="xml">was here</property>
  <property name="mute_on_pause">0</property>
  <property name="meta.media.top_field_first">0</property>
  <property name="meta.media.progressive">1</property>
  <property name="set.test_audio">0</property>
  <property name="set.test_image">1</property>
 </chain>
 <playlist id="playlist2">
  <property name="kdenlive:audio_track">1</property>
  <entry in="00:00:00.000" out="00:00:02.133" producer="chain5">
   <property name="kdenlive:id">46</property>
  </entry>
  <entry in="00:00:03.300" out="00:00:07.633" producer="chain5">
   <property name="kdenlive:id">46</property>
  </entry>
  <entry in="00:00:08.033" out="00:00:08.100" producer="chain5">
   <property name="kdenlive:id">46</property>
  </entry>
  <entry in="00:00:08.600" out="00:00:09.067" producer="chain5">
   <property name="kdenlive:id">46</property>
  </entry>
  <entry in="00:00:10.000" out="00:00:11.133" producer="chain5">
   <property name="kdenlive:id">46</property>
  </entry>
  <entry in="00:00:11.333" out="00:00:12.367" producer="chain5">
   <property name="kdenlive:id">46</property>
  </entry>
  <entry in="00:00:13.900" out="00:00:16.300" producer="chain5">
   <property name="kdenlive:id">46</property>
  </entry>
  <entry in="00:00:18.333" out="00:00:19.833" producer="chain5">
   <property name="kdenlive:id">46</property>
  </entry>
  <entry in="00:00:20.767" out="00:00:23.500" producer="chain5">
   <property name="kdenlive:id">46</property>
  </entry>
  <blank length="00:00:15.300"/>
  <entry in="00:00:22.300" out="00:00:29.333" producer="chain6">
   <property name="kdenlive:id">60</property>
  </entry>
  <blank length="00:00:25.733"/>
  <entry in="00:00:00.133" out="00:00:08.767" producer="chain7">
   <property name="kdenlive:id">57</property>
  </entry>
  <entry in="00:00:09.533" out="00:00:15.100" producer="chain7">
   <property name="kdenlive:id">57</property>
  </entry>
  <blank length="00:00:09.800"/>
  <entry in="00:00:22.400" out="00:00:25.500" producer="chain8">
   <property name="kdenlive:id">48</property>
  </entry>
  <blank length="00:00:04.733"/>
  <entry in="00:00:00.100" out="00:00:06.567" producer="chain9">
   <property name="kdenlive:id">31</property>
  </entry>
  <entry in="00:00:06.900" out="00:00:09.733" producer="chain9">
   <property name="kdenlive:id">31</property>
  </entry>
  <entry in="00:00:10.567" out="00:00:11.567" producer="chain9">
   <property name="kdenlive:id">31</property>
  </entry>
  <entry in="00:00:12.533" out="00:00:19.033" producer="chain9">
   <property name="kdenlive:id">31</property>
  </entry>
  <entry in="00:00:19.367" out="00:00:20.867" producer="chain9">
   <property name="kdenlive:id">31</property>
  </entry>
  <entry in="00:00:24.500" out="00:00:24.833" producer="chain9">
   <property name="kdenlive:id">31</property>
  </entry>
  <entry in="00:00:25.633" out="00:00:29.267" producer="chain9">
   <property name="kdenlive:id">31</property>
  </entry>
  <entry in="00:00:30.967" out="00:00:31.133" producer="chain9">
   <property name="kdenlive:id">31</property>
  </entry>
  <entry in="00:00:31.800" out="00:00:35.500" producer="chain9">
   <property name="kdenlive:id">31</property>
  </entry>
  <entry in="00:00:38.867" out="00:00:42.667" producer="chain9">
   <property name="kdenlive:id">31</property>
  </entry>
  <entry in="00:00:46.200" out="00:00:56.933" producer="chain9">
   <property name="kdenlive:id">31</property>
  </entry>
  <entry in="00:00:59.500" out="00:01:03.967" producer="chain9">
   <property name="kdenlive:id">31</property>
  </entry>
  <entry in="00:01:04.433" out="00:01:05.000" producer="chain9">
   <property name="kdenlive:id">31</property>
  </entry>
  <entry in="00:01:05.600" out="00:01:07.333" producer="chain9">
   <property name="kdenlive:id">31</property>
  </entry>
  <entry in="00:01:07.733" out="00:01:08.200" producer="chain9">
   <property name="kdenlive:id">31</property>
  </entry>
  <entry in="00:01:09.100" out="00:01:10.033" producer="chain9">
   <property name="kdenlive:id">31</property>
  </entry>
  <entry in="00:01:10.300" out="00:01:14.233" producer="chain9">
   <property name="kdenlive:id">31</property>
  </entry>
  <entry in="00:01:15.400" out="00:01:16.767" producer="chain9">
   <property name="kdenlive:id">31</property>
  </entry>
  <entry in="00:01:17.933" out="00:01:22.933" producer="chain9">
   <property name="kdenlive:id">31</property>
  </entry>
  <entry in="00:01:23.467" out="00:01:28.300" producer="chain9">
   <property name="kdenlive:id">31</property>
  </entry>
  <entry in="00:01:28.867" out="00:01:35.200" producer="chain9">
   <property name="kdenlive:id">31</property>
  </entry>
  <blank length="00:00:11.567"/>
  <entry in="00:00:00.000" out="00:00:02.467" producer="chain10">
   <property name="kdenlive:id">4</property>
  </entry>
  <entry in="00:00:02.667" out="00:00:04.667" producer="chain10">
   <property name="kdenlive:id">4</property>
  </entry>
  <entry in="00:00:11.900" out="00:00:12.700" producer="chain10">
   <property name="kdenlive:id">4</property>
  </entry>
  <entry in="00:00:12.900" out="00:00:15.767" producer="chain10">
   <property name="kdenlive:id">4</property>
  </entry>
  <entry in="00:00:16.167" out="00:00:16.900" producer="chain10">
   <property name="kdenlive:id">4</property>
  </entry>
  <entry in="00:00:17.667" out="00:00:18.567" producer="chain10">
   <property name="kdenlive:id">4</property>
  </entry>
  <entry in="00:00:19.367" out="00:00:21.200" producer="chain10">
   <property name="kdenlive:id">4</property>
  </entry>
 </playlist>
 <playlist id="playlist3">
  <property name="kdenlive:audio_track">1</property>
 </playlist>
 <tractor id="tractor1" in="00:00:00.000" out="00:03:10.500">
  <property name="kdenlive:audio_track">1</property>
  <property name="kdenlive:trackheight">62</property>
  <property name="kdenlive:timeline_active">1</property>
  <property name="kdenlive:collapsed">0</property>
  <property name="kdenlive:thumbs_format"/>
  <property name="kdenlive:audio_rec"/>
  <track hide="video" producer="playlist2"/>
  <track hide="video" producer="playlist3"/>
  <filter id="filter3">
   <property name="window">75</property>
   <property name="max_gain">20dB</property>
   <property name="mlt_service">volume</property>
   <property name="internal_added">237</property>
   <property name="disable">1</property>
  </filter>
  <filter id="filter4">
   <property name="channel">-1</property>
   <property name="mlt_service">panner</property>
   <property name="internal_added">237</property>
   <property name="start">0.5</property>
   <property name="disable">1</property>
  </filter>
  <filter id="filter5">
   <property name="iec_scale">0</property>
   <property name="mlt_service">audiolevel</property>
   <property name="dbpeak">1</property>
   <property name="disable">1</property>
  </filter>
 </tractor>
 <chain id="chain11" out="00:00:42.900">
  <property name="length">1288</property>
  <property name="eof">pause</property>
  <property name="resource">2024-11-08 22-24-31.mkv</property>
  <property name="mlt_service">avformat-novalidate</property>
  <property name="seekable">1</property>
  <property name="format">3</property>
  <property name="audio_index">1</property>
  <property name="video_index">0</property>
  <property name="vstream">0</property>
  <property name="astream">0</property>
  <property name="kdenlive:control_uuid">{2929d188-55e8-4247-b71c-741b2b6ffde0}</property>
  <property name="kdenlive:id">46</property>
  <property name="kdenlive:clip_type">0</property>
  <property name="kdenlive:file_size">14323625</property>
  <property name="kdenlive:file_hash">1b38ae47577e76c8050a07a65a36eb01</property>
  <property name="kdenlive:folderid">-1</property>
  <property name="kdenlive:audio_max1">59</property>
  <property name="kdenlive:monitorPosition">105</property>
  <property name="meta.media.nb_streams">2</property>
  <property name="meta.media.0.stream.type">video</property>
  <property name="meta.media.0.stream.frame_rate">30</property>
  <property name="meta.media.0.stream.sample_aspect_ratio">0</property>
  <property name="meta.media.0.codec.width">1280</property>
  <property name="meta.media.0.codec.height">720</property>
  <property name="meta.media.0.codec.rotate">0</property>
  <property name="meta.media.0.codec.pix_fmt">yuv420p</property>
  <property name="meta.media.0.codec.sample_aspect_ratio">1</property>
  <property name="meta.media.0.codec.colorspace">709</property>
  <property name="meta.media.0.codec.color_trc">1</property>
  <property name="meta.media.0.codec.name">h264</property>
  <property name="meta.media.0.codec.long_name">H.264 / AVC / MPEG-4 AVC / MPEG-4 part 10</property>
  <property name="meta.media.0.codec.bit_rate">0</property>
  <property name="meta.attr.0.stream.DURATION.markup">00:00:42.933000000</property>
  <property name="meta.media.1.stream.type">audio</property>
  <property name="meta.media.1.codec.sample_fmt">fltp</property>
  <property name="meta.media.1.codec.sample_rate">48000</property>
  <property name="meta.media.1.codec.channels">2</property>
  <property name="meta.media.1.codec.layout">stereo</property>
  <property name="meta.media.1.codec.name">aac</property>
  <property name="meta.media.1.codec.long_name">AAC (Advanced Audio Coding)</property>
  <property name="meta.media.1.codec.bit_rate">0</property>
  <property name="meta.attr.1.stream.title.markup">simple_aac</property>
  <property name="meta.attr.1.stream.DURATION.markup">00:00:42.816000000</property>
  <property name="meta.attr.ENCODER.markup">Lavf61.1.100</property>
  <property name="meta.media.sample_aspect_num">1</property>
  <property name="meta.media.sample_aspect_den">1</property>
  <property name="meta.media.frame_rate_num">30</property>
  <property name="meta.media.frame_rate_den">1</property>
  <property name="meta.media.colorspace">709</property>
  <property name="meta.media.color_trc">1</property>
  <property name="meta.media.has_b_frames">1</property>
  <property name="meta.media.width">1280</property>
  <property name="meta.media.height">720</property>
  <property name="meta.media.aspect_ratio">1</property>
  <property name="meta.media.color_range">mpeg</property>
  <property name="xml">was here</property>
  <property name="mute_on_pause">0</property>
  <property name="meta.media.top_field_first">0</property>
  <property name="meta.media.progressive">1</property>
  <property name="set.test_audio">1</property>
  <property name="set.test_image">0</property>
 </chain>
 <chain id="chain12" out="00:00:46.700">
  <property name="length">1402</property>
  <property name="eof">pause</property>
  <property name="resource">2024-11-08 22-41-37.mkv</property>
  <property name="mlt_service">avformat-novalidate</property>
  <property name="seekable">1</property>
  <property name="format">3</property>
  <property name="audio_index">1</property>
  <property name="video_index">0</property>
  <property name="vstream">0</property>
  <property name="astream">0</property>
  <property name="kdenlive:folderid">-1</property>
  <property name="kdenlive:id">60</property>
  <property name="kdenlive:control_uuid">{883883da-2f4a-4f2a-9424-bf0c6a906a44}</property>
  <property name="mute_on_pause">0</property>
  <property name="kdenlive:clip_type">0</property>
  <property name="kdenlive:file_size">15576245</property>
  <property name="kdenlive:file_hash">f3fee7106fc61a3973ca7f3e95e2a1f2</property>
  <property name="kdenlive:audio_max1">64</property>
  <property name="kdenlive:monitorPosition">334</property>
  <property name="meta.media.nb_streams">2</property>
  <property name="meta.media.0.stream.type">video</property>
  <property name="meta.media.0.stream.frame_rate">30</property>
  <property name="meta.media.0.stream.sample_aspect_ratio">0</property>
  <property name="meta.media.0.codec.width">1280</property>
  <property name="meta.media.0.codec.height">720</property>
  <property name="meta.media.0.codec.rotate">0</property>
  <property name="meta.media.0.codec.pix_fmt">yuv420p</property>
  <property name="meta.media.0.codec.sample_aspect_ratio">1</property>
  <property name="meta.media.0.codec.colorspace">709</property>
  <property name="meta.media.0.codec.color_trc">1</property>
  <property name="meta.media.0.codec.name">h264</property>
  <property name="meta.media.0.codec.long_name">H.264 / AVC / MPEG-4 AVC / MPEG-4 part 10</property>
  <property name="meta.media.0.codec.bit_rate">0</property>
  <property name="meta.attr.0.stream.DURATION.markup">00:00:46.733000000</property>
  <property name="meta.media.1.stream.type">audio</property>
  <property name="meta.media.1.codec.sample_fmt">fltp</property>
  <property name="meta.media.1.codec.sample_rate">48000</property>
  <property name="meta.media.1.codec.channels">2</property>
  <property name="meta.media.1.codec.layout">stereo</property>
  <property name="meta.media.1.codec.name">aac</property>
  <property name="meta.media.1.codec.long_name">AAC (Advanced Audio Coding)</property>
  <property name="meta.media.1.codec.bit_rate">0</property>
  <property name="meta.attr.1.stream.title.markup">simple_aac</property>
  <property name="meta.attr.1.stream.DURATION.markup">00:00:46.634000000</property>
  <property name="meta.attr.ENCODER.markup">Lavf61.1.100</property>
  <property name="meta.media.sample_aspect_num">1</property>
  <property name="meta.media.sample_aspect_den">1</property>
  <property name="meta.media.frame_rate_num">30</property>
  <property name="meta.media.frame_rate_den">1</property>
  <property name="meta.media.colorspace">709</property>
  <property name="meta.media.color_trc">1</property>
  <property name="meta.media.has_b_frames">1</property>
  <property name="meta.media.width">1280</property>
  <property name="meta.media.height">720</property>
  <property name="meta.media.aspect_ratio">1</property>
  <property name="meta.media.color_range">mpeg</property>
  <property name="xml">was here</property>
  <property name="meta.media.top_field_first">0</property>
  <property name="meta.media.progressive">1</property>
  <property name="set.test_audio">1</property>
  <property name="set.test_image">0</property>
 </chain>
 <chain id="chain13" out="00:00:31.400">
  <property name="length">943</property>
  <property name="eof">pause</property>
  <property name="resource">2024-11-08 22-43-33.mkv</property>
  <property name="mlt_service">avformat-novalidate</property>
  <property name="seekable">1</property>
  <property name="format">3</property>
  <property name="audio_index">1</property>
  <property name="video_index">0</property>
  <property name="vstream">0</property>
  <property name="astream">0</property>
  <property name="kdenlive:folderid">-1</property>
  <property name="kdenlive:id">57</property>
  <property name="kdenlive:control_uuid">{bd9c004b-0cee-4965-9051-29e615f0fdae}</property>
  <property name="mute_on_pause">0</property>
  <property name="kdenlive:clip_type">0</property>
  <property name="kdenlive:file_size">10458250</property>
  <property name="kdenlive:file_hash">2e51cc64937ae2529a5b1f49d347e9b0</property>
  <property name="kdenlive:audio_max1">59</property>
  <property name="kdenlive:monitorPosition">0</property>
  <property name="meta.media.nb_streams">2</property>
  <property name="meta.media.0.stream.type">video</property>
  <property name="meta.media.0.stream.frame_rate">30</property>
  <property name="meta.media.0.stream.sample_aspect_ratio">0</property>
  <property name="meta.media.0.codec.width">1280</property>
  <property name="meta.media.0.codec.height">720</property>
  <property name="meta.media.0.codec.rotate">0</property>
  <property name="meta.media.0.codec.pix_fmt">yuv420p</property>
  <property name="meta.media.0.codec.sample_aspect_ratio">1</property>
  <property name="meta.media.0.codec.colorspace">709</property>
  <property name="meta.media.0.codec.color_trc">1</property>
  <property name="meta.media.0.codec.name">h264</property>
  <property name="meta.media.0.codec.long_name">H.264 / AVC / MPEG-4 AVC / MPEG-4 part 10</property>
  <property name="meta.media.0.codec.bit_rate">0</property>
  <property name="meta.attr.0.stream.DURATION.markup">00:00:31.433000000</property>
  <property name="meta.media.1.stream.type">audio</property>
  <property name="meta.media.1.codec.sample_fmt">fltp</property>
  <property name="meta.media.1.codec.sample_rate">48000</property>
  <property name="meta.media.1.codec.channels">2</property>
  <property name="meta.media.1.codec.layout">stereo</property>
  <property name="meta.media.1.codec.name">aac</property>
  <property name="meta.media.1.codec.long_name">AAC (Advanced Audio Coding)</property>
  <property name="meta.media.1.codec.bit_rate">0</property>
  <property name="meta.attr.1.stream.title.markup">simple_aac</property>
  <property name="meta.attr.1.stream.DURATION.markup">00:00:31.338000000</property>
  <property name="meta.attr.ENCODER.markup">Lavf61.1.100</property>
  <property name="meta.media.sample_aspect_num">1</property>
  <property name="meta.media.sample_aspect_den">1</property>
  <property name="meta.media.frame_rate_num">30</property>
  <property name="meta.media.frame_rate_den">1</property>
  <property name="meta.media.colorspace">709</property>
  <property name="meta.media.color_trc">1</property>
  <property name="meta.media.has_b_frames">1</property>
  <property name="meta.media.width">1280</property>
  <property name="meta.media.height">720</property>
  <property name="meta.media.aspect_ratio">1</property>
  <property name="meta.media.color_range">mpeg</property>
  <property name="xml">was here</property>
  <property name="meta.media.top_field_first">0</property>
  <property name="meta.media.progressive">1</property>
  <property name="set.test_audio">1</property>
  <property name="set.test_image">0</property>
 </chain>
 <chain id="chain14" out="00:00:37.200">
  <property name="length">1117</property>
  <property name="eof">pause</property>
  <property name="resource">2024-11-08 22-45-51.mkv</property>
  <property name="mlt_service">avformat-novalidate</property>
  <property name="seekable">1</property>
  <property name="format">3</property>
  <property name="audio_index">1</property>
  <property name="video_index">0</property>
  <property name="vstream">0</property>
  <property name="astream">0</property>
  <property name="kdenlive:folderid">-1</property>
  <property name="kdenlive:id">48</property>
  <property name="kdenlive:control_uuid">{cb7e2b91-a38a-46b4-9c89-16f03f3fafcf}</property>
  <property name="mute_on_pause">0</property>
  <property name="kdenlive:clip_type">0</property>
  <property name="kdenlive:file_size">12390197</property>
  <property name="kdenlive:file_hash">7959f34c6cb9b32f41ae96c8c1822cec</property>
  <property name="kdenlive:audio_max1">72</property>
  <property name="kdenlive:monitorPosition">0</property>
  <property name="meta.media.nb_streams">2</property>
  <property name="meta.media.0.stream.type">video</property>
  <property name="meta.media.0.stream.frame_rate">30</property>
  <property name="meta.media.0.stream.sample_aspect_ratio">0</property>
  <property name="meta.media.0.codec.width">1280</property>
  <property name="meta.media.0.codec.height">720</property>
  <property name="meta.media.0.codec.rotate">0</property>
  <property name="meta.media.0.codec.pix_fmt">yuv420p</property>
  <property name="meta.media.0.codec.sample_aspect_ratio">1</property>
  <property name="meta.media.0.codec.colorspace">709</property>
  <property name="meta.media.0.codec.color_trc">1</property>
  <property name="meta.media.0.codec.name">h264</property>
  <property name="meta.media.0.codec.long_name">H.264 / AVC / MPEG-4 AVC / MPEG-4 part 10</property>
  <property name="meta.media.0.codec.bit_rate">0</property>
  <property name="meta.attr.0.stream.DURATION.markup">00:00:37.233000000</property>
  <property name="meta.media.1.stream.type">audio</property>
  <property name="meta.media.1.codec.sample_fmt">fltp</property>
  <property name="meta.media.1.codec.sample_rate">48000</property>
  <property name="meta.media.1.codec.channels">2</property>
  <property name="meta.media.1.codec.layout">stereo</property>
  <property name="meta.media.1.codec.name">aac</property>
  <property name="meta.media.1.codec.long_name">AAC (Advanced Audio Coding)</property>
  <property name="meta.media.1.codec.bit_rate">0</property>
  <property name="meta.attr.1.stream.title.markup">simple_aac</property>
  <property name="meta.attr.1.stream.DURATION.markup">00:00:37.141000000</property>
  <property name="meta.attr.ENCODER.markup">Lavf61.1.100</property>
  <property name="meta.media.sample_aspect_num">1</property>
  <property name="meta.media.sample_aspect_den">1</property>
  <property name="meta.media.frame_rate_num">30</property>
  <property name="meta.media.frame_rate_den">1</property>
  <property name="meta.media.colorspace">709</property>
  <property name="meta.media.color_trc">1</property>
  <property name="meta.media.has_b_frames">1</property>
  <property name="meta.media.width">1280</property>
  <property name="meta.media.height">720</property>
  <property name="meta.media.aspect_ratio">1</property>
  <property name="meta.media.color_range">mpeg</property>
  <property name="xml">was here</property>
  <property name="meta.media.top_field_first">0</property>
  <property name="meta.media.progressive">1</property>
  <property name="set.test_audio">1</property>
  <property name="set.test_image">0</property>
 </chain>
 <chain id="chain15" out="00:01:55.700">
  <property name="length">3472</property>
  <property name="eof">pause</property>
  <property name="resource">2024-11-08 22-29-50.mkv</property>
  <property name="mlt_service">avformat-novalidate</property>
  <property name="seekable">1</property>
  <property name="format">3</property>
  <property name="audio_index">1</property>
  <property name="video_index">0</property>
  <property name="vstream">0</property>
  <property name="astream">0</property>
  <property name="kdenlive:control_uuid">{ac2c5f4b-3d13-47e2-9922-975f7c3bf3bc}</property>
  <property name="kdenlive:id">31</property>
  <property name="kdenlive:clip_type">0</property>
  <property name="kdenlive:file_size">38525946</property>
  <property name="kdenlive:file_hash">d65240bbb916cb5a5f506ab90d0f0720</property>
  <property name="kdenlive:folderid">-1</property>
  <property name="kdenlive:audio_max1">72</property>
  <property name="kdenlive:monitorPosition">467</property>
  <property name="meta.media.nb_streams">2</property>
  <property name="meta.media.0.stream.type">video</property>
  <property name="meta.media.0.stream.frame_rate">30</property>
  <property name="meta.media.0.stream.sample_aspect_ratio">0</property>
  <property name="meta.media.0.codec.width">1280</property>
  <property name="meta.media.0.codec.height">720</property>
  <property name="meta.media.0.codec.rotate">0</property>
  <property name="meta.media.0.codec.pix_fmt">yuv420p</property>
  <property name="meta.media.0.codec.sample_aspect_ratio">1</property>
  <property name="meta.media.0.codec.colorspace">709</property>
  <property name="meta.media.0.codec.color_trc">1</property>
  <property name="meta.media.0.codec.name">h264</property>
  <property name="meta.media.0.codec.long_name">H.264 / AVC / MPEG-4 AVC / MPEG-4 part 10</property>
  <property name="meta.media.0.codec.bit_rate">0</property>
  <property name="meta.attr.0.stream.DURATION.markup">00:01:55.733000000</property>
  <property name="meta.media.1.stream.type">audio</property>
  <property name="meta.media.1.codec.sample_fmt">fltp</property>
  <property name="meta.media.1.codec.sample_rate">48000</property>
  <property name="meta.media.1.codec.channels">2</property>
  <property name="meta.media.1.codec.layout">stereo</property>
  <property name="meta.media.1.codec.name">aac</property>
  <property name="meta.media.1.codec.long_name">AAC (Advanced Audio Coding)</property>
  <property name="meta.media.1.codec.bit_rate">0</property>
  <property name="meta.attr.1.stream.title.markup">simple_aac</property>
  <property name="meta.attr.1.stream.DURATION.markup">00:01:55.605000000</property>
  <property name="meta.attr.ENCODER.markup">Lavf61.1.100</property>
  <property name="meta.media.sample_aspect_num">1</property>
  <property name="meta.media.sample_aspect_den">1</property>
  <property name="meta.media.frame_rate_num">30</property>
  <property name="meta.media.frame_rate_den">1</property>
  <property name="meta.media.colorspace">709</property>
  <property name="meta.media.color_trc">1</property>
  <property name="meta.media.has_b_frames">1</property>
  <property name="meta.media.width">1280</property>
  <property name="meta.media.height">720</property>
  <property name="meta.media.aspect_ratio">1</property>
  <property name="meta.media.color_range">mpeg</property>
  <property name="xml">was here</property>
  <property name="mute_on_pause">0</property>
  <property name="meta.media.top_field_first">0</property>
  <property name="meta.media.progressive">1</property>
  <property name="set.test_audio">1</property>
  <property name="set.test_image">0</property>
 </chain>
 <chain id="chain16" out="00:00:23.300">
  <property name="length">700</property>
  <property name="eof">pause</property>
  <property name="resource">2024-11-08 22-36-38.mkv</property>
  <property name="mlt_service">avformat-novalidate</property>
  <property name="seekable">1</property>
  <property name="format">3</property>
  <property name="audio_index">1</property>
  <property name="video_index">0</property>
  <property name="vstream">0</property>
  <property name="astream">0</property>
  <property name="kdenlive:control_uuid">{c5e49696-2b68-48f0-8080-1d5dc3643dde}</property>
  <property name="kdenlive:id">4</property>
  <property name="kdenlive:clip_type">0</property>
  <property name="kdenlive:file_size">7771849</property>
  <property name="kdenlive:file_hash">504d4e3716f446ed3c74cd2c35edd8a7</property>
  <property name="kdenlive:folderid">-1</property>
  <property name="kdenlive:monitorPosition">421</property>
  <property name="kdenlive:audio_max1">72</property>
  <property name="meta.media.nb_streams">2</property>
  <property name="meta.media.0.stream.type">video</property>
  <property name="meta.media.0.stream.frame_rate">30</property>
  <property name="meta.media.0.stream.sample_aspect_ratio">0</property>
  <property name="meta.media.0.codec.width">1280</property>
  <property name="meta.media.0.codec.height">720</property>
  <property name="meta.media.0.codec.rotate">0</property>
  <property name="meta.media.0.codec.pix_fmt">yuv420p</property>
  <property name="meta.media.0.codec.sample_aspect_ratio">1</property>
  <property name="meta.media.0.codec.colorspace">709</property>
  <property name="meta.media.0.codec.color_trc">1</property>
  <property name="meta.media.0.codec.name">h264</property>
  <property name="meta.media.0.codec.long_name">H.264 / AVC / MPEG-4 AVC / MPEG-4 part 10</property>
  <property name="meta.media.0.codec.bit_rate">0</property>
  <property name="meta.attr.0.stream.DURATION.markup">00:00:23.333000000</property>
  <property name="meta.media.1.stream.type">audio</property>
  <property name="meta.media.1.codec.sample_fmt">fltp</property>
  <property name="meta.media.1.codec.sample_rate">48000</property>
  <property name="meta.media.1.codec.channels">2</property>
  <property name="meta.media.1.codec.layout">stereo</property>
  <property name="meta.media.1.codec.name">aac</property>
  <property name="meta.media.1.codec.long_name">AAC (Advanced Audio Coding)</property>
  <property name="meta.media.1.codec.bit_rate">0</property>
  <property name="meta.attr.1.stream.title.markup">simple_aac</property>
  <property name="meta.attr.1.stream.DURATION.markup">00:00:23.274000000</property>
  <property name="meta.attr.ENCODER.markup">Lavf61.1.100</property>
  <property name="meta.media.sample_aspect_num">1</property>
  <property name="meta.media.sample_aspect_den">1</property>
  <property name="meta.media.frame_rate_num">30</property>
  <property name="meta.media.frame_rate_den">1</property>
  <property name="meta.media.colorspace">709</property>
  <property name="meta.media.color_trc">1</property>
  <property name="meta.media.has_b_frames">1</property>
  <property name="meta.media.width">1280</property>
  <property name="meta.media.height">720</property>
  <property name="meta.media.aspect_ratio">1</property>
  <property name="meta.media.color_range">mpeg</property>
  <property name="xml">was here</property>
  <property name="mute_on_pause">0</property>
  <property name="meta.media.top_field_first">0</property>
  <property name="meta.media.progressive">1</property>
  <property name="set.test_audio">1</property>
  <property name="set.test_image">0</property>
 </chain>
 <playlist id="playlist4">
  <entry in="00:00:00.000" out="00:00:02.133" producer="chain11">
   <property name="kdenlive:id">46</property>
  </entry>
  <entry in="00:00:03.300" out="00:00:07.633" producer="chain11">
   <property name="kdenlive:id">46</property>
  </entry>
  <entry in="00:00:08.033" out="00:00:08.100" producer="chain11">
   <property name="kdenlive:id">46</property>
  </entry>
  <entry in="00:00:08.600" out="00:00:09.067" producer="chain11">
   <property name="kdenlive:id">46</property>
  </entry>
  <entry in="00:00:10.000" out="00:00:11.133" producer="chain11">
   <property name="kdenlive:id">46</property>
  </entry>
  <entry in="00:00:11.333" out="00:00:12.367" producer="chain11">
   <property name="kdenlive:id">46</property>
  </entry>
  <entry in="00:00:13.900" out="00:00:16.300" producer="chain11">
   <property name="kdenlive:id">46</property>
  </entry>
  <entry in="00:00:18.333" out="00:00:19.833" producer="chain11">
   <property name="kdenlive:id">46</property>
  </entry>
  <entry in="00:00:20.767" out="00:00:23.500" producer="chain11">
   <property name="kdenlive:id">46</property>
  </entry>
  <blank length="00:00:15.300"/>
  <entry in="00:00:22.300" out="00:00:29.333" producer="chain12">
   <property name="kdenlive:id">60</property>
  </entry>
  <blank length="00:00:25.733"/>
  <entry in="00:00:00.133" out="00:00:08.767" producer="chain13">
   <property name="kdenlive:id">57</property>
  </entry>
  <entry in="00:00:09.533" out="00:00:15.100" producer="chain13">
   <property name="kdenlive:id">57</property>
  </entry>
  <blank length="00:00:09.800"/>
  <entry in="00:00:22.400" out="00:00:25.500" producer="chain14">
   <property name="kdenlive:id">48</property>
  </entry>
  <blank length="00:00:04.733"/>
  <entry in="00:00:00.100" out="00:00:06.567" producer="chain15">
   <property name="kdenlive:id">31</property>
  </entry>
  <entry in="00:00:06.900" out="00:00:09.733" producer="chain15">
   <property name="kdenlive:id">31</property>
  </entry>
  <entry in="00:00:10.567" out="00:00:11.567" producer="chain15">
   <property name="kdenlive:id">31</property>
  </entry>
  <entry in="00:00:12.533" out="00:00:19.033" producer="chain15">
   <property name="kdenlive:id">31</property>
  </entry>
  <entry in="00:00:19.367" out="00:00:20.867" producer="chain15">
   <property name="kdenlive:id">31</property>
  </entry>
  <entry in="00:00:24.500" out="00:00:24.833" producer="chain15">
   <property name="kdenlive:id">31</property>
  </entry>
  <entry in="00:00:25.633" out="00:00:29.267" producer="chain15">
   <property name="kdenlive:id">31</property>
  </entry>
  <entry in="00:00:30.967" out="00:00:31.133" producer="chain15">
   <property name="kdenlive:id">31</property>
  </entry>
  <entry in="00:00:31.800" out="00:00:35.500" producer="chain15">
   <property name="kdenlive:id">31</property>
  </entry>
  <entry in="00:00:38.867" out="00:00:42.667" producer="chain15">
   <property name="kdenlive:id">31</property>
  </entry>
  <entry in="00:00:46.200" out="00:00:56.933" producer="chain15">
   <property name="kdenlive:id">31</property>
  </entry>
  <entry in="00:00:59.500" out="00:01:03.967" producer="chain15">
   <property name="kdenlive:id">31</property>
  </entry>
  <entry in="00:01:04.433" out="00:01:05.000" producer="chain15">
   <property name="kdenlive:id">31</property>
  </entry>
  <entry in="00:01:05.600" out="00:01:07.333" producer="chain15">
   <property name="kdenlive:id">31</property>
  </entry>
  <entry in="00:01:07.733" out="00:01:08.200" producer="chain15">
   <property name="kdenlive:id">31</property>
  </entry>
  <entry in="00:01:09.100" out="00:01:10.033" producer="chain15">
   <property name="kdenlive:id">31</property>
  </entry>
  <entry in="00:01:10.300" out="00:01:14.233" producer="chain15">
   <property name="kdenlive:id">31</property>
  </entry>
  <entry in="00:01:15.400" out="00:01:16.767" producer="chain15">
   <property name="kdenlive:id">31</property>
  </entry>
  <entry in="00:01:17.933" out="00:01:22.933" producer="chain15">
   <property name="kdenlive:id">31</property>
  </entry>
  <entry in="00:01:23.467" out="00:01:28.300" producer="chain15">
   <property name="kdenlive:id">31</property>
  </entry>
  <entry in="00:01:28.867" out="00:01:35.200" producer="chain15">
   <property name="kdenlive:id">31</property>
  </entry>
  <blank length="00:00:11.567"/>
  <entry in="00:00:00.000" out="00:00:02.467" producer="chain16">
   <property name="kdenlive:id">4</property>
  </entry>
  <entry in="00:00:02.667" out="00:00:04.667" producer="chain16">
   <property name="kdenlive:id">4</property>
  </entry>
  <entry in="00:00:11.900" out="00:00:12.700" producer="chain16">
   <property name="kdenlive:id">4</property>
  </entry>
  <entry in="00:00:12.900" out="00:00:15.767" producer="chain16">
   <property name="kdenlive:id">4</property>
  </entry>
  <entry in="00:00:16.167" out="00:00:16.900" producer="chain16">
   <property name="kdenlive:id">4</property>
  </entry>
  <entry in="00:00:17.667" out="00:00:18.567" producer="chain16">
   <property name="kdenlive:id">4</property>
  </entry>
  <entry in="00:00:19.367" out="00:00:21.200" producer="chain16">
   <property name="kdenlive:id">4</property>
  </entry>
 </playlist>
 <playlist id="playlist5"/>
 <tractor id="tractor2" in="00:00:00.000" out="00:03:10.500">
  <property name="kdenlive:trackheight">62</property>
  <property name="kdenlive:timeline_active">1</property>
  <property name="kdenlive:collapsed">0</property>
  <property name="kdenlive:thumbs_format"/>
  <property name="kdenlive:audio_rec"/>
  <track hide="audio" producer="playlist4"/>
  <track hide="audio" producer="playlist5"/>
 </tractor>
 <chain id="chain17" out="00:00:46.700">
  <property name="length">1402</property>
  <property name="eof">pause</property>
  <property name="resource">2024-11-08 22-41-37.mkv</property>
  <property name="mlt_service">avformat-novalidate</property>
  <property name="seekable">1</property>
  <property name="format">3</property>
  <property name="audio_index">1</property>
  <property name="video_index">0</property>
  <property name="vstream">0</property>
  <property name="astream">0</property>
  <property name="kdenlive:folderid">-1</property>
  <property name="kdenlive:id">60</property>
  <property name="kdenlive:control_uuid">{883883da-2f4a-4f2a-9424-bf0c6a906a44}</property>
  <property name="mute_on_pause">0</property>
  <property name="kdenlive:clip_type">0</property>
  <property name="kdenlive:file_size">15576245</property>
  <property name="kdenlive:file_hash">f3fee7106fc61a3973ca7f3e95e2a1f2</property>
  <property name="kdenlive:audio_max1">64</property>
  <property name="kdenlive:monitorPosition">303</property>
  <property name="meta.media.nb_streams">2</property>
  <property name="meta.media.0.stream.type">video</property>
  <property name="meta.media.0.stream.frame_rate">30</property>
  <property name="meta.media.0.stream.sample_aspect_ratio">0</property>
  <property name="meta.media.0.codec.width">1280</property>
  <property name="meta.media.0.codec.height">720</property>
  <property name="meta.media.0.codec.rotate">0</property>
  <property name="meta.media.0.codec.pix_fmt">yuv420p</property>
  <property name="meta.media.0.codec.sample_aspect_ratio">1</property>
  <property name="meta.media.0.codec.colorspace">709</property>
  <property name="meta.media.0.codec.color_trc">1</property>
  <property name="meta.media.0.codec.name">h264</property>
  <property name="meta.media.0.codec.long_name">H.264 / AVC / MPEG-4 AVC / MPEG-4 part 10</property>
  <property name="meta.media.0.codec.bit_rate">0</property>
  <property name="meta.attr.0.stream.DURATION.markup">00:00:46.733000000</property>
  <property name="meta.media.1.stream.type">audio</property>
  <property name="meta.media.1.codec.sample_fmt">fltp</property>
  <property name="meta.media.1.codec.sample_rate">48000</property>
  <property name="meta.media.1.codec.channels">2</property>
  <property name="meta.media.1.codec.layout">stereo</property>
  <property name="meta.media.1.codec.name">aac</property>
  <property name="meta.media.1.codec.long_name">AAC (Advanced Audio Coding)</property>
  <property name="meta.media.1.codec.bit_rate">0</property>
  <property name="meta.attr.1.stream.title.markup">simple_aac</property>
  <property name="meta.attr.1.stream.DURATION.markup">00:00:46.634000000</property>
  <property name="meta.attr.ENCODER.markup">Lavf61.1.100</property>
  <property name="meta.media.sample_aspect_num">1</property>
  <property name="meta.media.sample_aspect_den">1</property>
  <property name="meta.media.frame_rate_num">30</property>
  <property name="meta.media.frame_rate_den">1</property>
  <property name="meta.media.colorspace">709</property>
  <property name="meta.media.color_trc">1</property>
  <property name="meta.media.has_b_frames">1</property>
  <property name="meta.media.width">1280</property>
  <property name="meta.media.height">720</property>
  <property name="meta.media.aspect_ratio">1</property>
  <property name="meta.media.color_range">mpeg</property>
  <property name="xml">was here</property>
  <property name="meta.media.top_field_first">0</property>
  <property name="meta.media.progressive">1</property>
  <property name="set.test_audio">1</property>
  <property name="set.test_image">0</property>
 </chain>
 <chain id="chain18" out="00:00:38.500">
  <property name="length">1156</property>
  <property name="eof">pause</property>
  <property name="resource">2024-11-08 22-42-27.mkv</property>
  <property name="mlt_service">avformat-novalidate</property>
  <property name="seekable">1</property>
  <property name="format">3</property>
  <property name="audio_index">1</property>
  <property name="video_index">0</property>
  <property name="vstream">0</property>
  <property name="astream">0</property>
  <property name="kdenlive:folderid">-1</property>
  <property name="kdenlive:id">59</property>
  <property name="kdenlive:control_uuid">{81728a52-e807-42be-9849-4a6fafa2d726}</property>
  <property name="mute_on_pause">0</property>
  <property name="kdenlive:clip_type">0</property>
  <property name="kdenlive:file_size">12885503</property>
  <property name="kdenlive:file_hash">e804de783bacc59b44ade86eff91dfbe</property>
  <property name="kdenlive:audio_max1">70</property>
  <property name="kdenlive:monitorPosition">526</property>
  <property name="meta.media.nb_streams">2</property>
  <property name="meta.media.0.stream.type">video</property>
  <property name="meta.media.0.stream.frame_rate">30</property>
  <property name="meta.media.0.stream.sample_aspect_ratio">0</property>
  <property name="meta.media.0.codec.width">1280</property>
  <property name="meta.media.0.codec.height">720</property>
  <property name="meta.media.0.codec.rotate">0</property>
  <property name="meta.media.0.codec.pix_fmt">yuv420p</property>
  <property name="meta.media.0.codec.sample_aspect_ratio">1</property>
  <property name="meta.media.0.codec.colorspace">709</property>
  <property name="meta.media.0.codec.color_trc">1</property>
  <property name="meta.media.0.codec.name">h264</property>
  <property name="meta.media.0.codec.long_name">H.264 / AVC / MPEG-4 AVC / MPEG-4 part 10</property>
  <property name="meta.media.0.codec.bit_rate">0</property>
  <property name="meta.attr.0.stream.DURATION.markup">00:00:38.533000000</property>
  <property name="meta.media.1.stream.type">audio</property>
  <property name="meta.media.1.codec.sample_fmt">fltp</property>
  <property name="meta.media.1.codec.sample_rate">48000</property>
  <property name="meta.media.1.codec.channels">2</property>
  <property name="meta.media.1.codec.layout">stereo</property>
  <property name="meta.media.1.codec.name">aac</property>
  <property name="meta.media.1.codec.long_name">AAC (Advanced Audio Coding)</property>
  <property name="meta.media.1.codec.bit_rate">0</property>
  <property name="meta.attr.1.stream.title.markup">simple_aac</property>
  <property name="meta.attr.1.stream.DURATION.markup">00:00:38.485000000</property>
  <property name="meta.attr.ENCODER.markup">Lavf61.1.100</property>
  <property name="meta.media.sample_aspect_num">1</property>
  <property name="meta.media.sample_aspect_den">1</property>
  <property name="meta.media.frame_rate_num">30</property>
  <property name="meta.media.frame_rate_den">1</property>
  <property name="meta.media.colorspace">709</property>
  <property name="meta.media.color_trc">1</property>
  <property name="meta.media.has_b_frames">1</property>
  <property name="meta.media.width">1280</property>
  <property name="meta.media.height">720</property>
  <property name="meta.media.aspect_ratio">1</property>
  <property name="meta.media.color_range">mpeg</property>
  <property name="xml">was here</property>
  <property name="meta.media.top_field_first">0</property>
  <property name="meta.media.progressive">1</property>
  <property name="set.test_audio">1</property>
  <property name="set.test_image">0</property>
 </chain>
 <chain id="chain19" out="00:00:21.100">
  <property name="length">634</property>
  <property name="eof">pause</property>
  <property name="resource">2024-11-08 22-43-11.mkv</property>
  <property name="mlt_service">avformat-novalidate</property>
  <property name="seekable">1</property>
  <property name="format">3</property>
  <property name="audio_index">1</property>
  <property name="video_index">0</property>
  <property name="vstream">0</property>
  <property name="astream">0</property>
  <property name="kdenlive:folderid">-1</property>
  <property name="kdenlive:id">58</property>
  <property name="kdenlive:control_uuid">{d4aa302d-44b5-4979-b61f-295520fb5935}</property>
  <property name="mute_on_pause">0</property>
  <property name="kdenlive:clip_type">0</property>
  <property name="kdenlive:file_size">7038762</property>
  <property name="kdenlive:file_hash">f2a5b6fafc438599185afed205d1053d</property>
  <property name="kdenlive:audio_max1">60</property>
  <property name="kdenlive:monitorPosition">138</property>
  <property name="meta.media.nb_streams">2</property>
  <property name="meta.media.0.stream.type">video</property>
  <property name="meta.media.0.stream.frame_rate">30</property>
  <property name="meta.media.0.stream.sample_aspect_ratio">0</property>
  <property name="meta.media.0.codec.width">1280</property>
  <property name="meta.media.0.codec.height">720</property>
  <property name="meta.media.0.codec.rotate">0</property>
  <property name="meta.media.0.codec.pix_fmt">yuv420p</property>
  <property name="meta.media.0.codec.sample_aspect_ratio">1</property>
  <property name="meta.media.0.codec.colorspace">709</property>
  <property name="meta.media.0.codec.color_trc">1</property>
  <property name="meta.media.0.codec.name">h264</property>
  <property name="meta.media.0.codec.long_name">H.264 / AVC / MPEG-4 AVC / MPEG-4 part 10</property>
  <property name="meta.media.0.codec.bit_rate">0</property>
  <property name="meta.attr.0.stream.DURATION.markup">00:00:21.133000000</property>
  <property name="meta.media.1.stream.type">audio</property>
  <property name="meta.media.1.codec.sample_fmt">fltp</property>
  <property name="meta.media.1.codec.sample_rate">48000</property>
  <property name="meta.media.1.codec.channels">2</property>
  <property name="meta.media.1.codec.layout">stereo</property>
  <property name="meta.media.1.codec.name">aac</property>
  <property name="meta.media.1.codec.long_name">AAC (Advanced Audio Coding)</property>
  <property name="meta.media.1.codec.bit_rate">0</property>
  <property name="meta.attr.1.stream.title.markup">simple_aac</property>
  <property name="meta.attr.1.stream.DURATION.markup">00:00:21.077000000</property>
  <property name="meta.attr.ENCODER.markup">Lavf61.1.100</property>
  <property name="meta.media.sample_aspect_num">1</property>
  <property name="meta.media.sample_aspect_den">1</property>
  <property name="meta.media.frame_rate_num">30</property>
  <property name="meta.media.frame_rate_den">1</property>
  <property name="meta.media.colorspace">709</property>
  <property name="meta.media.color_trc">1</property>
  <property name="meta.media.has_b_frames">1</property>
  <property name="meta.media.width">1280</property>
  <property name="meta.media.height">720</property>
  <property name="meta.media.aspect_ratio">1</property>
  <property name="meta.media.color_range">mpeg</property>
  <property name="xml">was here</property>
  <property name="meta.media.top_field_first">0</property>
  <property name="meta.media.progressive">1</property>
  <property name="set.test_audio">1</property>
  <property name="set.test_image">0</property>
 </chain>
 <chain id="chain20" out="00:00:37.200">
  <property name="length">1117</property>
  <property name="eof">pause</property>
  <property name="resource">2024-11-08 22-45-51.mkv</property>
  <property name="mlt_service">avformat-novalidate</property>
  <property name="seekable">1</property>
  <property name="format">3</property>
  <property name="audio_index">1</property>
  <property name="video_index">0</property>
  <property name="vstream">0</property>
  <property name="astream">0</property>
  <property name="kdenlive:folderid">-1</property>
  <property name="kdenlive:id">48</property>
  <property name="kdenlive:control_uuid">{cb7e2b91-a38a-46b4-9c89-16f03f3fafcf}</property>
  <property name="mute_on_pause">0</property>
  <property name="kdenlive:clip_type">0</property>
  <property name="kdenlive:file_size">12390197</property>
  <property name="kdenlive:file_hash">7959f34c6cb9b32f41ae96c8c1822cec</property>
  <property name="kdenlive:audio_max1">72</property>
  <property name="kdenlive:monitorPosition">0</property>
  <property name="meta.media.nb_streams">2</property>
  <property name="meta.media.0.stream.type">video</property>
  <property name="meta.media.0.stream.frame_rate">30</property>
  <property name="meta.media.0.stream.sample_aspect_ratio">0</property>
  <property name="meta.media.0.codec.width">1280</property>
  <property name="meta.media.0.codec.height">720</property>
  <property name="meta.media.0.codec.rotate">0</property>
  <property name="meta.media.0.codec.pix_fmt">yuv420p</property>
  <property name="meta.media.0.codec.sample_aspect_ratio">1</property>
  <property name="meta.media.0.codec.colorspace">709</property>
  <property name="meta.media.0.codec.color_trc">1</property>
  <property name="meta.media.0.codec.name">h264</property>
  <property name="meta.media.0.codec.long_name">H.264 / AVC / MPEG-4 AVC / MPEG-4 part 10</property>
  <property name="meta.media.0.codec.bit_rate">0</property>
  <property name="meta.attr.0.stream.DURATION.markup">00:00:37.233000000</property>
  <property name="meta.media.1.stream.type">audio</property>
  <property name="meta.media.1.codec.sample_fmt">fltp</property>
  <property name="meta.media.1.codec.sample_rate">48000</property>
  <property name="meta.media.1.codec.channels">2</property>
  <property name="meta.media.1.codec.layout">stereo</property>
  <property name="meta.media.1.codec.name">aac</property>
  <property name="meta.media.1.codec.long_name">AAC (Advanced Audio Coding)</property>
  <property name="meta.media.1.codec.bit_rate">0</property>
  <property name="meta.attr.1.stream.title.markup">simple_aac</property>
  <property name="meta.attr.1.stream.DURATION.markup">00:00:37.141000000</property>
  <property name="meta.attr.ENCODER.markup">Lavf61.1.100</property>
  <property name="meta.media.sample_aspect_num">1</property>
  <property name="meta.media.sample_aspect_den">1</property>
  <property name="meta.media.frame_rate_num">30</property>
  <property name="meta.media.frame_rate_den">1</property>
  <property name="meta.media.colorspace">709</property>
  <property name="meta.media.color_trc">1</property>
  <property name="meta.media.has_b_frames">1</property>
  <property name="meta.media.width">1280</property>
  <property name="meta.media.height">720</property>
  <property name="meta.media.aspect_ratio">1</property>
  <property name="meta.media.color_range">mpeg</property>
  <property name="xml">was here</property>
  <property name="meta.media.top_field_first">0</property>
  <property name="meta.media.progressive">1</property>
  <property name="set.test_audio">1</property>
  <property name="set.test_image">0</property>
 </chain>
 <chain id="chain21" out="00:01:55.700">
  <property name="length">3472</property>
  <property name="eof">pause</property>
  <property name="resource">2024-11-08 22-29-50.mkv</property>
  <property name="mlt_service">avformat-novalidate</property>
  <property name="seekable">1</property>
  <property name="format">3</property>
  <property name="audio_index">1</property>
  <property name="video_index">0</property>
  <property name="vstream">0</property>
  <property name="astream">0</property>
  <property name="kdenlive:control_uuid">{ac2c5f4b-3d13-47e2-9922-975f7c3bf3bc}</property>
  <property name="kdenlive:id">31</property>
  <property name="kdenlive:clip_type">0</property>
  <property name="kdenlive:file_size">38525946</property>
  <property name="kdenlive:file_hash">d65240bbb916cb5a5f506ab90d0f0720</property>
  <property name="kdenlive:folderid">-1</property>
  <property name="kdenlive:audio_max1">72</property>
  <property name="kdenlive:monitorPosition">467</property>
  <property name="meta.media.nb_streams">2</property>
  <property name="meta.media.0.stream.type">video</property>
  <property name="meta.media.0.stream.frame_rate">30</property>
  <property name="meta.media.0.stream.sample_aspect_ratio">0</property>
  <property name="meta.media.0.codec.width">1280</property>
  <property name="meta.media.0.codec.height">720</property>
  <property name="meta.media.0.codec.rotate">0</property>
  <property name="meta.media.0.codec.pix_fmt">yuv420p</property>
  <property name="meta.media.0.codec.sample_aspect_ratio">1</property>
  <property name="meta.media.0.codec.colorspace">709</property>
  <property name="meta.media.0.codec.color_trc">1</property>
  <property name="meta.media.0.codec.name">h264</property>
  <property name="meta.media.0.codec.long_name">H.264 / AVC / MPEG-4 AVC / MPEG-4 part 10</property>
  <property name="meta.media.0.codec.bit_rate">0</property>
  <property name="meta.attr.0.stream.DURATION.markup">00:01:55.733000000</property>
  <property name="meta.media.1.stream.type">audio</property>
  <property name="meta.media.1.codec.sample_fmt">fltp</property>
  <property name="meta.media.1.codec.sample_rate">48000</property>
  <property name="meta.media.1.codec.channels">2</property>
  <property name="meta.media.1.codec.layout">stereo</property>
  <property name="meta.media.1.codec.name">aac</property>
  <property name="meta.media.1.codec.long_name">AAC (Advanced Audio Coding)</property>
  <property name="meta.media.1.codec.bit_rate">0</property>
  <property name="meta.attr.1.stream.title.markup">simple_aac</property>
  <property name="meta.attr.1.stream.DURATION.markup">00:01:55.605000000</property>
  <property name="meta.attr.ENCODER.markup">Lavf61.1.100</property>
  <property name="meta.media.sample_aspect_num">1</property>
  <property name="meta.media.sample_aspect_den">1</property>
  <property name="meta.media.frame_rate_num">30</property>
  <property name="meta.media.frame_rate_den">1</property>
  <property name="meta.media.colorspace">709</property>
  <property name="meta.media.color_trc">1</property>
  <property name="meta.media.has_b_frames">1</property>
  <property name="meta.media.width">1280</property>
  <property name="meta.media.height">720</property>
  <property name="meta.media.aspect_ratio">1</property>
  <property name="meta.media.color_range">mpeg</property>
  <property name="xml">was here</property>
  <property name="mute_on_pause">0</property>
  <property name="meta.media.top_field_first">0</property>
  <property name="meta.media.progressive">1</property>
  <property name="set.test_audio">1</property>
  <property name="set.test_image">0</property>
 </chain>
 <playlist id="playlist6">
  <blank length="00:00:16.100"/>
  <entry in="00:00:00.000" out="00:00:03.900" producer="chain17">
   <property name="kdenlive:id">60</property>
  </entry>
  <entry in="00:00:05.400" out="00:00:07.300" producer="chain17">
   <property name="kdenlive:id">60</property>
  </entry>
  <entry in="00:00:08.033" out="00:00:09.467" producer="chain17">
   <property name="kdenlive:id">60</property>
  </entry>
  <entry in="00:00:10.333" out="00:00:11.133" producer="chain17">
   <property name="kdenlive:id">60</property>
  </entry>
  <entry in="00:00:12.500" out="00:00:16.033" producer="chain17">
   <property name="kdenlive:id">60</property>
  </entry>
  <entry in="00:00:16.467" out="00:00:17.600" producer="chain17">
   <property name="kdenlive:id">60</property>
  </entry>
  <entry in="00:00:18.967" out="00:00:21.333" producer="chain17">
   <property name="kdenlive:id">60</property>
  </entry>
  <blank length="00:00:07.067"/>
  <entry in="00:00:01.800" out="00:00:09.200" producer="chain18">
   <property name="kdenlive:id">59</property>
  </entry>
  <entry in="00:00:09.700" out="00:00:12.733" producer="chain18">
   <property name="kdenlive:id">59</property>
  </entry>
  <entry in="00:00:14.967" out="00:00:18.233" producer="chain18">
   <property name="kdenlive:id">59</property>
  </entry>
  <entry in="00:00:00.000" out="00:00:04.533" producer="chain19">
   <property name="kdenlive:id">58</property>
  </entry>
  <entry in="00:00:05.200" out="00:00:12.533" producer="chain19">
   <property name="kdenlive:id">58</property>
  </entry>
  <blank length="00:00:14.267"/>
  <entry in="00:00:00.000" out="00:00:03.967" producer="chain20">
   <property name="kdenlive:id">48</property>
  </entry>
  <entry in="00:00:04.233" out="00:00:05.833" producer="chain20">
   <property name="kdenlive:id">48</property>
  </entry>
  <entry in="00:00:07.633" out="00:00:09.133" producer="chain20">
   <property name="kdenlive:id">48</property>
  </entry>
  <entry in="00:00:10.133" out="00:00:12.733" producer="chain20">
   <property name="kdenlive:id">48</property>
  </entry>
  <blank length="00:00:03.133"/>
  <entry in="00:00:15.567" out="00:00:17.500" producer="chain20">
   <property name="kdenlive:id">48</property>
  </entry>
  <entry in="00:00:18.067" out="00:00:18.600" producer="chain20">
   <property name="kdenlive:id">48</property>
  </entry>
  <entry in="00:00:19.700" out="00:00:20.133" producer="chain20">
   <property name="kdenlive:id">48</property>
  </entry>
  <entry in="00:00:20.533" out="00:00:22.233" producer="chain20">
   <property name="kdenlive:id">48</property>
  </entry>
  <blank length="00:01:11.000"/>
  <entry in="00:01:35.233" out="00:01:39.000" producer="chain21">
   <property name="kdenlive:id">31</property>
  </entry>
  <entry in="00:01:40.900" out="00:01:43.000" producer="chain21">
   <property name="kdenlive:id">31</property>
  </entry>
  <entry in="00:01:44.367" out="00:01:46.500" producer="chain21">
   <property name="kdenlive:id">31</property>
  </entry>
  <entry in="00:01:49.367" out="00:01:52.800" producer="chain21">
   <property name="kdenlive:id">31</property>
  </entry>
 </playlist>
 <playlist id="playlist7"/>
 <tractor id="tractor3" in="00:00:00.000" out="00:02:58.667">
  <property name="kdenlive:trackheight">62</property>
  <property name="kdenlive:timeline_active">1</property>
  <property name="kdenlive:collapsed">0</property>
  <property name="kdenlive:thumbs_format"/>
  <property name="kdenlive:audio_rec"/>
  <track hide="audio" producer="playlist6"/>
  <track hide="audio" producer="playlist7"/>
 </tractor>
 <tractor id="{1fa96e70-153f-4766-a775-0fe3cb0090bb}" in="00:00:00.000" out="00:03:10.500">
  <property name="kdenlive:uuid">{1fa96e70-153f-4766-a775-0fe3cb0090bb}</property>
  <property name="kdenlive:clipname">Sequence 1</property>
  <property name="kdenlive:sequenceproperties.hasAudio">1</property>
  <property name="kdenlive:sequenceproperties.hasVideo">1</property>
  <property name="kdenlive:sequenceproperties.activeTrack">1</property>
  <property name="kdenlive:sequenceproperties.tracksCount">4</property>
  <property name="kdenlive:sequenceproperties.documentuuid">{1fa96e70-153f-4766-a775-0fe3cb0090bb}</property>
  <property name="kdenlive:control_uuid">{1fa96e70-153f-4766-a775-0fe3cb0090bb}</property>
  <property name="kdenlive:duration">00:03:10.533</property>
  <property name="kdenlive:maxduration">5716</property>
  <property name="kdenlive:producer_type">17</property>
  <property name="kdenlive:id">3</property>
  <property name="kdenlive:clip_type">0</property>
  <property name="kdenlive:file_hash">d4719df32b2d69258dad79aa8b2f6735</property>
  <property name="kdenlive:folderid">2</property>
  <property name="kdenlive:sequenceproperties.audioTarget">1</property>
  <property name="kdenlive:sequenceproperties.disablepreview">0</property>
  <property name="kdenlive:sequenceproperties.position">3301</property>
  <property name="kdenlive:sequenceproperties.scrollPos">0</property>
  <property name="kdenlive:sequenceproperties.tracks">4</property>
  <property name="kdenlive:sequenceproperties.verticalzoom">1</property>
  <property name="kdenlive:sequenceproperties.videoTarget">2</property>
  <property name="kdenlive:sequenceproperties.zonein">0</property>
  <property name="kdenlive:sequenceproperties.zoneout">75</property>
  <property name="kdenlive:sequenceproperties.zoom">12</property>
  <property name="kdenlive:sequenceproperties.groups">[
    {
        "children": [
            {
                "data": "2:4526",
                "leaf": "clip",
                "type": "Leaf"
            },
            {
                "data": "1:4526",
                "leaf": "clip",
                "type": "Leaf"
            }
        ],
        "type": "AVSplit"
    },
    {
        "children": [
            {
                "data": "1:3677",
                "leaf": "clip",
                "type": "Leaf"
            },
            {
                "data": "2:3677",
                "leaf": "clip",
                "type": "Leaf"
            }
        ],
        "type": "AVSplit"
    },
    {
        "children": [
            {
                "data": "2:2648",
                "leaf": "clip",
                "type": "Leaf"
            },
            {
                "data": "1:2648",
                "leaf": "clip",
                "type": "Leaf"
            }
        ],
        "type": "AVSplit"
    },
    {
        "children": [
            {
                "data": "1:3438",
                "leaf": "clip",
                "type": "Leaf"
            },
            {
                "data": "2:3438",
                "leaf": "clip",
                "type": "Leaf"
            }
        ],
        "type": "AVSplit"
    },
    {
        "children": [
            {
                "data": "2:3392",
                "leaf": "clip",
                "type": "Leaf"
            },
            {
                "data": "1:3392",
                "leaf": "clip",
                "type": "Leaf"
            }
        ],
        "type": "AVSplit"
    },
    {
        "children": [
            {
                "data": "2:2884",
                "leaf": "clip",
                "type": "Leaf"
            },
            {
                "data": "1:2884",
                "leaf": "clip",
                "type": "Leaf"
            }
        ],
        "type": "AVSplit"
    },
    {
        "children": [
            {
                "data": "0:5128",
                "leaf": "clip",
                "type": "Leaf"
            },
            {
                "data": "3:5128",
                "leaf": "clip",
                "type": "Leaf"
            }
        ],
        "type": "AVSplit"
    },
    {
        "children": [
            {
                "data": "2:4823",
                "leaf": "clip",
                "type": "Leaf"
            },
            {
                "data": "1:4823",
                "leaf": "clip",
                "type": "Leaf"
            }
        ],
        "type": "AVSplit"
    },
    {
        "children": [
            {
                "data": "3:1568",
                "leaf": "clip",
                "type": "Leaf"
            },
            {
                "data": "0:1568",
                "leaf": "clip",
                "type": "Leaf"
            }
        ],
        "type": "AVSplit"
    },
    {
        "children": [
            {
                "data": "1:4677",
                "leaf": "clip",
                "type": "Leaf"
            },
            {
                "data": "2:4677",
                "leaf": "clip",
                "type": "Leaf"
            }
        ],
        "type": "AVSplit"
    },
    {
        "children": [
            {
                "data": "2:3565",
                "leaf": "clip",
                "type": "Leaf"
            },
            {
                "data": "1:3565",
                "leaf": "clip",
                "type": "Leaf"
            }
        ],
        "type": "AVSplit"
    },
    {
        "children": [
            {
                "data": "0:2569",
                "leaf": "clip",
                "type": "Leaf"
            },
            {
                "data": "3:2569",
                "leaf": "clip",
                "type": "Leaf"
            }
        ],
        "type": "AVSplit"
    },
    {
        "children": [
            {
                "data": "3:2354",
                "leaf": "clip",
                "type": "Leaf"
            },
            {
                "data": "0:2354",
                "leaf": "clip",
                "type": "Leaf"
            }
        ],
        "type": "AVSplit"
    },
    {
        "children": [
            {
                "data": "0:1705",
                "leaf": "clip",
                "type": "Leaf"
            },
            {
                "data": "3:1705",
                "leaf": "clip",
                "type": "Leaf"
            }
        ],
        "type": "AVSplit"
    },
    {
        "children": [
            {
                "children": [
                    {
                        "data": "3:2818",
                        "leaf": "clip",
                        "type": "Leaf"
                    },
                    {
                        "data": "0:2818",
                        "leaf": "clip",
                        "type": "Leaf"
                    }
                ],
                "type": "AVSplit"
            },
            {
                "children": [
                    {
                        "data": "0:2801",
                        "leaf": "clip",
                        "type": "Leaf"
                    },
                    {
                        "data": "3:2801",
                        "leaf": "clip",
                        "type": "Leaf"
                    }
                ],
                "type": "AVSplit"
            },
            {
                "children": [
                    {
                        "data": "3:2832",
                        "leaf": "clip",
                        "type": "Leaf"
                    },
                    {
                        "data": "0:2832",
                        "leaf": "clip",
                        "type": "Leaf"
                    }
                ],
                "type": "AVSplit"
            }
        ],
        "type": "Normal"
    },
    {
        "children": [
            {
                "data": "1:3079",
                "leaf": "clip",
                "type": "Leaf"
            },
            {
                "data": "2:3079",
                "leaf": "clip",
                "type": "Leaf"
            }
        ],
        "type": "AVSplit"
    },
    {
        "children": [
            {
                "data": "0:5014",
                "leaf": "clip",
                "type": "Leaf"
            },
            {
                "data": "3:5014",
                "leaf": "clip",
                "type": "Leaf"
            }
        ],
        "type": "AVSplit"
    },
    {
        "children": [
            {
                "data": "2:3196",
                "leaf": "clip",
                "type": "Leaf"
            },
            {
                "data": "1:3196",
                "leaf": "clip",
                "type": "Leaf"
            }
        ],
        "type": "AVSplit"
    },
    {
        "children": [
            {
                "data": "2:4336",
                "leaf": "clip",
                "type": "Leaf"
            },
            {
                "data": "1:4336",
                "leaf": "clip",
                "type": "Leaf"
            }
        ],
        "type": "AVSplit"
    },
    {
        "children": [
            {
                "data": "1:4365",
                "leaf": "clip",
                "type": "Leaf"
            },
            {
                "data": "2:4365",
                "leaf": "clip",
                "type": "Leaf"
            }
        ],
        "type": "AVSplit"
    },
    {
        "children": [
            {
                "data": "0:5192",
                "leaf": "clip",
                "type": "Leaf"
            },
            {
                "data": "3:5192",
                "leaf": "clip",
                "type": "Leaf"
            }
        ],
        "type": "AVSplit"
    },
    {
        "children": [
            {
                "data": "2:2186",
                "leaf": "clip",
                "type": "Leaf"
            },
            {
                "data": "1:2186",
                "leaf": "clip",
                "type": "Leaf"
            }
        ],
        "type": "AVSplit"
    },
    {
        "children": [
            {
                "children": [
                    {
                        "data": "0:728",
                        "leaf": "clip",
                        "type": "Leaf"
                    },
                    {
                        "data": "3:728",
                        "leaf": "clip",
                        "type": "Leaf"
                    }
                ],
                "type": "AVSplit"
            },
            {
                "children": [
                    {
                        "data": "3:703",
                        "leaf": "clip",
                        "type": "Leaf"
                    },
                    {
                        "data": "0:703",
                        "leaf": "clip",
                        "type": "Leaf"
                    }
                ],
                "type": "AVSplit"
            },
            {
                "children": [
                    {
                        "data": "0:659",
                        "leaf": "clip",
                        "type": "Leaf"
                    },
                    {
                        "data": "3:659",
                        "leaf": "clip",
                        "type": "Leaf"
                    }
                ],
                "type": "AVSplit"
            },
            {
                "children": [
                    {
                        "data": "3:870",
                        "leaf": "clip",
                        "type": "Leaf"
                    },
                    {
                        "data": "0:870",
                        "leaf": "clip",
                        "type": "Leaf"
                    }
                ],
                "type": "AVSplit"
            },
            {
                "children": [
                    {
                        "data": "3:601",
                        "leaf": "clip",
                        "type": "Leaf"
                    },
                    {
                        "data": "0:601",
                        "leaf": "clip",
                        "type": "Leaf"
                    }
                ],
                "type": "AVSplit"
            },
            {
                "children": [
                    {
                        "data": "0:483",
                        "leaf": "clip",
                        "type": "Leaf"
                    },
                    {
                        "data": "3:483",
                        "leaf": "clip",
                        "type": "Leaf"
                    }
                ],
                "type": "AVSplit"
            },
            {
                "children": [
                    {
                        "data": "0:835",
                        "leaf": "clip",
                        "type": "Leaf"
                    },
                    {
                        "data": "3:835",
                        "leaf": "clip",
                        "type": "Leaf"
                    }
                ],
                "type": "AVSplit"
            }
        ],
        "type": "Normal"
    },
    {
        "children": [
            {
                "data": "0:1469",
                "leaf": "clip",
                "type": "Leaf"
            },
            {
                "data": "3:1469",
                "leaf": "clip",
                "type": "Leaf"
            }
        ],
        "type": "AVSplit"
    },
    {
        "children": [
            {
                "data": "2:4268",
                "leaf": "clip",
                "type": "Leaf"
            },
            {
                "data": "1:4268",
                "leaf": "clip",
                "type": "Leaf"
            }
        ],
        "type": "AVSplit"
    },
    {
        "children": [
            {
                "data": "3:5257",
                "leaf": "clip",
                "type": "Leaf"
            },
            {
                "data": "0:5257",
                "leaf": "clip",
                "type": "Leaf"
            }
        ],
        "type": "AVSplit"
    },
    {
        "children": [
            {
                "data": "1:4115",
                "leaf": "clip",
                "type": "Leaf"
            },
            {
                "data": "2:4115",
                "leaf": "clip",
                "type": "Leaf"
            }
        ],
        "type": "AVSplit"
    },
    {
        "children": [
            {
                "data": "0:2523",
                "leaf": "clip",
                "type": "Leaf"
            },
            {
                "data": "3:2523",
                "leaf": "clip",
                "type": "Leaf"
            }
        ],
        "type": "AVSplit"
    },
    {
        "children": [
            {
                "children": [
                    {
                        "data": "2:5522",
                        "leaf": "clip",
                        "type": "Leaf"
                    },
                    {
                        "data": "1:5522",
                        "leaf": "clip",
                        "type": "Leaf"
                    }
                ],
                "type": "AVSplit"
            },
            {
                "children": [
                    {
                        "data": "2:5609",
                        "leaf": "clip",
                        "type": "Leaf"
                    },
                    {
                        "data": "1:5609",
                        "leaf": "clip",
                        "type": "Leaf"
                    }
                ],
                "type": "AVSplit"
            },
            {
                "children": [
                    {
                        "data": "2:5436",
                        "leaf": "clip",
                        "type": "Leaf"
                    },
                    {
                        "data": "1:5436",
                        "leaf": "clip",
                        "type": "Leaf"
                    }
                ],
                "type": "AVSplit"
            },
            {
                "children": [
                    {
                        "data": "2:5632",
                        "leaf": "clip",
                        "type": "Leaf"
                    },
                    {
                        "data": "1:5632",
                        "leaf": "clip",
                        "type": "Leaf"
                    }
                ],
                "type": "AVSplit"
            },
            {
                "children": [
                    {
                        "data": "2:5497",
                        "leaf": "clip",
                        "type": "Leaf"
                    },
                    {
                        "data": "1:5497",
                        "leaf": "clip",
                        "type": "Leaf"
                    }
                ],
                "type": "AVSplit"
            },
            {
                "children": [
                    {
                        "data": "1:5361",
                        "leaf": "clip",
                        "type": "Leaf"
                    },
                    {
                        "data": "2:5361",
                        "leaf": "clip",
                        "type": "Leaf"
                    }
                ],
                "type": "AVSplit"
            },
            {
                "children": [
                    {
                        "data": "1:5660",
                        "leaf": "clip",
                        "type": "Leaf"
                    },
                    {
                        "data": "2:5660",
                        "leaf": "clip",
                        "type": "Leaf"
                    }
                ],
                "type": "AVSplit"
            }
        ],
        "type": "Normal"
    },
    {
        "children": [
            {
                "data": "2:4321",
                "leaf": "clip",
                "type": "Leaf"
            },
            {
                "data": "1:4321",
                "leaf": "clip",
                "type": "Leaf"
            }
        ],
        "type": "AVSplit"
    },
    {
        "children": [
            {
                "data": "2:3165",
                "leaf": "clip",
                "type": "Leaf"
            },
            {
                "data": "1:3165",
                "leaf": "clip",
                "type": "Leaf"
            }
        ],
        "type": "AVSplit"
    },
    {
        "children": [
            {
                "data": "2:3449",
                "leaf": "clip",
                "type": "Leaf"
            },
            {
                "data": "1:3449",
                "leaf": "clip",
                "type": "Leaf"
            }
        ],
        "type": "AVSplit"
    },
    {
        "children": [
            {
                "data": "2:3792",
                "leaf": "clip",
                "type": "Leaf"
            },
            {
                "data": "1:3792",
                "leaf": "clip",
                "type": "Leaf"
            }
        ],
        "type": "AVSplit"
    },
    {
        "children": [
            {
                "children": [
                    {
                        "data": "2:199",
                        "leaf": "clip",
                        "type": "Leaf"
                    },
                    {
                        "data": "1:199",
                        "leaf": "clip",
                        "type": "Leaf"
                    }
                ],
                "type": "AVSplit"
            },
            {
                "children": [
                    {
                        "data": "2:281",
                        "leaf": "clip",
                        "type": "Leaf"
                    },
                    {
                        "data": "1:281",
                        "leaf": "clip",
                        "type": "Leaf"
                    }
                ],
                "type": "AVSplit"
            },
            {
                "children": [
                    {
                        "data": "2:65",
                        "leaf": "clip",
                        "type": "Leaf"
                    },
                    {
                        "data": "1:65",
                        "leaf": "clip",
                        "type": "Leaf"
                    }
                ],
                "type": "AVSplit"
            },
            {
                "children": [
                    {
                        "data": "2:354",
                        "leaf": "clip",
                        "type": "Leaf"
                    },
                    {
                        "data": "1:354",
                        "leaf": "clip",
                        "type": "Leaf"
                    }
                ],
                "type": "AVSplit"
            },
            {
                "children": [
                    {
                        "data": "1:0",
                        "leaf": "clip",
                        "type": "Leaf"
                    },
                    {
                        "data": "2:0",
                        "leaf": "clip",
                        "type": "Leaf"
                    }
                ],
                "type": "AVSplit"
            },
            {
                "children": [
                    {
                        "data": "1:214",
                        "leaf": "clip",
                        "type": "Leaf"
                    },
                    {
                        "data": "2:214",
                        "leaf": "clip",
                        "type": "Leaf"
                    }
                ],
                "type": "AVSplit"
            },
            {
                "children": [
                    {
                        "data": "1:400",
                        "leaf": "clip",
                        "type": "Leaf"
                    },
                    {
                        "data": "2:400",
                        "leaf": "clip",
                        "type": "Leaf"
                    }
                ],
                "type": "AVSplit"
            },
            {
                "children": [
                    {
                        "data": "2:249",
                        "leaf": "clip",
                        "type": "Leaf"
                    },
                    {
                        "data": "1:249",
                        "leaf": "clip",
                        "type": "Leaf"
                    }
                ],
                "type": "AVSplit"
            },
            {
                "children": [
                    {
                        "data": "1:196",
                        "leaf": "clip",
                        "type": "Leaf"
                    },
                    {
                        "data": "2:196",
                        "leaf": "clip",
                        "type": "Leaf"
                    }
                ],
                "type": "AVSplit"
            }
        ],
        "type": "Normal"
    },
    {
        "children": [
            {
                "data": "3:1377",
                "leaf": "clip",
                "type": "Leaf"
            },
            {
                "data": "0:1377",
                "leaf": "clip",
                "type": "Leaf"
            }
        ],
        "type": "AVSplit"
    },
    {
        "children": [
            {
                "data": "3:1154",
                "leaf": "clip",
                "type": "Leaf"
            },
            {
                "data": "0:1154",
                "leaf": "clip",
                "type": "Leaf"
            }
        ],
        "type": "AVSplit"
    },
    {
        "children": [
            {
                "data": "2:4484",
                "leaf": "clip",
                "type": "Leaf"
            },
            {
                "data": "1:4484",
                "leaf": "clip",
                "type": "Leaf"
            }
        ],
        "type": "AVSplit"
    },
    {
        "children": [
            {
                "data": "0:2474",
                "leaf": "clip",
                "type": "Leaf"
            },
            {
                "data": "3:2474",
                "leaf": "clip",
                "type": "Leaf"
            }
        ],
        "type": "AVSplit"
    },
    {
        "children": [
            {
                "data": "2:942",
                "leaf": "clip",
                "type": "Leaf"
            },
            {
                "data": "1:942",
                "leaf": "clip",
                "type": "Leaf"
            }
        ],
        "type": "AVSplit"
    },
    {
        "children": [
            {
                "data": "2:4250",
                "leaf": "clip",
                "type": "Leaf"
            },
            {
                "data": "1:4250",
                "leaf": "clip",
                "type": "Leaf"
            }
        ],
        "type": "AVSplit"
    },
    {
        "children": [
            {
                "data": "1:3559",
                "leaf": "clip",
                "type": "Leaf"
            },
            {
                "data": "2:3559",
                "leaf": "clip",
                "type": "Leaf"
            }
        ],
        "type": "AVSplit"
    },
    {
        "children": [
            {
                "data": "0:2742",
                "leaf": "clip",
                "type": "Leaf"
            },
            {
                "data": "3:2742",
                "leaf": "clip",
                "type": "Leaf"
            }
        ],
        "type": "AVSplit"
    },
    {
        "children": [
            {
                "data": "2:1926",
                "leaf": "clip",
                "type": "Leaf"
            },
            {
                "data": "1:1926",
                "leaf": "clip",
                "type": "Leaf"
            }
        ],
        "type": "AVSplit"
    }
]
</property>
  <property name="kdenlive:sequenceproperties.guides">[
]
</property>
  <track producer="producer0"/>
  <track producer="tractor0"/>
  <track producer="tractor1"/>
  <track producer="tractor2"/>
  <track producer="tractor3"/>
  <transition id="transition0">
   <property name="a_track">0</property>
   <property name="b_track">1</property>
   <property name="mlt_service">mix</property>
   <property name="kdenlive_id">mix</property>
   <property name="internal_added">237</property>
   <property name="always_active">1</property>
   <property name="accepts_blanks">1</property>
   <property name="sum">1</property>
  </transition>
  <transition id="transition1">
   <property name="a_track">0</property>
   <property name="b_track">2</property>
   <property name="mlt_service">mix</property>
   <property name="kdenlive_id">mix</property>
   <property name="internal_added">237</property>
   <property name="always_active">1</property>
   <property name="accepts_blanks">1</property>
   <property name="sum">1</property>
  </transition>
  <transition id="transition2">
   <property name="a_track">0</property>
   <property name="b_track">3</property>
   <property name="compositing">0</property>
   <property name="distort">0</property>
   <property name="rotate_center">0</property>
   <property name="mlt_service">qtblend</property>
   <property name="kdenlive_id">qtblend</property>
   <property name="internal_added">237</property>
   <property name="always_active">1</property>
  </transition>
  <transition id="transition3">
   <property name="a_track">0</property>
   <property name="b_track">4</property>
   <property name="compositing">0</property>
   <property name="distort">0</property>
   <property name="rotate_center">0</property>
   <property name="mlt_service">qtblend</property>
   <property name="kdenlive_id">qtblend</property>
   <property name="internal_added">237</property>
   <property name="always_active">1</property>
  </transition>
  <filter id="filter6">
   <property name="window">75</property>
   <property name="max_gain">20dB</property>
   <property name="mlt_service">volume</property>
   <property name="internal_added">237</property>
   <property name="disable">1</property>
  </filter>
  <filter id="filter7">
   <property name="channel">-1</property>
   <property name="mlt_service">panner</property>
   <property name="internal_added">237</property>
   <property name="start">0.5</property>
   <property name="disable">1</property>
  </filter>
 </tractor>
 <chain id="chain22" out="00:00:10.500">
  <property name="length">316</property>
  <property name="eof">pause</property>
  <property name="resource">2024-11-08 22-36-11.mkv</property>
  <property name="mlt_service">avformat</property>
  <property name="meta.media.nb_streams">2</property>
  <property name="meta.media.0.stream.type">video</property>
  <property name="meta.media.0.stream.frame_rate">30</property>
  <property name="meta.media.0.stream.sample_aspect_ratio">0</property>
  <property name="meta.media.0.codec.width">1280</property>
  <property name="meta.media.0.codec.height">720</property>
  <property name="meta.media.0.codec.rotate">0</property>
  <property name="meta.media.0.codec.pix_fmt">yuv420p</property>
  <property name="meta.media.0.codec.sample_aspect_ratio">1</property>
  <property name="meta.media.0.codec.colorspace">709</property>
  <property name="meta.media.0.codec.color_trc">1</property>
  <property name="meta.media.0.codec.name">h264</property>
  <property name="meta.media.0.codec.long_name">H.264 / AVC / MPEG-4 AVC / MPEG-4 part 10</property>
  <property name="meta.media.0.codec.bit_rate">0</property>
  <property name="meta.attr.0.stream.DURATION.markup">00:00:10.533000000</property>
  <property name="meta.media.1.stream.type">audio</property>
  <property name="meta.media.1.codec.sample_fmt">fltp</property>
  <property name="meta.media.1.codec.sample_rate">48000</property>
  <property name="meta.media.1.codec.channels">2</property>
  <property name="meta.media.1.codec.layout">stereo</property>
  <property name="meta.media.1.codec.name">aac</property>
  <property name="meta.media.1.codec.long_name">AAC (Advanced Audio Coding)</property>
  <property name="meta.media.1.codec.bit_rate">0</property>
  <property name="meta.attr.1.stream.title.markup">simple_aac</property>
  <property name="meta.attr.1.stream.DURATION.markup">00:00:10.474000000</property>
  <property name="meta.attr.ENCODER.markup">Lavf61.1.100</property>
  <property name="seekable">1</property>
  <property name="meta.media.sample_aspect_num">1</property>
  <property name="meta.media.sample_aspect_den">1</property>
  <property name="format">3</property>
  <property name="audio_index">1</property>
  <property name="video_index">0</property>
  <property name="vstream">0</property>
  <property name="meta.media.frame_rate_num">30</property>
  <property name="meta.media.frame_rate_den">1</property>
  <property name="meta.media.colorspace">709</property>
  <property name="meta.media.color_trc">1</property>
  <property name="meta.media.has_b_frames">1</property>
  <property name="meta.media.width">1280</property>
  <property name="meta.media.height">720</property>
  <property name="meta.media.aspect_ratio">1</property>
  <property name="meta.media.color_range">mpeg</property>
  <property name="astream">0</property>
  <property name="meta.media.top_field_first">0</property>
  <property name="meta.media.progressive">1</property>
  <property name="kdenlive:control_uuid">{721ce6d4-d716-4a61-9aba-b404850228d7}</property>
  <property name="kdenlive:id">6</property>
  <property name="kdenlive:clip_type">0</property>
  <property name="kdenlive:file_size">3508408</property>
  <property name="kdenlive:file_hash">89efadb98eef0119e61899a5f5da0491</property>
  <property name="kdenlive:folderid">-1</property>
  <property name="kdenlive:audio_max1">50</property>
  <property name="kdenlive:monitorPosition">0</property>
 </chain>
 <chain id="chain23" out="00:00:23.300">
  <property name="length">700</property>
  <property name="eof">pause</property>
  <property name="resource">2024-11-08 22-36-38.mkv</property>
  <property name="mlt_service">avformat</property>
  <property name="meta.media.nb_streams">2</property>
  <property name="meta.media.0.stream.type">video</property>
  <property name="meta.media.0.stream.frame_rate">30</property>
  <property name="meta.media.0.stream.sample_aspect_ratio">0</property>
  <property name="meta.media.0.codec.width">1280</property>
  <property name="meta.media.0.codec.height">720</property>
  <property name="meta.media.0.codec.rotate">0</property>
  <property name="meta.media.0.codec.pix_fmt">yuv420p</property>
  <property name="meta.media.0.codec.sample_aspect_ratio">1</property>
  <property name="meta.media.0.codec.colorspace">709</property>
  <property name="meta.media.0.codec.color_trc">1</property>
  <property name="meta.media.0.codec.name">h264</property>
  <property name="meta.media.0.codec.long_name">H.264 / AVC / MPEG-4 AVC / MPEG-4 part 10</property>
  <property name="meta.media.0.codec.bit_rate">0</property>
  <property name="meta.attr.0.stream.DURATION.markup">00:00:23.333000000</property>
  <property name="meta.media.1.stream.type">audio</property>
  <property name="meta.media.1.codec.sample_fmt">fltp</property>
  <property name="meta.media.1.codec.sample_rate">48000</property>
  <property name="meta.media.1.codec.channels">2</property>
  <property name="meta.media.1.codec.layout">stereo</property>
  <property name="meta.media.1.codec.name">aac</property>
  <property name="meta.media.1.codec.long_name">AAC (Advanced Audio Coding)</property>
  <property name="meta.media.1.codec.bit_rate">0</property>
  <property name="meta.attr.1.stream.title.markup">simple_aac</property>
  <property name="meta.attr.1.stream.DURATION.markup">00:00:23.274000000</property>
  <property name="meta.attr.ENCODER.markup">Lavf61.1.100</property>
  <property name="seekable">1</property>
  <property name="meta.media.sample_aspect_num">1</property>
  <property name="meta.media.sample_aspect_den">1</property>
  <property name="format">3</property>
  <property name="audio_index">1</property>
  <property name="video_index">0</property>
  <property name="vstream">0</property>
  <property name="meta.media.frame_rate_num">30</property>
  <property name="meta.media.frame_rate_den">1</property>
  <property name="meta.media.colorspace">709</property>
  <property name="meta.media.color_trc">1</property>
  <property name="meta.media.has_b_frames">1</property>
  <property name="meta.media.width">1280</property>
  <property name="meta.media.height">720</property>
  <property name="meta.media.aspect_ratio">1</property>
  <property name="meta.media.color_range">mpeg</property>
  <property name="astream">0</property>
  <property name="meta.media.top_field_first">0</property>
  <property name="meta.media.progressive">1</property>
  <property name="kdenlive:control_uuid">{c5e49696-2b68-48f0-8080-1d5dc3643dde}</property>
  <property name="kdenlive:id">4</property>
  <property name="kdenlive:clip_type">0</property>
  <property name="kdenlive:file_size">7771849</property>
  <property name="kdenlive:file_hash">504d4e3716f446ed3c74cd2c35edd8a7</property>
  <property name="kdenlive:folderid">-1</property>
  <property name="kdenlive:monitorPosition">421</property>
  <property name="kdenlive:audio_max1">72</property>
 </chain>
 <chain id="chain24" out="00:00:09.300">
  <property name="length">280</property>
  <property name="eof">pause</property>
  <property name="resource">2024-11-08 22-36-01.mkv</property>
  <property name="mlt_service">avformat</property>
  <property name="meta.media.nb_streams">2</property>
  <property name="meta.media.0.stream.type">video</property>
  <property name="meta.media.0.stream.frame_rate">30</property>
  <property name="meta.media.0.stream.sample_aspect_ratio">0</property>
  <property name="meta.media.0.codec.width">1280</property>
  <property name="meta.media.0.codec.height">720</property>
  <property name="meta.media.0.codec.rotate">0</property>
  <property name="meta.media.0.codec.pix_fmt">yuv420p</property>
  <property name="meta.media.0.codec.sample_aspect_ratio">1</property>
  <property name="meta.media.0.codec.colorspace">709</property>
  <property name="meta.media.0.codec.color_trc">1</property>
  <property name="meta.media.0.codec.name">h264</property>
  <property name="meta.media.0.codec.long_name">H.264 / AVC / MPEG-4 AVC / MPEG-4 part 10</property>
  <property name="meta.media.0.codec.bit_rate">0</property>
  <property name="meta.attr.0.stream.DURATION.markup">00:00:09.333000000</property>
  <property name="meta.media.1.stream.type">audio</property>
  <property name="meta.media.1.codec.sample_fmt">fltp</property>
  <property name="meta.media.1.codec.sample_rate">48000</property>
  <property name="meta.media.1.codec.channels">2</property>
  <property name="meta.media.1.codec.layout">stereo</property>
  <property name="meta.media.1.codec.name">aac</property>
  <property name="meta.media.1.codec.long_name">AAC (Advanced Audio Coding)</property>
  <property name="meta.media.1.codec.bit_rate">0</property>
  <property name="meta.attr.1.stream.title.markup">simple_aac</property>
  <property name="meta.attr.1.stream.DURATION.markup">00:00:09.237000000</property>
  <property name="meta.attr.ENCODER.markup">Lavf61.1.100</property>
  <property name="seekable">1</property>
  <property name="meta.media.sample_aspect_num">1</property>
  <property name="meta.media.sample_aspect_den">1</property>
  <property name="format">3</property>
  <property name="audio_index">1</property>
  <property name="video_index">0</property>
  <property name="vstream">0</property>
  <property name="meta.media.frame_rate_num">30</property>
  <property name="meta.media.frame_rate_den">1</property>
  <property name="meta.media.colorspace">709</property>
  <property name="meta.media.color_trc">1</property>
  <property name="meta.media.has_b_frames">1</property>
  <property name="meta.media.width">1280</property>
  <property name="meta.media.height">720</property>
  <property name="meta.media.aspect_ratio">1</property>
  <property name="meta.media.color_range">mpeg</property>
  <property name="astream">0</property>
  <property name="meta.media.top_field_first">0</property>
  <property name="meta.media.progressive">1</property>
  <property name="kdenlive:control_uuid">{8f32ae6a-1741-47fb-a528-0b35ba5c0916}</property>
  <property name="kdenlive:id">7</property>
  <property name="kdenlive:clip_type">0</property>
  <property name="kdenlive:file_size">3097679</property>
  <property name="kdenlive:file_hash">7f6bb6e7a199eb9201e884bf9b513181</property>
  <property name="kdenlive:folderid">-1</property>
  <property name="kdenlive:audio_max1">54</property>
  <property name="kdenlive:monitorPosition">225</property>
 </chain>
 <chain id="chain25" out="00:00:16.300">
  <property name="length">490</property>
  <property name="eof">pause</property>
  <property name="resource">2024-11-08 22-35-31.mkv</property>
  <property name="mlt_service">avformat</property>
  <property name="meta.media.nb_streams">2</property>
  <property name="meta.media.0.stream.type">video</property>
  <property name="meta.media.0.stream.frame_rate">30</property>
  <property name="meta.media.0.stream.sample_aspect_ratio">0</property>
  <property name="meta.media.0.codec.width">1280</property>
  <property name="meta.media.0.codec.height">720</property>
  <property name="meta.media.0.codec.rotate">0</property>
  <property name="meta.media.0.codec.pix_fmt">yuv420p</property>
  <property name="meta.media.0.codec.sample_aspect_ratio">1</property>
  <property name="meta.media.0.codec.colorspace">709</property>
  <property name="meta.media.0.codec.color_trc">1</property>
  <property name="meta.media.0.codec.name">h264</property>
  <property name="meta.media.0.codec.long_name">H.264 / AVC / MPEG-4 AVC / MPEG-4 part 10</property>
  <property name="meta.media.0.codec.bit_rate">0</property>
  <property name="meta.attr.0.stream.DURATION.markup">00:00:16.333000000</property>
  <property name="meta.media.1.stream.type">audio</property>
  <property name="meta.media.1.codec.sample_fmt">fltp</property>
  <property name="meta.media.1.codec.sample_rate">48000</property>
  <property name="meta.media.1.codec.channels">2</property>
  <property name="meta.media.1.codec.layout">stereo</property>
  <property name="meta.media.1.codec.name">aac</property>
  <property name="meta.media.1.codec.long_name">AAC (Advanced Audio Coding)</property>
  <property name="meta.media.1.codec.bit_rate">0</property>
  <property name="meta.attr.1.stream.title.markup">simple_aac</property>
  <property name="meta.attr.1.stream.DURATION.markup">00:00:16.213000000</property>
  <property name="meta.attr.ENCODER.markup">Lavf61.1.100</property>
  <property name="seekable">1</property>
  <property name="meta.media.sample_aspect_num">1</property>
  <property name="meta.media.sample_aspect_den">1</property>
  <property name="format">3</property>
  <property name="audio_index">1</property>
  <property name="video_index">0</property>
  <property name="vstream">0</property>
  <property name="meta.media.frame_rate_num">30</property>
  <property name="meta.media.frame_rate_den">1</property>
  <property name="meta.media.colorspace">709</property>
  <property name="meta.media.color_trc">1</property>
  <property name="meta.media.has_b_frames">1</property>
  <property name="meta.media.width">1280</property>
  <property name="meta.media.height">720</property>
  <property name="meta.media.aspect_ratio">1</property>
  <property name="meta.media.color_range">mpeg</property>
  <property name="astream">0</property>
  <property name="meta.media.top_field_first">0</property>
  <property name="meta.media.progressive">1</property>
  <property name="kdenlive:control_uuid">{f3be170b-911a-45f1-bcd2-94806c080df6}</property>
  <property name="kdenlive:id">10</property>
  <property name="kdenlive:clip_type">0</property>
  <property name="kdenlive:file_size">5484946</property>
  <property name="kdenlive:file_hash">ea0bb53fc199f87c8470b03da4a78ed1</property>
  <property name="kdenlive:folderid">-1</property>
  <property name="kdenlive:audio_max1">57</property>
  <property name="kdenlive:monitorPosition">417</property>
 </chain>
 <chain id="chain26" out="00:00:18.400">
  <property name="length">553</property>
  <property name="eof">pause</property>
  <property name="resource">2024-11-08 22-35-10.mkv</property>
  <property name="mlt_service">avformat</property>
  <property name="meta.media.nb_streams">2</property>
  <property name="meta.media.0.stream.type">video</property>
  <property name="meta.media.0.stream.frame_rate">30</property>
  <property name="meta.media.0.stream.sample_aspect_ratio">0</property>
  <property name="meta.media.0.codec.width">1280</property>
  <property name="meta.media.0.codec.height">720</property>
  <property name="meta.media.0.codec.rotate">0</property>
  <property name="meta.media.0.codec.pix_fmt">yuv420p</property>
  <property name="meta.media.0.codec.sample_aspect_ratio">1</property>
  <property name="meta.media.0.codec.colorspace">709</property>
  <property name="meta.media.0.codec.color_trc">1</property>
  <property name="meta.media.0.codec.name">h264</property>
  <property name="meta.media.0.codec.long_name">H.264 / AVC / MPEG-4 AVC / MPEG-4 part 10</property>
  <property name="meta.media.0.codec.bit_rate">0</property>
  <property name="meta.attr.0.stream.DURATION.markup">00:00:18.433000000</property>
  <property name="meta.media.1.stream.type">audio</property>
  <property name="meta.media.1.codec.sample_fmt">fltp</property>
  <property name="meta.media.1.codec.sample_rate">48000</property>
  <property name="meta.media.1.codec.channels">2</property>
  <property name="meta.media.1.codec.layout">stereo</property>
  <property name="meta.media.1.codec.name">aac</property>
  <property name="meta.media.1.codec.long_name">AAC (Advanced Audio Coding)</property>
  <property name="meta.media.1.codec.bit_rate">0</property>
  <property name="meta.attr.1.stream.title.markup">simple_aac</property>
  <property name="meta.attr.1.stream.DURATION.markup">00:00:18.368000000</property>
  <property name="meta.attr.ENCODER.markup">Lavf61.1.100</property>
  <property name="seekable">1</property>
  <property name="meta.media.sample_aspect_num">1</property>
  <property name="meta.media.sample_aspect_den">1</property>
  <property name="format">3</property>
  <property name="audio_index">1</property>
  <property name="video_index">0</property>
  <property name="vstream">0</property>
  <property name="meta.media.frame_rate_num">30</property>
  <property name="meta.media.frame_rate_den">1</property>
  <property name="meta.media.colorspace">709</property>
  <property name="meta.media.color_trc">1</property>
  <property name="meta.media.has_b_frames">1</property>
  <property name="meta.media.width">1280</property>
  <property name="meta.media.height">720</property>
  <property name="meta.media.aspect_ratio">1</property>
  <property name="meta.media.color_range">mpeg</property>
  <property name="astream">0</property>
  <property name="meta.media.top_field_first">0</property>
  <property name="meta.media.progressive">1</property>
  <property name="kdenlive:control_uuid">{15f2fc1e-7d5d-450d-8234-7286659bc047}</property>
  <property name="kdenlive:id">11</property>
  <property name="kdenlive:clip_type">0</property>
  <property name="kdenlive:file_size">6155530</property>
  <property name="kdenlive:file_hash">2111348e327ba1f0351af126f60c2c44</property>
  <property name="kdenlive:folderid">-1</property>
  <property name="kdenlive:audio_max1">53</property>
  <property name="kdenlive:monitorPosition">107</property>
 </chain>
 <chain id="chain27" out="00:00:28.200">
  <property name="length">847</property>
  <property name="eof">pause</property>
  <property name="resource">2024-11-08 22-34-11.mkv</property>
  <property name="mlt_service">avformat</property>
  <property name="meta.media.nb_streams">2</property>
  <property name="meta.media.0.stream.type">video</property>
  <property name="meta.media.0.stream.frame_rate">30</property>
  <property name="meta.media.0.stream.sample_aspect_ratio">0</property>
  <property name="meta.media.0.codec.width">1280</property>
  <property name="meta.media.0.codec.height">720</property>
  <property name="meta.media.0.codec.rotate">0</property>
  <property name="meta.media.0.codec.pix_fmt">yuv420p</property>
  <property name="meta.media.0.codec.sample_aspect_ratio">1</property>
  <property name="meta.media.0.codec.colorspace">709</property>
  <property name="meta.media.0.codec.color_trc">1</property>
  <property name="meta.media.0.codec.name">h264</property>
  <property name="meta.media.0.codec.long_name">H.264 / AVC / MPEG-4 AVC / MPEG-4 part 10</property>
  <property name="meta.media.0.codec.bit_rate">0</property>
  <property name="meta.attr.0.stream.DURATION.markup">00:00:28.233000000</property>
  <property name="meta.media.1.stream.type">audio</property>
  <property name="meta.media.1.codec.sample_fmt">fltp</property>
  <property name="meta.media.1.codec.sample_rate">48000</property>
  <property name="meta.media.1.codec.channels">2</property>
  <property name="meta.media.1.codec.layout">stereo</property>
  <property name="meta.media.1.codec.name">aac</property>
  <property name="meta.media.1.codec.long_name">AAC (Advanced Audio Coding)</property>
  <property name="meta.media.1.codec.bit_rate">0</property>
  <property name="meta.attr.1.stream.title.markup">simple_aac</property>
  <property name="meta.attr.1.stream.DURATION.markup">00:00:28.181000000</property>
  <property name="meta.attr.ENCODER.markup">Lavf61.1.100</property>
  <property name="seekable">1</property>
  <property name="meta.media.sample_aspect_num">1</property>
  <property name="meta.media.sample_aspect_den">1</property>
  <property name="format">3</property>
  <property name="audio_index">1</property>
  <property name="video_index">0</property>
  <property name="vstream">0</property>
  <property name="meta.media.frame_rate_num">30</property>
  <property name="meta.media.frame_rate_den">1</property>
  <property name="meta.media.colorspace">709</property>
  <property name="meta.media.color_trc">1</property>
  <property name="meta.media.has_b_frames">1</property>
  <property name="meta.media.width">1280</property>
  <property name="meta.media.height">720</property>
  <property name="meta.media.aspect_ratio">1</property>
  <property name="meta.media.color_range">mpeg</property>
  <property name="astream">0</property>
  <property name="meta.media.top_field_first">0</property>
  <property name="meta.media.progressive">1</property>
  <property name="kdenlive:control_uuid">{a75a2e0a-b489-41a6-ab0a-86ebb08a7dbb}</property>
  <property name="kdenlive:id">17</property>
  <property name="kdenlive:clip_type">0</property>
  <property name="kdenlive:file_size">9417624</property>
  <property name="kdenlive:file_hash">8ffa8b9affc2bf75a7e5ea647f98b692</property>
  <property name="kdenlive:folderid">-1</property>
  <property name="kdenlive:audio_max1">65</property>
 </chain>
 <chain id="chain28" out="00:00:02.600">
  <property name="length">79</property>
  <property name="eof">pause</property>
  <property name="resource">2024-11-08 22-34-07.mkv</property>
  <property name="mlt_service">avformat</property>
  <property name="meta.media.nb_streams">2</property>
  <property name="meta.media.0.stream.type">video</property>
  <property name="meta.media.0.stream.frame_rate">30</property>
  <property name="meta.media.0.stream.sample_aspect_ratio">0</property>
  <property name="meta.media.0.codec.width">1280</property>
  <property name="meta.media.0.codec.height">720</property>
  <property name="meta.media.0.codec.rotate">0</property>
  <property name="meta.media.0.codec.pix_fmt">yuv420p</property>
  <property name="meta.media.0.codec.sample_aspect_ratio">1</property>
  <property name="meta.media.0.codec.colorspace">709</property>
  <property name="meta.media.0.codec.color_trc">1</property>
  <property name="meta.media.0.codec.name">h264</property>
  <property name="meta.media.0.codec.long_name">H.264 / AVC / MPEG-4 AVC / MPEG-4 part 10</property>
  <property name="meta.media.0.codec.bit_rate">0</property>
  <property name="meta.attr.0.stream.DURATION.markup">00:00:02.633000000</property>
  <property name="meta.media.1.stream.type">audio</property>
  <property name="meta.media.1.codec.sample_fmt">fltp</property>
  <property name="meta.media.1.codec.sample_rate">48000</property>
  <property name="meta.media.1.codec.channels">2</property>
  <property name="meta.media.1.codec.layout">stereo</property>
  <property name="meta.media.1.codec.name">aac</property>
  <property name="meta.media.1.codec.long_name">AAC (Advanced Audio Coding)</property>
  <property name="meta.media.1.codec.bit_rate">0</property>
  <property name="meta.attr.1.stream.title.markup">simple_aac</property>
  <property name="meta.attr.1.stream.DURATION.markup">00:00:02.581000000</property>
  <property name="meta.attr.ENCODER.markup">Lavf61.1.100</property>
  <property name="seekable">1</property>
  <property name="meta.media.sample_aspect_num">1</property>
  <property name="meta.media.sample_aspect_den">1</property>
  <property name="format">3</property>
  <property name="audio_index">1</property>
  <property name="video_index">0</property>
  <property name="vstream">0</property>
  <property name="meta.media.frame_rate_num">30</property>
  <property name="meta.media.frame_rate_den">1</property>
  <property name="meta.media.colorspace">709</property>
  <property name="meta.media.color_trc">1</property>
  <property name="meta.media.has_b_frames">1</property>
  <property name="meta.media.width">1280</property>
  <property name="meta.media.height">720</property>
  <property name="meta.media.aspect_ratio">1</property>
  <property name="meta.media.color_range">mpeg</property>
  <property name="astream">0</property>
  <property name="meta.media.top_field_first">0</property>
  <property name="meta.media.progressive">1</property>
  <property name="kdenlive:control_uuid">{b9b21c11-febc-424b-9128-02686fa9a492}</property>
  <property name="kdenlive:id">18</property>
  <property name="kdenlive:clip_type">0</property>
  <property name="kdenlive:file_size">877474</property>
  <property name="kdenlive:file_hash">c77c5092fe858e93631fd649a7eceaa7</property>
  <property name="kdenlive:folderid">-1</property>
  <property name="kdenlive:audio_max1">48</property>
 </chain>
 <chain id="chain29" out="00:00:20.500">
  <property name="length">616</property>
  <property name="eof">pause</property>
  <property name="resource">2024-11-08 22-33-39.mkv</property>
  <property name="mlt_service">avformat</property>
  <property name="meta.media.nb_streams">2</property>
  <property name="meta.media.0.stream.type">video</property>
  <property name="meta.media.0.stream.frame_rate">30</property>
  <property name="meta.media.0.stream.sample_aspect_ratio">0</property>
  <property name="meta.media.0.codec.width">1280</property>
  <property name="meta.media.0.codec.height">720</property>
  <property name="meta.media.0.codec.rotate">0</property>
  <property name="meta.media.0.codec.pix_fmt">yuv420p</property>
  <property name="meta.media.0.codec.sample_aspect_ratio">1</property>
  <property name="meta.media.0.codec.colorspace">709</property>
  <property name="meta.media.0.codec.color_trc">1</property>
  <property name="meta.media.0.codec.name">h264</property>
  <property name="meta.media.0.codec.long_name">H.264 / AVC / MPEG-4 AVC / MPEG-4 part 10</property>
  <property name="meta.media.0.codec.bit_rate">0</property>
  <property name="meta.attr.0.stream.DURATION.markup">00:00:20.533000000</property>
  <property name="meta.media.1.stream.type">audio</property>
  <property name="meta.media.1.codec.sample_fmt">fltp</property>
  <property name="meta.media.1.codec.sample_rate">48000</property>
  <property name="meta.media.1.codec.channels">2</property>
  <property name="meta.media.1.codec.layout">stereo</property>
  <property name="meta.media.1.codec.name">aac</property>
  <property name="meta.media.1.codec.long_name">AAC (Advanced Audio Coding)</property>
  <property name="meta.media.1.codec.bit_rate">0</property>
  <property name="meta.attr.1.stream.title.markup">simple_aac</property>
  <property name="meta.attr.1.stream.DURATION.markup">00:00:20.416000000</property>
  <property name="meta.attr.ENCODER.markup">Lavf61.1.100</property>
  <property name="seekable">1</property>
  <property name="meta.media.sample_aspect_num">1</property>
  <property name="meta.media.sample_aspect_den">1</property>
  <property name="format">3</property>
  <property name="audio_index">1</property>
  <property name="video_index">0</property>
  <property name="vstream">0</property>
  <property name="meta.media.frame_rate_num">30</property>
  <property name="meta.media.frame_rate_den">1</property>
  <property name="meta.media.colorspace">709</property>
  <property name="meta.media.color_trc">1</property>
  <property name="meta.media.has_b_frames">1</property>
  <property name="meta.media.width">1280</property>
  <property name="meta.media.height">720</property>
  <property name="meta.media.aspect_ratio">1</property>
  <property name="meta.media.color_range">mpeg</property>
  <property name="astream">0</property>
  <property name="meta.media.top_field_first">0</property>
  <property name="meta.media.progressive">1</property>
  <property name="kdenlive:control_uuid">{9782494f-4ab4-4e06-992d-c832e7c2e120}</property>
  <property name="kdenlive:id">19</property>
  <property name="kdenlive:clip_type">0</property>
  <property name="kdenlive:file_size">6817172</property>
  <property name="kdenlive:file_hash">55db60975ff7496250e64145ba202c9b</property>
  <property name="kdenlive:folderid">-1</property>
  <property name="kdenlive:audio_max1">58</property>
 </chain>
 <chain id="chain30" out="00:00:10.200">
  <property name="length">307</property>
  <property name="eof">pause</property>
  <property name="resource">2024-11-08 22-34-43.mkv</property>
  <property name="mlt_service">avformat</property>
  <property name="meta.media.nb_streams">2</property>
  <property name="meta.media.0.stream.type">video</property>
  <property name="meta.media.0.stream.frame_rate">30</property>
  <property name="meta.media.0.stream.sample_aspect_ratio">0</property>
  <property name="meta.media.0.codec.width">1280</property>
  <property name="meta.media.0.codec.height">720</property>
  <property name="meta.media.0.codec.rotate">0</property>
  <property name="meta.media.0.codec.pix_fmt">yuv420p</property>
  <property name="meta.media.0.codec.sample_aspect_ratio">1</property>
  <property name="meta.media.0.codec.colorspace">709</property>
  <property name="meta.media.0.codec.color_trc">1</property>
  <property name="meta.media.0.codec.name">h264</property>
  <property name="meta.media.0.codec.long_name">H.264 / AVC / MPEG-4 AVC / MPEG-4 part 10</property>
  <property name="meta.media.0.codec.bit_rate">0</property>
  <property name="meta.attr.0.stream.DURATION.markup">00:00:10.233000000</property>
  <property name="meta.media.1.stream.type">audio</property>
  <property name="meta.media.1.codec.sample_fmt">fltp</property>
  <property name="meta.media.1.codec.sample_rate">48000</property>
  <property name="meta.media.1.codec.channels">2</property>
  <property name="meta.media.1.codec.layout">stereo</property>
  <property name="meta.media.1.codec.name">aac</property>
  <property name="meta.media.1.codec.long_name">AAC (Advanced Audio Coding)</property>
  <property name="meta.media.1.codec.bit_rate">0</property>
  <property name="meta.attr.1.stream.title.markup">simple_aac</property>
  <property name="meta.attr.1.stream.DURATION.markup">00:00:10.112000000</property>
  <property name="meta.attr.ENCODER.markup">Lavf61.1.100</property>
  <property name="seekable">1</property>
  <property name="meta.media.sample_aspect_num">1</property>
  <property name="meta.media.sample_aspect_den">1</property>
  <property name="format">3</property>
  <property name="audio_index">1</property>
  <property name="video_index">0</property>
  <property name="vstream">0</property>
  <property name="meta.media.frame_rate_num">30</property>
  <property name="meta.media.frame_rate_den">1</property>
  <property name="meta.media.colorspace">709</property>
  <property name="meta.media.color_trc">1</property>
  <property name="meta.media.has_b_frames">1</property>
  <property name="meta.media.width">1280</property>
  <property name="meta.media.height">720</property>
  <property name="meta.media.aspect_ratio">1</property>
  <property name="meta.media.color_range">mpeg</property>
  <property name="astream">0</property>
  <property name="meta.media.top_field_first">0</property>
  <property name="meta.media.progressive">1</property>
  <property name="kdenlive:control_uuid">{216d7f7a-44e6-42a0-be2d-9c0c014ba843}</property>
  <property name="kdenlive:id">16</property>
  <property name="kdenlive:clip_type">0</property>
  <property name="kdenlive:file_size">3483571</property>
  <property name="kdenlive:file_hash">9c13b323d7b32b4c4438fe9e88fadc9a</property>
  <property name="kdenlive:folderid">-1</property>
  <property name="kdenlive:audio_max1">56</property>
 </chain>
 <chain id="chain31" out="00:00:23.200">
  <property name="length">697</property>
  <property name="eof">pause</property>
  <property name="resource">2024-11-08 22-33-10.mkv</property>
  <property name="mlt_service">avformat</property>
  <property name="meta.media.nb_streams">2</property>
  <property name="meta.media.0.stream.type">video</property>
  <property name="meta.media.0.stream.frame_rate">30</property>
  <property name="meta.media.0.stream.sample_aspect_ratio">0</property>
  <property name="meta.media.0.codec.width">1280</property>
  <property name="meta.media.0.codec.height">720</property>
  <property name="meta.media.0.codec.rotate">0</property>
  <property name="meta.media.0.codec.pix_fmt">yuv420p</property>
  <property name="meta.media.0.codec.sample_aspect_ratio">1</property>
  <property name="meta.media.0.codec.colorspace">709</property>
  <property name="meta.media.0.codec.color_trc">1</property>
  <property name="meta.media.0.codec.name">h264</property>
  <property name="meta.media.0.codec.long_name">H.264 / AVC / MPEG-4 AVC / MPEG-4 part 10</property>
  <property name="meta.media.0.codec.bit_rate">0</property>
  <property name="meta.attr.0.stream.DURATION.markup">00:00:23.233000000</property>
  <property name="meta.media.1.stream.type">audio</property>
  <property name="meta.media.1.codec.sample_fmt">fltp</property>
  <property name="meta.media.1.codec.sample_rate">48000</property>
  <property name="meta.media.1.codec.channels">2</property>
  <property name="meta.media.1.codec.layout">stereo</property>
  <property name="meta.media.1.codec.name">aac</property>
  <property name="meta.media.1.codec.long_name">AAC (Advanced Audio Coding)</property>
  <property name="meta.media.1.codec.bit_rate">0</property>
  <property name="meta.attr.1.stream.title.markup">simple_aac</property>
  <property name="meta.attr.1.stream.DURATION.markup">00:00:23.168000000</property>
  <property name="meta.attr.ENCODER.markup">Lavf61.1.100</property>
  <property name="seekable">1</property>
  <property name="meta.media.sample_aspect_num">1</property>
  <property name="meta.media.sample_aspect_den">1</property>
  <property name="format">3</property>
  <property name="audio_index">1</property>
  <property name="video_index">0</property>
  <property name="vstream">0</property>
  <property name="meta.media.frame_rate_num">30</property>
  <property name="meta.media.frame_rate_den">1</property>
  <property name="meta.media.colorspace">709</property>
  <property name="meta.media.color_trc">1</property>
  <property name="meta.media.has_b_frames">1</property>
  <property name="meta.media.width">1280</property>
  <property name="meta.media.height">720</property>
  <property name="meta.media.aspect_ratio">1</property>
  <property name="meta.media.color_range">mpeg</property>
  <property name="astream">0</property>
  <property name="meta.media.top_field_first">0</property>
  <property name="meta.media.progressive">1</property>
  <property name="kdenlive:control_uuid">{b4b7ef7b-6c4a-4b08-a377-82f97851f00f}</property>
  <property name="kdenlive:id">21</property>
  <property name="kdenlive:clip_type">0</property>
  <property name="kdenlive:file_size">7738540</property>
  <property name="kdenlive:file_hash">7a4d596f8fcab84422354f9a0646c586</property>
  <property name="kdenlive:folderid">-1</property>
  <property name="kdenlive:audio_max1">57</property>
 </chain>
 <chain id="chain32" out="00:00:22.600">
  <property name="length">679</property>
  <property name="eof">pause</property>
  <property name="resource">2024-11-08 22-32-42.mkv</property>
  <property name="mlt_service">avformat</property>
  <property name="meta.media.nb_streams">2</property>
  <property name="meta.media.0.stream.type">video</property>
  <property name="meta.media.0.stream.frame_rate">30</property>
  <property name="meta.media.0.stream.sample_aspect_ratio">0</property>
  <property name="meta.media.0.codec.width">1280</property>
  <property name="meta.media.0.codec.height">720</property>
  <property name="meta.media.0.codec.rotate">0</property>
  <property name="meta.media.0.codec.pix_fmt">yuv420p</property>
  <property name="meta.media.0.codec.sample_aspect_ratio">1</property>
  <property name="meta.media.0.codec.colorspace">709</property>
  <property name="meta.media.0.codec.color_trc">1</property>
  <property name="meta.media.0.codec.name">h264</property>
  <property name="meta.media.0.codec.long_name">H.264 / AVC / MPEG-4 AVC / MPEG-4 part 10</property>
  <property name="meta.media.0.codec.bit_rate">0</property>
  <property name="meta.attr.0.stream.DURATION.markup">00:00:22.633000000</property>
  <property name="meta.media.1.stream.type">audio</property>
  <property name="meta.media.1.codec.sample_fmt">fltp</property>
  <property name="meta.media.1.codec.sample_rate">48000</property>
  <property name="meta.media.1.codec.channels">2</property>
  <property name="meta.media.1.codec.layout">stereo</property>
  <property name="meta.media.1.codec.name">aac</property>
  <property name="meta.media.1.codec.long_name">AAC (Advanced Audio Coding)</property>
  <property name="meta.media.1.codec.bit_rate">0</property>
  <property name="meta.attr.1.stream.title.markup">simple_aac</property>
  <property name="meta.attr.1.stream.DURATION.markup">00:00:22.549000000</property>
  <property name="meta.attr.ENCODER.markup">Lavf61.1.100</property>
  <property name="seekable">1</property>
  <property name="meta.media.sample_aspect_num">1</property>
  <property name="meta.media.sample_aspect_den">1</property>
  <property name="format">3</property>
  <property name="audio_index">1</property>
  <property name="video_index">0</property>
  <property name="vstream">0</property>
  <property name="meta.media.frame_rate_num">30</property>
  <property name="meta.media.frame_rate_den">1</property>
  <property name="meta.media.colorspace">709</property>
  <property name="meta.media.color_trc">1</property>
  <property name="meta.media.has_b_frames">1</property>
  <property name="meta.media.width">1280</property>
  <property name="meta.media.height">720</property>
  <property name="meta.media.aspect_ratio">1</property>
  <property name="meta.media.color_range">mpeg</property>
  <property name="astream">0</property>
  <property name="meta.media.top_field_first">0</property>
  <property name="meta.media.progressive">1</property>
  <property name="kdenlive:control_uuid">{8d518ee7-ab5b-4742-bf7b-ee0e13b8d61d}</property>
  <property name="kdenlive:id">23</property>
  <property name="kdenlive:clip_type">0</property>
  <property name="kdenlive:file_size">7527886</property>
  <property name="kdenlive:file_hash">990a111df125c0ff4c432956d12309de</property>
  <property name="kdenlive:folderid">-1</property>
  <property name="kdenlive:audio_max1">67</property>
  <property name="kdenlive:monitorPosition">553</property>
 </chain>
 <chain id="chain33" out="00:01:55.700">
  <property name="length">3472</property>
  <property name="eof">pause</property>
  <property name="resource">2024-11-08 22-29-50.mkv</property>
  <property name="mlt_service">avformat</property>
  <property name="meta.media.nb_streams">2</property>
  <property name="meta.media.0.stream.type">video</property>
  <property name="meta.media.0.stream.frame_rate">30</property>
  <property name="meta.media.0.stream.sample_aspect_ratio">0</property>
  <property name="meta.media.0.codec.width">1280</property>
  <property name="meta.media.0.codec.height">720</property>
  <property name="meta.media.0.codec.rotate">0</property>
  <property name="meta.media.0.codec.pix_fmt">yuv420p</property>
  <property name="meta.media.0.codec.sample_aspect_ratio">1</property>
  <property name="meta.media.0.codec.colorspace">709</property>
  <property name="meta.media.0.codec.color_trc">1</property>
  <property name="meta.media.0.codec.name">h264</property>
  <property name="meta.media.0.codec.long_name">H.264 / AVC / MPEG-4 AVC / MPEG-4 part 10</property>
  <property name="meta.media.0.codec.bit_rate">0</property>
  <property name="meta.attr.0.stream.DURATION.markup">00:01:55.733000000</property>
  <property name="meta.media.1.stream.type">audio</property>
  <property name="meta.media.1.codec.sample_fmt">fltp</property>
  <property name="meta.media.1.codec.sample_rate">48000</property>
  <property name="meta.media.1.codec.channels">2</property>
  <property name="meta.media.1.codec.layout">stereo</property>
  <property name="meta.media.1.codec.name">aac</property>
  <property name="meta.media.1.codec.long_name">AAC (Advanced Audio Coding)</property>
  <property name="meta.media.1.codec.bit_rate">0</property>
  <property name="meta.attr.1.stream.title.markup">simple_aac</property>
  <property name="meta.attr.1.stream.DURATION.markup">00:01:55.605000000</property>
  <property name="meta.attr.ENCODER.markup">Lavf61.1.100</property>
  <property name="seekable">1</property>
  <property name="meta.media.sample_aspect_num">1</property>
  <property name="meta.media.sample_aspect_den">1</property>
  <property name="format">3</property>
  <property name="audio_index">1</property>
  <property name="video_index">0</property>
  <property name="vstream">0</property>
  <property name="meta.media.frame_rate_num">30</property>
  <property name="meta.media.frame_rate_den">1</property>
  <property name="meta.media.colorspace">709</property>
  <property name="meta.media.color_trc">1</property>
  <property name="meta.media.has_b_frames">1</property>
  <property name="meta.media.width">1280</property>
  <property name="meta.media.height">720</property>
  <property name="meta.media.aspect_ratio">1</property>
  <property name="meta.media.color_range">mpeg</property>
  <property name="astream">0</property>
  <property name="meta.media.top_field_first">0</property>
  <property name="meta.media.progressive">1</property>
  <property name="kdenlive:control_uuid">{ac2c5f4b-3d13-47e2-9922-975f7c3bf3bc}</property>
  <property name="kdenlive:id">31</property>
  <property name="kdenlive:clip_type">0</property>
  <property name="kdenlive:file_size">38525946</property>
  <property name="kdenlive:file_hash">d65240bbb916cb5a5f506ab90d0f0720</property>
  <property name="kdenlive:folderid">-1</property>
  <property name="kdenlive:audio_max1">72</property>
  <property name="kdenlive:monitorPosition">1232</property>
 </chain>
 <chain id="chain34" out="00:00:12.900">
  <property name="length">388</property>
  <property name="eof">pause</property>
  <property name="resource">2024-11-08 22-29-08.mkv</property>
  <property name="mlt_service">avformat</property>
  <property name="meta.media.nb_streams">2</property>
  <property name="meta.media.0.stream.type">video</property>
  <property name="meta.media.0.stream.frame_rate">30</property>
  <property name="meta.media.0.stream.sample_aspect_ratio">0</property>
  <property name="meta.media.0.codec.width">1280</property>
  <property name="meta.media.0.codec.height">720</property>
  <property name="meta.media.0.codec.rotate">0</property>
  <property name="meta.media.0.codec.pix_fmt">yuv420p</property>
  <property name="meta.media.0.codec.sample_aspect_ratio">1</property>
  <property name="meta.media.0.codec.colorspace">709</property>
  <property name="meta.media.0.codec.color_trc">1</property>
  <property name="meta.media.0.codec.name">h264</property>
  <property name="meta.media.0.codec.long_name">H.264 / AVC / MPEG-4 AVC / MPEG-4 part 10</property>
  <property name="meta.media.0.codec.bit_rate">0</property>
  <property name="meta.attr.0.stream.DURATION.markup">00:00:12.933000000</property>
  <property name="meta.media.1.stream.type">audio</property>
  <property name="meta.media.1.codec.sample_fmt">fltp</property>
  <property name="meta.media.1.codec.sample_rate">48000</property>
  <property name="meta.media.1.codec.channels">2</property>
  <property name="meta.media.1.codec.layout">stereo</property>
  <property name="meta.media.1.codec.name">aac</property>
  <property name="meta.media.1.codec.long_name">AAC (Advanced Audio Coding)</property>
  <property name="meta.media.1.codec.bit_rate">0</property>
  <property name="meta.attr.1.stream.title.markup">simple_aac</property>
  <property name="meta.attr.1.stream.DURATION.markup">00:00:12.800000000</property>
  <property name="meta.attr.ENCODER.markup">Lavf61.1.100</property>
  <property name="seekable">1</property>
  <property name="meta.media.sample_aspect_num">1</property>
  <property name="meta.media.sample_aspect_den">1</property>
  <property name="format">3</property>
  <property name="audio_index">1</property>
  <property name="video_index">0</property>
  <property name="vstream">0</property>
  <property name="meta.media.frame_rate_num">30</property>
  <property name="meta.media.frame_rate_den">1</property>
  <property name="meta.media.colorspace">709</property>
  <property name="meta.media.color_trc">1</property>
  <property name="meta.media.has_b_frames">1</property>
  <property name="meta.media.width">1280</property>
  <property name="meta.media.height">720</property>
  <property name="meta.media.aspect_ratio">1</property>
  <property name="meta.media.color_range">mpeg</property>
  <property name="astream">0</property>
  <property name="meta.media.top_field_first">0</property>
  <property name="meta.media.progressive">1</property>
  <property name="kdenlive:control_uuid">{1eb5b5fe-a5fa-4506-b8f1-7a3b9f0bfe0b}</property>
  <property name="kdenlive:id">32</property>
  <property name="kdenlive:clip_type">0</property>
  <property name="kdenlive:file_size">4285551</property>
  <property name="kdenlive:file_hash">5e8716636b9dddece170a8aca65362e3</property>
  <property name="kdenlive:folderid">-1</property>
  <property name="kdenlive:audio_max1">61</property>
  <property name="kdenlive:monitorPosition">379</property>
 </chain>
 <chain id="chain35" out="00:00:35.500">
  <property name="length">1066</property>
  <property name="eof">pause</property>
  <property name="resource">2024-11-08 22-27-49.mkv</property>
  <property name="mlt_service">avformat</property>
  <property name="meta.media.nb_streams">2</property>
  <property name="meta.media.0.stream.type">video</property>
  <property name="meta.media.0.stream.frame_rate">30</property>
  <property name="meta.media.0.stream.sample_aspect_ratio">0</property>
  <property name="meta.media.0.codec.width">1280</property>
  <property name="meta.media.0.codec.height">720</property>
  <property name="meta.media.0.codec.rotate">0</property>
  <property name="meta.media.0.codec.pix_fmt">yuv420p</property>
  <property name="meta.media.0.codec.sample_aspect_ratio">1</property>
  <property name="meta.media.0.codec.colorspace">709</property>
  <property name="meta.media.0.codec.color_trc">1</property>
  <property name="meta.media.0.codec.name">h264</property>
  <property name="meta.media.0.codec.long_name">H.264 / AVC / MPEG-4 AVC / MPEG-4 part 10</property>
  <property name="meta.media.0.codec.bit_rate">0</property>
  <property name="meta.attr.0.stream.DURATION.markup">00:00:35.533000000</property>
  <property name="meta.media.1.stream.type">audio</property>
  <property name="meta.media.1.codec.sample_fmt">fltp</property>
  <property name="meta.media.1.codec.sample_rate">48000</property>
  <property name="meta.media.1.codec.channels">2</property>
  <property name="meta.media.1.codec.layout">stereo</property>
  <property name="meta.media.1.codec.name">aac</property>
  <property name="meta.media.1.codec.long_name">AAC (Advanced Audio Coding)</property>
  <property name="meta.media.1.codec.bit_rate">0</property>
  <property name="meta.attr.1.stream.title.markup">simple_aac</property>
  <property name="meta.attr.1.stream.DURATION.markup">00:00:35.477000000</property>
  <property name="meta.attr.ENCODER.markup">Lavf61.1.100</property>
  <property name="seekable">1</property>
  <property name="meta.media.sample_aspect_num">1</property>
  <property name="meta.media.sample_aspect_den">1</property>
  <property name="format">3</property>
  <property name="audio_index">1</property>
  <property name="video_index">0</property>
  <property name="vstream">0</property>
  <property name="meta.media.frame_rate_num">30</property>
  <property name="meta.media.frame_rate_den">1</property>
  <property name="meta.media.colorspace">709</property>
  <property name="meta.media.color_trc">1</property>
  <property name="meta.media.has_b_frames">1</property>
  <property name="meta.media.width">1280</property>
  <property name="meta.media.height">720</property>
  <property name="meta.media.aspect_ratio">1</property>
  <property name="meta.media.color_range">mpeg</property>
  <property name="astream">0</property>
  <property name="meta.media.top_field_first">0</property>
  <property name="meta.media.progressive">1</property>
  <property name="kdenlive:control_uuid">{68488b27-462f-44cf-971d-2f9af29d98f5}</property>
  <property name="kdenlive:id">38</property>
  <property name="kdenlive:clip_type">0</property>
  <property name="kdenlive:file_size">11835212</property>
  <property name="kdenlive:file_hash">a24d75ffa0e1603f6d2cd238b417c111</property>
  <property name="kdenlive:folderid">-1</property>
  <property name="kdenlive:audio_max1">64</property>
  <property name="kdenlive:monitorPosition">228</property>
 </chain>
 <chain id="chain36" out="00:00:54.700">
  <property name="length">1642</property>
  <property name="eof">pause</property>
  <property name="resource">2024-11-08 22-25-51.mkv</property>
  <property name="mlt_service">avformat</property>
  <property name="meta.media.nb_streams">2</property>
  <property name="meta.media.0.stream.type">video</property>
  <property name="meta.media.0.stream.frame_rate">30</property>
  <property name="meta.media.0.stream.sample_aspect_ratio">0</property>
  <property name="meta.media.0.codec.width">1280</property>
  <property name="meta.media.0.codec.height">720</property>
  <property name="meta.media.0.codec.rotate">0</property>
  <property name="meta.media.0.codec.pix_fmt">yuv420p</property>
  <property name="meta.media.0.codec.sample_aspect_ratio">1</property>
  <property name="meta.media.0.codec.colorspace">709</property>
  <property name="meta.media.0.codec.color_trc">1</property>
  <property name="meta.media.0.codec.name">h264</property>
  <property name="meta.media.0.codec.long_name">H.264 / AVC / MPEG-4 AVC / MPEG-4 part 10</property>
  <property name="meta.media.0.codec.bit_rate">0</property>
  <property name="meta.attr.0.stream.DURATION.markup">00:00:54.733000000</property>
  <property name="meta.media.1.stream.type">audio</property>
  <property name="meta.media.1.codec.sample_fmt">fltp</property>
  <property name="meta.media.1.codec.sample_rate">48000</property>
  <property name="meta.media.1.codec.channels">2</property>
  <property name="meta.media.1.codec.layout">stereo</property>
  <property name="meta.media.1.codec.name">aac</property>
  <property name="meta.media.1.codec.long_name">AAC (Advanced Audio Coding)</property>
  <property name="meta.media.1.codec.bit_rate">0</property>
  <property name="meta.attr.1.stream.title.markup">simple_aac</property>
  <property name="meta.attr.1.stream.DURATION.markup">00:00:54.613000000</property>
  <property name="meta.attr.ENCODER.markup">Lavf61.1.100</property>
  <property name="seekable">1</property>
  <property name="meta.media.sample_aspect_num">1</property>
  <property name="meta.media.sample_aspect_den">1</property>
  <property name="format">3</property>
  <property name="audio_index">1</property>
  <property name="video_index">0</property>
  <property name="vstream">0</property>
  <property name="meta.media.frame_rate_num">30</property>
  <property name="meta.media.frame_rate_den">1</property>
  <property name="meta.media.colorspace">709</property>
  <property name="meta.media.color_trc">1</property>
  <property name="meta.media.has_b_frames">1</property>
  <property name="meta.media.width">1280</property>
  <property name="meta.media.height">720</property>
  <property name="meta.media.aspect_ratio">1</property>
  <property name="meta.media.color_range">mpeg</property>
  <property name="astream">0</property>
  <property name="meta.media.top_field_first">0</property>
  <property name="meta.media.progressive">1</property>
  <property name="kdenlive:control_uuid">{27acb461-9263-4f66-a4f3-e373e67a6518}</property>
  <property name="kdenlive:id">43</property>
  <property name="kdenlive:clip_type">0</property>
  <property name="kdenlive:file_size">18212247</property>
  <property name="kdenlive:file_hash">b805144aaf18e413fcc52414039c28cd</property>
  <property name="kdenlive:folderid">-1</property>
  <property name="kdenlive:audio_max1">62</property>
  <property name="kdenlive:monitorPosition">62</property>
 </chain>
 <chain id="chain37" out="00:00:42.900">
  <property name="length">1288</property>
  <property name="eof">pause</property>
  <property name="resource">2024-11-08 22-24-31.mkv</property>
  <property name="mlt_service">avformat</property>
  <property name="meta.media.nb_streams">2</property>
  <property name="meta.media.0.stream.type">video</property>
  <property name="meta.media.0.stream.frame_rate">30</property>
  <property name="meta.media.0.stream.sample_aspect_ratio">0</property>
  <property name="meta.media.0.codec.width">1280</property>
  <property name="meta.media.0.codec.height">720</property>
  <property name="meta.media.0.codec.rotate">0</property>
  <property name="meta.media.0.codec.pix_fmt">yuv420p</property>
  <property name="meta.media.0.codec.sample_aspect_ratio">1</property>
  <property name="meta.media.0.codec.colorspace">709</property>
  <property name="meta.media.0.codec.color_trc">1</property>
  <property name="meta.media.0.codec.name">h264</property>
  <property name="meta.media.0.codec.long_name">H.264 / AVC / MPEG-4 AVC / MPEG-4 part 10</property>
  <property name="meta.media.0.codec.bit_rate">0</property>
  <property name="meta.attr.0.stream.DURATION.markup">00:00:42.933000000</property>
  <property name="meta.media.1.stream.type">audio</property>
  <property name="meta.media.1.codec.sample_fmt">fltp</property>
  <property name="meta.media.1.codec.sample_rate">48000</property>
  <property name="meta.media.1.codec.channels">2</property>
  <property name="meta.media.1.codec.layout">stereo</property>
  <property name="meta.media.1.codec.name">aac</property>
  <property name="meta.media.1.codec.long_name">AAC (Advanced Audio Coding)</property>
  <property name="meta.media.1.codec.bit_rate">0</property>
  <property name="meta.attr.1.stream.title.markup">simple_aac</property>
  <property name="meta.attr.1.stream.DURATION.markup">00:00:42.816000000</property>
  <property name="meta.attr.ENCODER.markup">Lavf61.1.100</property>
  <property name="seekable">1</property>
  <property name="meta.media.sample_aspect_num">1</property>
  <property name="meta.media.sample_aspect_den">1</property>
  <property name="format">3</property>
  <property name="audio_index">1</property>
  <property name="video_index">0</property>
  <property name="vstream">0</property>
  <property name="meta.media.frame_rate_num">30</property>
  <property name="meta.media.frame_rate_den">1</property>
  <property name="meta.media.colorspace">709</property>
  <property name="meta.media.color_trc">1</property>
  <property name="meta.media.has_b_frames">1</property>
  <property name="meta.media.width">1280</property>
  <property name="meta.media.height">720</property>
  <property name="meta.media.aspect_ratio">1</property>
  <property name="meta.media.color_range">mpeg</property>
  <property name="astream">0</property>
  <property name="meta.media.top_field_first">0</property>
  <property name="meta.media.progressive">1</property>
  <property name="kdenlive:control_uuid">{2929d188-55e8-4247-b71c-741b2b6ffde0}</property>
  <property name="kdenlive:id">46</property>
  <property name="kdenlive:clip_type">0</property>
  <property name="kdenlive:file_size">14323625</property>
  <property name="kdenlive:file_hash">1b38ae47577e76c8050a07a65a36eb01</property>
  <property name="kdenlive:folderid">-1</property>
  <property name="kdenlive:audio_max1">59</property>
  <property name="kdenlive:monitorPosition">105</property>
 </chain>
 <chain id="chain38" out="00:00:37.200">
  <property name="length">1117</property>
  <property name="eof">pause</property>
  <property name="resource">2024-11-08 22-45-51.mkv</property>
  <property name="mlt_service">avformat-novalidate</property>
  <property name="meta.media.nb_streams">2</property>
  <property name="meta.media.0.stream.type">video</property>
  <property name="meta.media.0.stream.frame_rate">30</property>
  <property name="meta.media.0.stream.sample_aspect_ratio">0</property>
  <property name="meta.media.0.codec.width">1280</property>
  <property name="meta.media.0.codec.height">720</property>
  <property name="meta.media.0.codec.rotate">0</property>
  <property name="meta.media.0.codec.pix_fmt">yuv420p</property>
  <property name="meta.media.0.codec.sample_aspect_ratio">1</property>
  <property name="meta.media.0.codec.colorspace">709</property>
  <property name="meta.media.0.codec.color_trc">1</property>
  <property name="meta.media.0.codec.name">h264</property>
  <property name="meta.media.0.codec.long_name">H.264 / AVC / MPEG-4 AVC / MPEG-4 part 10</property>
  <property name="meta.media.0.codec.bit_rate">0</property>
  <property name="meta.attr.0.stream.DURATION.markup">00:00:37.233000000</property>
  <property name="meta.media.1.stream.type">audio</property>
  <property name="meta.media.1.codec.sample_fmt">fltp</property>
  <property name="meta.media.1.codec.sample_rate">48000</property>
  <property name="meta.media.1.codec.channels">2</property>
  <property name="meta.media.1.codec.layout">stereo</property>
  <property name="meta.media.1.codec.name">aac</property>
  <property name="meta.media.1.codec.long_name">AAC (Advanced Audio Coding)</property>
  <property name="meta.media.1.codec.bit_rate">0</property>
  <property name="meta.attr.1.stream.title.markup">simple_aac</property>
  <property name="meta.attr.1.stream.DURATION.markup">00:00:37.141000000</property>
  <property name="meta.attr.ENCODER.markup">Lavf61.1.100</property>
  <property name="seekable">1</property>
  <property name="meta.media.sample_aspect_num">1</property>
  <property name="meta.media.sample_aspect_den">1</property>
  <property name="format">3</property>
  <property name="audio_index">1</property>
  <property name="video_index">0</property>
  <property name="vstream">0</property>
  <property name="meta.media.frame_rate_num">30</property>
  <property name="meta.media.frame_rate_den">1</property>
  <property name="meta.media.colorspace">709</property>
  <property name="meta.media.color_trc">1</property>
  <property name="meta.media.has_b_frames">1</property>
  <property name="meta.media.width">1280</property>
  <property name="meta.media.height">720</property>
  <property name="meta.media.aspect_ratio">1</property>
  <property name="meta.media.color_range">mpeg</property>
  <property name="astream">0</property>
  <property name="meta.media.top_field_first">0</property>
  <property name="meta.media.progressive">1</property>
  <property name="kdenlive:folderid">-1</property>
  <property name="kdenlive:id">48</property>
  <property name="kdenlive:control_uuid">{cb7e2b91-a38a-46b4-9c89-16f03f3fafcf}</property>
  <property name="mute_on_pause">0</property>
  <property name="kdenlive:clip_type">0</property>
  <property name="kdenlive:file_size">12390197</property>
  <property name="kdenlive:file_hash">7959f34c6cb9b32f41ae96c8c1822cec</property>
  <property name="kdenlive:audio_max1">72</property>
  <property name="kdenlive:monitorPosition">656</property>
 </chain>
 <chain id="chain39" out="00:00:12.300">
  <property name="length">370</property>
  <property name="eof">pause</property>
  <property name="resource">2024-11-08 22-45-04.mkv</property>
  <property name="mlt_service">avformat-novalidate</property>
  <property name="meta.media.nb_streams">2</property>
  <property name="meta.media.0.stream.type">video</property>
  <property name="meta.media.0.stream.frame_rate">30</property>
  <property name="meta.media.0.stream.sample_aspect_ratio">0</property>
  <property name="meta.media.0.codec.width">1280</property>
  <property name="meta.media.0.codec.height">720</property>
  <property name="meta.media.0.codec.rotate">0</property>
  <property name="meta.media.0.codec.pix_fmt">yuv420p</property>
  <property name="meta.media.0.codec.sample_aspect_ratio">1</property>
  <property name="meta.media.0.codec.colorspace">709</property>
  <property name="meta.media.0.codec.color_trc">1</property>
  <property name="meta.media.0.codec.name">h264</property>
  <property name="meta.media.0.codec.long_name">H.264 / AVC / MPEG-4 AVC / MPEG-4 part 10</property>
  <property name="meta.media.0.codec.bit_rate">0</property>
  <property name="meta.attr.0.stream.DURATION.markup">00:00:12.333000000</property>
  <property name="meta.media.1.stream.type">audio</property>
  <property name="meta.media.1.codec.sample_fmt">fltp</property>
  <property name="meta.media.1.codec.sample_rate">48000</property>
  <property name="meta.media.1.codec.channels">2</property>
  <property name="meta.media.1.codec.layout">stereo</property>
  <property name="meta.media.1.codec.name">aac</property>
  <property name="meta.media.1.codec.long_name">AAC (Advanced Audio Coding)</property>
  <property name="meta.media.1.codec.bit_rate">0</property>
  <property name="meta.attr.1.stream.title.markup">simple_aac</property>
  <property name="meta.attr.1.stream.DURATION.markup">00:00:12.245000000</property>
  <property name="meta.attr.ENCODER.markup">Lavf61.1.100</property>
  <property name="seekable">1</property>
  <property name="meta.media.sample_aspect_num">1</property>
  <property name="meta.media.sample_aspect_den">1</property>
  <property name="format">3</property>
  <property name="audio_index">1</property>
  <property name="video_index">0</property>
  <property name="vstream">0</property>
  <property name="meta.media.frame_rate_num">30</property>
  <property name="meta.media.frame_rate_den">1</property>
  <property name="meta.media.colorspace">709</property>
  <property name="meta.media.color_trc">1</property>
  <property name="meta.media.has_b_frames">1</property>
  <property name="meta.media.width">1280</property>
  <property name="meta.media.height">720</property>
  <property name="meta.media.aspect_ratio">1</property>
  <property name="meta.media.color_range">mpeg</property>
  <property name="astream">0</property>
  <property name="meta.media.top_field_first">0</property>
  <property name="meta.media.progressive">1</property>
  <property name="kdenlive:folderid">-1</property>
  <property name="kdenlive:id">51</property>
  <property name="kdenlive:control_uuid">{b9187050-c28c-474c-b8f2-b70ae480225c}</property>
  <property name="mute_on_pause">0</property>
  <property name="kdenlive:clip_type">0</property>
  <property name="kdenlive:file_size">4154590</property>
  <property name="kdenlive:file_hash">071ecbd8c628075a4d0a0e25eb722148</property>
  <property name="kdenlive:audio_max1">54</property>
 </chain>
 <chain id="chain40" out="00:00:17.400">
  <property name="length">523</property>
  <property name="eof">pause</property>
  <property name="resource">2024-11-08 22-44-45.mkv</property>
  <property name="mlt_service">avformat-novalidate</property>
  <property name="meta.media.nb_streams">2</property>
  <property name="meta.media.0.stream.type">video</property>
  <property name="meta.media.0.stream.frame_rate">30</property>
  <property name="meta.media.0.stream.sample_aspect_ratio">0</property>
  <property name="meta.media.0.codec.width">1280</property>
  <property name="meta.media.0.codec.height">720</property>
  <property name="meta.media.0.codec.rotate">0</property>
  <property name="meta.media.0.codec.pix_fmt">yuv420p</property>
  <property name="meta.media.0.codec.sample_aspect_ratio">1</property>
  <property name="meta.media.0.codec.colorspace">709</property>
  <property name="meta.media.0.codec.color_trc">1</property>
  <property name="meta.media.0.codec.name">h264</property>
  <property name="meta.media.0.codec.long_name">H.264 / AVC / MPEG-4 AVC / MPEG-4 part 10</property>
  <property name="meta.media.0.codec.bit_rate">0</property>
  <property name="meta.attr.0.stream.DURATION.markup">00:00:17.433000000</property>
  <property name="meta.media.1.stream.type">audio</property>
  <property name="meta.media.1.codec.sample_fmt">fltp</property>
  <property name="meta.media.1.codec.sample_rate">48000</property>
  <property name="meta.media.1.codec.channels">2</property>
  <property name="meta.media.1.codec.layout">stereo</property>
  <property name="meta.media.1.codec.name">aac</property>
  <property name="meta.media.1.codec.long_name">AAC (Advanced Audio Coding)</property>
  <property name="meta.media.1.codec.bit_rate">0</property>
  <property name="meta.attr.1.stream.title.markup">simple_aac</property>
  <property name="meta.attr.1.stream.DURATION.markup">00:00:17.386000000</property>
  <property name="meta.attr.ENCODER.markup">Lavf61.1.100</property>
  <property name="seekable">1</property>
  <property name="meta.media.sample_aspect_num">1</property>
  <property name="meta.media.sample_aspect_den">1</property>
  <property name="format">3</property>
  <property name="audio_index">1</property>
  <property name="video_index">0</property>
  <property name="vstream">0</property>
  <property name="meta.media.frame_rate_num">30</property>
  <property name="meta.media.frame_rate_den">1</property>
  <property name="meta.media.colorspace">709</property>
  <property name="meta.media.color_trc">1</property>
  <property name="meta.media.has_b_frames">1</property>
  <property name="meta.media.width">1280</property>
  <property name="meta.media.height">720</property>
  <property name="meta.media.aspect_ratio">1</property>
  <property name="meta.media.color_range">mpeg</property>
  <property name="astream">0</property>
  <property name="meta.media.top_field_first">0</property>
  <property name="meta.media.progressive">1</property>
  <property name="kdenlive:folderid">-1</property>
  <property name="kdenlive:id">52</property>
  <property name="kdenlive:control_uuid">{6030f783-adc2-4b49-a397-0b11d4c9d2dc}</property>
  <property name="mute_on_pause">0</property>
  <property name="kdenlive:clip_type">0</property>
  <property name="kdenlive:file_size">5806913</property>
  <property name="kdenlive:file_hash">232cf0b78c53c6159377842d448b5a55</property>
  <property name="kdenlive:audio_max1">50</property>
  <property name="kdenlive:monitorPosition">163</property>
 </chain>
 <chain id="chain41" out="00:00:31.400">
  <property name="length">943</property>
  <property name="eof">pause</property>
  <property name="resource">2024-11-08 22-43-33.mkv</property>
  <property name="mlt_service">avformat-novalidate</property>
  <property name="meta.media.nb_streams">2</property>
  <property name="meta.media.0.stream.type">video</property>
  <property name="meta.media.0.stream.frame_rate">30</property>
  <property name="meta.media.0.stream.sample_aspect_ratio">0</property>
  <property name="meta.media.0.codec.width">1280</property>
  <property name="meta.media.0.codec.height">720</property>
  <property name="meta.media.0.codec.rotate">0</property>
  <property name="meta.media.0.codec.pix_fmt">yuv420p</property>
  <property name="meta.media.0.codec.sample_aspect_ratio">1</property>
  <property name="meta.media.0.codec.colorspace">709</property>
  <property name="meta.media.0.codec.color_trc">1</property>
  <property name="meta.media.0.codec.name">h264</property>
  <property name="meta.media.0.codec.long_name">H.264 / AVC / MPEG-4 AVC / MPEG-4 part 10</property>
  <property name="meta.media.0.codec.bit_rate">0</property>
  <property name="meta.attr.0.stream.DURATION.markup">00:00:31.433000000</property>
  <property name="meta.media.1.stream.type">audio</property>
  <property name="meta.media.1.codec.sample_fmt">fltp</property>
  <property name="meta.media.1.codec.sample_rate">48000</property>
  <property name="meta.media.1.codec.channels">2</property>
  <property name="meta.media.1.codec.layout">stereo</property>
  <property name="meta.media.1.codec.name">aac</property>
  <property name="meta.media.1.codec.long_name">AAC (Advanced Audio Coding)</property>
  <property name="meta.media.1.codec.bit_rate">0</property>
  <property name="meta.attr.1.stream.title.markup">simple_aac</property>
  <property name="meta.attr.1.stream.DURATION.markup">00:00:31.338000000</property>
  <property name="meta.attr.ENCODER.markup">Lavf61.1.100</property>
  <property name="seekable">1</property>
  <property name="meta.media.sample_aspect_num">1</property>
  <property name="meta.media.sample_aspect_den">1</property>
  <property name="format">3</property>
  <property name="audio_index">1</property>
  <property name="video_index">0</property>
  <property name="vstream">0</property>
  <property name="meta.media.frame_rate_num">30</property>
  <property name="meta.media.frame_rate_den">1</property>
  <property name="meta.media.colorspace">709</property>
  <property name="meta.media.color_trc">1</property>
  <property name="meta.media.has_b_frames">1</property>
  <property name="meta.media.width">1280</property>
  <property name="meta.media.height">720</property>
  <property name="meta.media.aspect_ratio">1</property>
  <property name="meta.media.color_range">mpeg</property>
  <property name="astream">0</property>
  <property name="meta.media.top_field_first">0</property>
  <property name="meta.media.progressive">1</property>
  <property name="kdenlive:folderid">-1</property>
  <property name="kdenlive:id">57</property>
  <property name="kdenlive:control_uuid">{bd9c004b-0cee-4965-9051-29e615f0fdae}</property>
  <property name="mute_on_pause">0</property>
  <property name="kdenlive:clip_type">0</property>
  <property name="kdenlive:file_size">10458250</property>
  <property name="kdenlive:file_hash">2e51cc64937ae2529a5b1f49d347e9b0</property>
  <property name="kdenlive:audio_max1">59</property>
  <property name="kdenlive:monitorPosition">175</property>
 </chain>
 <chain id="chain42" out="00:00:21.100">
  <property name="length">634</property>
  <property name="eof">pause</property>
  <property name="resource">2024-11-08 22-43-11.mkv</property>
  <property name="mlt_service">avformat-novalidate</property>
  <property name="meta.media.nb_streams">2</property>
  <property name="meta.media.0.stream.type">video</property>
  <property name="meta.media.0.stream.frame_rate">30</property>
  <property name="meta.media.0.stream.sample_aspect_ratio">0</property>
  <property name="meta.media.0.codec.width">1280</property>
  <property name="meta.media.0.codec.height">720</property>
  <property name="meta.media.0.codec.rotate">0</property>
  <property name="meta.media.0.codec.pix_fmt">yuv420p</property>
  <property name="meta.media.0.codec.sample_aspect_ratio">1</property>
  <property name="meta.media.0.codec.colorspace">709</property>
  <property name="meta.media.0.codec.color_trc">1</property>
  <property name="meta.media.0.codec.name">h264</property>
  <property name="meta.media.0.codec.long_name">H.264 / AVC / MPEG-4 AVC / MPEG-4 part 10</property>
  <property name="meta.media.0.codec.bit_rate">0</property>
  <property name="meta.attr.0.stream.DURATION.markup">00:00:21.133000000</property>
  <property name="meta.media.1.stream.type">audio</property>
  <property name="meta.media.1.codec.sample_fmt">fltp</property>
  <property name="meta.media.1.codec.sample_rate">48000</property>
  <property name="meta.media.1.codec.channels">2</property>
  <property name="meta.media.1.codec.layout">stereo</property>
  <property name="meta.media.1.codec.name">aac</property>
  <property name="meta.media.1.codec.long_name">AAC (Advanced Audio Coding)</property>
  <property name="meta.media.1.codec.bit_rate">0</property>
  <property name="meta.attr.1.stream.title.markup">simple_aac</property>
  <property name="meta.attr.1.stream.DURATION.markup">00:00:21.077000000</property>
  <property name="meta.attr.ENCODER.markup">Lavf61.1.100</property>
  <property name="seekable">1</property>
  <property name="meta.media.sample_aspect_num">1</property>
  <property name="meta.media.sample_aspect_den">1</property>
  <property name="format">3</property>
  <property name="audio_index">1</property>
  <property name="video_index">0</property>
  <property name="vstream">0</property>
  <property name="meta.media.frame_rate_num">30</property>
  <property name="meta.media.frame_rate_den">1</property>
  <property name="meta.media.colorspace">709</property>
  <property name="meta.media.color_trc">1</property>
  <property name="meta.media.has_b_frames">1</property>
  <property name="meta.media.width">1280</property>
  <property name="meta.media.height">720</property>
  <property name="meta.media.aspect_ratio">1</property>
  <property name="meta.media.color_range">mpeg</property>
  <property name="astream">0</property>
  <property name="meta.media.top_field_first">0</property>
  <property name="meta.media.progressive">1</property>
  <property name="kdenlive:folderid">-1</property>
  <property name="kdenlive:id">58</property>
  <property name="kdenlive:control_uuid">{d4aa302d-44b5-4979-b61f-295520fb5935}</property>
  <property name="mute_on_pause">0</property>
  <property name="kdenlive:clip_type">0</property>
  <property name="kdenlive:file_size">7038762</property>
  <property name="kdenlive:file_hash">f2a5b6fafc438599185afed205d1053d</property>
  <property name="kdenlive:audio_max1">60</property>
  <property name="kdenlive:monitorPosition">376</property>
 </chain>
 <chain id="chain43" out="00:00:38.500">
  <property name="length">1156</property>
  <property name="eof">pause</property>
  <property name="resource">2024-11-08 22-42-27.mkv</property>
  <property name="mlt_service">avformat-novalidate</property>
  <property name="meta.media.nb_streams">2</property>
  <property name="meta.media.0.stream.type">video</property>
  <property name="meta.media.0.stream.frame_rate">30</property>
  <property name="meta.media.0.stream.sample_aspect_ratio">0</property>
  <property name="meta.media.0.codec.width">1280</property>
  <property name="meta.media.0.codec.height">720</property>
  <property name="meta.media.0.codec.rotate">0</property>
  <property name="meta.media.0.codec.pix_fmt">yuv420p</property>
  <property name="meta.media.0.codec.sample_aspect_ratio">1</property>
  <property name="meta.media.0.codec.colorspace">709</property>
  <property name="meta.media.0.codec.color_trc">1</property>
  <property name="meta.media.0.codec.name">h264</property>
  <property name="meta.media.0.codec.long_name">H.264 / AVC / MPEG-4 AVC / MPEG-4 part 10</property>
  <property name="meta.media.0.codec.bit_rate">0</property>
  <property name="meta.attr.0.stream.DURATION.markup">00:00:38.533000000</property>
  <property name="meta.media.1.stream.type">audio</property>
  <property name="meta.media.1.codec.sample_fmt">fltp</property>
  <property name="meta.media.1.codec.sample_rate">48000</property>
  <property name="meta.media.1.codec.channels">2</property>
  <property name="meta.media.1.codec.layout">stereo</property>
  <property name="meta.media.1.codec.name">aac</property>
  <property name="meta.media.1.codec.long_name">AAC (Advanced Audio Coding)</property>
  <property name="meta.media.1.codec.bit_rate">0</property>
  <property name="meta.attr.1.stream.title.markup">simple_aac</property>
  <property name="meta.attr.1.stream.DURATION.markup">00:00:38.485000000</property>
  <property name="meta.attr.ENCODER.markup">Lavf61.1.100</property>
  <property name="seekable">1</property>
  <property name="meta.media.sample_aspect_num">1</property>
  <property name="meta.media.sample_aspect_den">1</property>
  <property name="format">3</property>
  <property name="audio_index">1</property>
  <property name="video_index">0</property>
  <property name="vstream">0</property>
  <property name="meta.media.frame_rate_num">30</property>
  <property name="meta.media.frame_rate_den">1</property>
  <property name="meta.media.colorspace">709</property>
  <property name="meta.media.color_trc">1</property>
  <property name="meta.media.has_b_frames">1</property>
  <property name="meta.media.width">1280</property>
  <property name="meta.media.height">720</property>
  <property name="meta.media.aspect_ratio">1</property>
  <property name="meta.media.color_range">mpeg</property>
  <property name="astream">0</property>
  <property name="meta.media.top_field_first">0</property>
  <property name="meta.media.progressive">1</property>
  <property name="kdenlive:folderid">-1</property>
  <property name="kdenlive:id">59</property>
  <property name="kdenlive:control_uuid">{81728a52-e807-42be-9849-4a6fafa2d726}</property>
  <property name="mute_on_pause">0</property>
  <property name="kdenlive:clip_type">0</property>
  <property name="kdenlive:file_size">12885503</property>
  <property name="kdenlive:file_hash">e804de783bacc59b44ade86eff91dfbe</property>
  <property name="kdenlive:audio_max1">70</property>
  <property name="kdenlive:monitorPosition">449</property>
 </chain>
 <chain id="chain44" out="00:00:46.700">
  <property name="length">1402</property>
  <property name="eof">pause</property>
  <property name="resource">2024-11-08 22-41-37.mkv</property>
  <property name="mlt_service">avformat-novalidate</property>
  <property name="meta.media.nb_streams">2</property>
  <property name="meta.media.0.stream.type">video</property>
  <property name="meta.media.0.stream.frame_rate">30</property>
  <property name="meta.media.0.stream.sample_aspect_ratio">0</property>
  <property name="meta.media.0.codec.width">1280</property>
  <property name="meta.media.0.codec.height">720</property>
  <property name="meta.media.0.codec.rotate">0</property>
  <property name="meta.media.0.codec.pix_fmt">yuv420p</property>
  <property name="meta.media.0.codec.sample_aspect_ratio">1</property>
  <property name="meta.media.0.codec.colorspace">709</property>
  <property name="meta.media.0.codec.color_trc">1</property>
  <property name="meta.media.0.codec.name">h264</property>
  <property name="meta.media.0.codec.long_name">H.264 / AVC / MPEG-4 AVC / MPEG-4 part 10</property>
  <property name="meta.media.0.codec.bit_rate">0</property>
  <property name="meta.attr.0.stream.DURATION.markup">00:00:46.733000000</property>
  <property name="meta.media.1.stream.type">audio</property>
  <property name="meta.media.1.codec.sample_fmt">fltp</property>
  <property name="meta.media.1.codec.sample_rate">48000</property>
  <property name="meta.media.1.codec.channels">2</property>
  <property name="meta.media.1.codec.layout">stereo</property>
  <property name="meta.media.1.codec.name">aac</property>
  <property name="meta.media.1.codec.long_name">AAC (Advanced Audio Coding)</property>
  <property name="meta.media.1.codec.bit_rate">0</property>
  <property name="meta.attr.1.stream.title.markup">simple_aac</property>
  <property name="meta.attr.1.stream.DURATION.markup">00:00:46.634000000</property>
  <property name="meta.attr.ENCODER.markup">Lavf61.1.100</property>
  <property name="seekable">1</property>
  <property name="meta.media.sample_aspect_num">1</property>
  <property name="meta.media.sample_aspect_den">1</property>
  <property name="format">3</property>
  <property name="audio_index">1</property>
  <property name="video_index">0</property>
  <property name="vstream">0</property>
  <property name="meta.media.frame_rate_num">30</property>
  <property name="meta.media.frame_rate_den">1</property>
  <property name="meta.media.colorspace">709</property>
  <property name="meta.media.color_trc">1</property>
  <property name="meta.media.has_b_frames">1</property>
  <property name="meta.media.width">1280</property>
  <property name="meta.media.height">720</property>
  <property name="meta.media.aspect_ratio">1</property>
  <property name="meta.media.color_range">mpeg</property>
  <property name="astream">0</property>
  <property name="meta.media.top_field_first">0</property>
  <property name="meta.media.progressive">1</property>
  <property name="kdenlive:folderid">-1</property>
  <property name="kdenlive:id">60</property>
  <property name="kdenlive:control_uuid">{883883da-2f4a-4f2a-9424-bf0c6a906a44}</property>
  <property name="mute_on_pause">0</property>
  <property name="kdenlive:clip_type">0</property>
  <property name="kdenlive:file_size">15576245</property>
  <property name="kdenlive:file_hash">f3fee7106fc61a3973ca7f3e95e2a1f2</property>
  <property name="kdenlive:audio_max1">64</property>
  <property name="kdenlive:monitorPosition">105</property>
 </chain>
 <chain id="chain45" out="00:00:22.200">
  <property name="length">667</property>
  <property name="eof">pause</property>
  <property name="resource">2024-11-08 22-41-10.mkv</property>
  <property name="mlt_service">avformat-novalidate</property>
  <property name="meta.media.nb_streams">2</property>
  <property name="meta.media.0.stream.type">video</property>
  <property name="meta.media.0.stream.frame_rate">30</property>
  <property name="meta.media.0.stream.sample_aspect_ratio">0</property>
  <property name="meta.media.0.codec.width">1280</property>
  <property name="meta.media.0.codec.height">720</property>
  <property name="meta.media.0.codec.rotate">0</property>
  <property name="meta.media.0.codec.pix_fmt">yuv420p</property>
  <property name="meta.media.0.codec.sample_aspect_ratio">1</property>
  <property name="meta.media.0.codec.colorspace">709</property>
  <property name="meta.media.0.codec.color_trc">1</property>
  <property name="meta.media.0.codec.name">h264</property>
  <property name="meta.media.0.codec.long_name">H.264 / AVC / MPEG-4 AVC / MPEG-4 part 10</property>
  <property name="meta.media.0.codec.bit_rate">0</property>
  <property name="meta.attr.0.stream.DURATION.markup">00:00:22.233000000</property>
  <property name="meta.media.1.stream.type">audio</property>
  <property name="meta.media.1.codec.sample_fmt">fltp</property>
  <property name="meta.media.1.codec.sample_rate">48000</property>
  <property name="meta.media.1.codec.channels">2</property>
  <property name="meta.media.1.codec.layout">stereo</property>
  <property name="meta.media.1.codec.name">aac</property>
  <property name="meta.media.1.codec.long_name">AAC (Advanced Audio Coding)</property>
  <property name="meta.media.1.codec.bit_rate">0</property>
  <property name="meta.attr.1.stream.title.markup">simple_aac</property>
  <property name="meta.attr.1.stream.DURATION.markup">00:00:22.101000000</property>
  <property name="meta.attr.ENCODER.markup">Lavf61.1.100</property>
  <property name="seekable">1</property>
  <property name="meta.media.sample_aspect_num">1</property>
  <property name="meta.media.sample_aspect_den">1</property>
  <property name="format">3</property>
  <property name="audio_index">1</property>
  <property name="video_index">0</property>
  <property name="vstream">0</property>
  <property name="meta.media.frame_rate_num">30</property>
  <property name="meta.media.frame_rate_den">1</property>
  <property name="meta.media.colorspace">709</property>
  <property name="meta.media.color_trc">1</property>
  <property name="meta.media.has_b_frames">1</property>
  <property name="meta.media.width">1280</property>
  <property name="meta.media.height">720</property>
  <property name="meta.media.aspect_ratio">1</property>
  <property name="meta.media.color_range">mpeg</property>
  <property name="astream">0</property>
  <property name="meta.media.top_field_first">0</property>
  <property name="meta.media.progressive">1</property>
  <property name="kdenlive:folderid">-1</property>
  <property name="kdenlive:id">61</property>
  <property name="kdenlive:control_uuid">{faf66759-9035-4830-8d40-6b1dc4a3c280}</property>
  <property name="mute_on_pause">0</property>
  <property name="kdenlive:clip_type">0</property>
  <property name="kdenlive:file_size">7475967</property>
  <property name="kdenlive:file_hash">ca22b8b87d7deb4bb0140048c5772097</property>
  <property name="kdenlive:audio_max1">54</property>
  <property name="kdenlive:monitorPosition">148</property>
 </chain>
 <chain id="chain46" out="00:00:03.100">
  <property name="length">94</property>
  <property name="eof">pause</property>
  <property name="resource">2024-11-08 22-40-58.mkv</property>
  <property name="mlt_service">avformat-novalidate</property>
  <property name="meta.media.nb_streams">2</property>
  <property name="meta.media.0.stream.type">video</property>
  <property name="meta.media.0.stream.frame_rate">30</property>
  <property name="meta.media.0.stream.sample_aspect_ratio">0</property>
  <property name="meta.media.0.codec.width">1280</property>
  <property name="meta.media.0.codec.height">720</property>
  <property name="meta.media.0.codec.rotate">0</property>
  <property name="meta.media.0.codec.pix_fmt">yuv420p</property>
  <property name="meta.media.0.codec.sample_aspect_ratio">1</property>
  <property name="meta.media.0.codec.colorspace">709</property>
  <property name="meta.media.0.codec.color_trc">1</property>
  <property name="meta.media.0.codec.name">h264</property>
  <property name="meta.media.0.codec.long_name">H.264 / AVC / MPEG-4 AVC / MPEG-4 part 10</property>
  <property name="meta.media.0.codec.bit_rate">0</property>
  <property name="meta.attr.0.stream.DURATION.markup">00:00:03.133000000</property>
  <property name="meta.media.1.stream.type">audio</property>
  <property name="meta.media.1.codec.sample_fmt">fltp</property>
  <property name="meta.media.1.codec.sample_rate">48000</property>
  <property name="meta.media.1.codec.channels">2</property>
  <property name="meta.media.1.codec.layout">stereo</property>
  <property name="meta.media.1.codec.name">aac</property>
  <property name="meta.media.1.codec.long_name">AAC (Advanced Audio Coding)</property>
  <property name="meta.media.1.codec.bit_rate">0</property>
  <property name="meta.attr.1.stream.title.markup">simple_aac</property>
  <property name="meta.attr.1.stream.DURATION.markup">00:00:03.050000000</property>
  <property name="meta.attr.ENCODER.markup">Lavf61.1.100</property>
  <property name="seekable">1</property>
  <property name="meta.media.sample_aspect_num">1</property>
  <property name="meta.media.sample_aspect_den">1</property>
  <property name="format">3</property>
  <property name="audio_index">1</property>
  <property name="video_index">0</property>
  <property name="vstream">0</property>
  <property name="meta.media.frame_rate_num">30</property>
  <property name="meta.media.frame_rate_den">1</property>
  <property name="meta.media.colorspace">709</property>
  <property name="meta.media.color_trc">1</property>
  <property name="meta.media.has_b_frames">1</property>
  <property name="meta.media.width">1280</property>
  <property name="meta.media.height">720</property>
  <property name="meta.media.aspect_ratio">1</property>
  <property name="meta.media.color_range">mpeg</property>
  <property name="astream">0</property>
  <property name="meta.media.top_field_first">0</property>
  <property name="meta.media.progressive">1</property>
  <property name="kdenlive:folderid">-1</property>
  <property name="kdenlive:id">63</property>
  <property name="kdenlive:control_uuid">{e563b25d-dd1f-4d11-9bd8-771531642f34}</property>
  <property name="mute_on_pause">0</property>
  <property name="kdenlive:clip_type">0</property>
  <property name="kdenlive:file_size">1033058</property>
  <property name="kdenlive:file_hash">32017d45279e1ceb6441849df54ee188</property>
  <property name="kdenlive:audio_max1">49</property>
 </chain>
 <chain id="chain47" out="00:00:10.700">
  <property name="length">322</property>
  <property name="eof">pause</property>
  <property name="resource">2024-11-08 22-40-46.mkv</property>
  <property name="mlt_service">avformat-novalidate</property>
  <property name="meta.media.nb_streams">2</property>
  <property name="meta.media.0.stream.type">video</property>
  <property name="meta.media.0.stream.frame_rate">30</property>
  <property name="meta.media.0.stream.sample_aspect_ratio">0</property>
  <property name="meta.media.0.codec.width">1280</property>
  <property name="meta.media.0.codec.height">720</property>
  <property name="meta.media.0.codec.rotate">0</property>
  <property name="meta.media.0.codec.pix_fmt">yuv420p</property>
  <property name="meta.media.0.codec.sample_aspect_ratio">1</property>
  <property name="meta.media.0.codec.colorspace">709</property>
  <property name="meta.media.0.codec.color_trc">1</property>
  <property name="meta.media.0.codec.name">h264</property>
  <property name="meta.media.0.codec.long_name">H.264 / AVC / MPEG-4 AVC / MPEG-4 part 10</property>
  <property name="meta.media.0.codec.bit_rate">0</property>
  <property name="meta.attr.0.stream.DURATION.markup">00:00:10.733000000</property>
  <property name="meta.media.1.stream.type">audio</property>
  <property name="meta.media.1.codec.sample_fmt">fltp</property>
  <property name="meta.media.1.codec.sample_rate">48000</property>
  <property name="meta.media.1.codec.channels">2</property>
  <property name="meta.media.1.codec.layout">stereo</property>
  <property name="meta.media.1.codec.name">aac</property>
  <property name="meta.media.1.codec.long_name">AAC (Advanced Audio Coding)</property>
  <property name="meta.media.1.codec.bit_rate">0</property>
  <property name="meta.attr.1.stream.title.markup">simple_aac</property>
  <property name="meta.attr.1.stream.DURATION.markup">00:00:10.666000000</property>
  <property name="meta.attr.ENCODER.markup">Lavf61.1.100</property>
  <property name="seekable">1</property>
  <property name="meta.media.sample_aspect_num">1</property>
  <property name="meta.media.sample_aspect_den">1</property>
  <property name="format">3</property>
  <property name="audio_index">1</property>
  <property name="video_index">0</property>
  <property name="vstream">0</property>
  <property name="meta.media.frame_rate_num">30</property>
  <property name="meta.media.frame_rate_den">1</property>
  <property name="meta.media.colorspace">709</property>
  <property name="meta.media.color_trc">1</property>
  <property name="meta.media.has_b_frames">1</property>
  <property name="meta.media.width">1280</property>
  <property name="meta.media.height">720</property>
  <property name="meta.media.aspect_ratio">1</property>
  <property name="meta.media.color_range">mpeg</property>
  <property name="astream">0</property>
  <property name="meta.media.top_field_first">0</property>
  <property name="meta.media.progressive">1</property>
  <property name="kdenlive:folderid">-1</property>
  <property name="kdenlive:id">64</property>
  <property name="kdenlive:control_uuid">{3fbde1d9-0e01-4cf2-b72c-fecda33824d9}</property>
  <property name="mute_on_pause">0</property>
  <property name="kdenlive:clip_type">0</property>
  <property name="kdenlive:file_size">3574872</property>
  <property name="kdenlive:file_hash">3710c5d15cf76c69777ecc71c9e385eb</property>
  <property name="kdenlive:audio_max1">52</property>
 </chain>
 <chain id="chain48" out="00:00:11.900">
  <property name="length">358</property>
  <property name="eof">pause</property>
  <property name="resource">2024-11-08 22-40-29.mkv</property>
  <property name="mlt_service">avformat-novalidate</property>
  <property name="meta.media.nb_streams">2</property>
  <property name="meta.media.0.stream.type">video</property>
  <property name="meta.media.0.stream.frame_rate">30</property>
  <property name="meta.media.0.stream.sample_aspect_ratio">0</property>
  <property name="meta.media.0.codec.width">1280</property>
  <property name="meta.media.0.codec.height">720</property>
  <property name="meta.media.0.codec.rotate">0</property>
  <property name="meta.media.0.codec.pix_fmt">yuv420p</property>
  <property name="meta.media.0.codec.sample_aspect_ratio">1</property>
  <property name="meta.media.0.codec.colorspace">709</property>
  <property name="meta.media.0.codec.color_trc">1</property>
  <property name="meta.media.0.codec.name">h264</property>
  <property name="meta.media.0.codec.long_name">H.264 / AVC / MPEG-4 AVC / MPEG-4 part 10</property>
  <property name="meta.media.0.codec.bit_rate">0</property>
  <property name="meta.attr.0.stream.DURATION.markup">00:00:11.933000000</property>
  <property name="meta.media.1.stream.type">audio</property>
  <property name="meta.media.1.codec.sample_fmt">fltp</property>
  <property name="meta.media.1.codec.sample_rate">48000</property>
  <property name="meta.media.1.codec.channels">2</property>
  <property name="meta.media.1.codec.layout">stereo</property>
  <property name="meta.media.1.codec.name">aac</property>
  <property name="meta.media.1.codec.long_name">AAC (Advanced Audio Coding)</property>
  <property name="meta.media.1.codec.bit_rate">0</property>
  <property name="meta.attr.1.stream.title.markup">simple_aac</property>
  <property name="meta.attr.1.stream.DURATION.markup">00:00:11.882000000</property>
  <property name="meta.attr.ENCODER.markup">Lavf61.1.100</property>
  <property name="seekable">1</property>
  <property name="meta.media.sample_aspect_num">1</property>
  <property name="meta.media.sample_aspect_den">1</property>
  <property name="format">3</property>
  <property name="audio_index">1</property>
  <property name="video_index">0</property>
  <property name="vstream">0</property>
  <property name="meta.media.frame_rate_num">30</property>
  <property name="meta.media.frame_rate_den">1</property>
  <property name="meta.media.colorspace">709</property>
  <property name="meta.media.color_trc">1</property>
  <property name="meta.media.has_b_frames">1</property>
  <property name="meta.media.width">1280</property>
  <property name="meta.media.height">720</property>
  <property name="meta.media.aspect_ratio">1</property>
  <property name="meta.media.color_range">mpeg</property>
  <property name="astream">0</property>
  <property name="meta.media.top_field_first">0</property>
  <property name="meta.media.progressive">1</property>
  <property name="kdenlive:folderid">-1</property>
  <property name="kdenlive:id">65</property>
  <property name="kdenlive:control_uuid">{e31a6e5a-90b9-4ce3-b6f0-29070811c2b1}</property>
  <property name="mute_on_pause">0</property>
  <property name="kdenlive:clip_type">0</property>
  <property name="kdenlive:file_size">3975086</property>
  <property name="kdenlive:file_hash">dc60220eae11b4bd5e7f6d9c08e1f2b8</property>
  <property name="kdenlive:audio_max1">60</property>
 </chain>
 <chain id="chain49" out="00:00:13.700">
  <property name="length">412</property>
  <property name="eof">pause</property>
  <property name="resource">2024-11-08 22-39-55.mkv</property>
  <property name="mlt_service">avformat-novalidate</property>
  <property name="meta.media.nb_streams">2</property>
  <property name="meta.media.0.stream.type">video</property>
  <property name="meta.media.0.stream.frame_rate">30</property>
  <property name="meta.media.0.stream.sample_aspect_ratio">0</property>
  <property name="meta.media.0.codec.width">1280</property>
  <property name="meta.media.0.codec.height">720</property>
  <property name="meta.media.0.codec.rotate">0</property>
  <property name="meta.media.0.codec.pix_fmt">yuv420p</property>
  <property name="meta.media.0.codec.sample_aspect_ratio">1</property>
  <property name="meta.media.0.codec.colorspace">709</property>
  <property name="meta.media.0.codec.color_trc">1</property>
  <property name="meta.media.0.codec.name">h264</property>
  <property name="meta.media.0.codec.long_name">H.264 / AVC / MPEG-4 AVC / MPEG-4 part 10</property>
  <property name="meta.media.0.codec.bit_rate">0</property>
  <property name="meta.attr.0.stream.DURATION.markup">00:00:13.733000000</property>
  <property name="meta.media.1.stream.type">audio</property>
  <property name="meta.media.1.codec.sample_fmt">fltp</property>
  <property name="meta.media.1.codec.sample_rate">48000</property>
  <property name="meta.media.1.codec.channels">2</property>
  <property name="meta.media.1.codec.layout">stereo</property>
  <property name="meta.media.1.codec.name">aac</property>
  <property name="meta.media.1.codec.long_name">AAC (Advanced Audio Coding)</property>
  <property name="meta.media.1.codec.bit_rate">0</property>
  <property name="meta.attr.1.stream.title.markup">simple_aac</property>
  <property name="meta.attr.1.stream.DURATION.markup">00:00:13.674000000</property>
  <property name="meta.attr.ENCODER.markup">Lavf61.1.100</property>
  <property name="seekable">1</property>
  <property name="meta.media.sample_aspect_num">1</property>
  <property name="meta.media.sample_aspect_den">1</property>
  <property name="format">3</property>
  <property name="audio_index">1</property>
  <property name="video_index">0</property>
  <property name="vstream">0</property>
  <property name="meta.media.frame_rate_num">30</property>
  <property name="meta.media.frame_rate_den">1</property>
  <property name="meta.media.colorspace">709</property>
  <property name="meta.media.color_trc">1</property>
  <property name="meta.media.has_b_frames">1</property>
  <property name="meta.media.width">1280</property>
  <property name="meta.media.height">720</property>
  <property name="meta.media.aspect_ratio">1</property>
  <property name="meta.media.color_range">mpeg</property>
  <property name="astream">0</property>
  <property name="meta.media.top_field_first">0</property>
  <property name="meta.media.progressive">1</property>
  <property name="kdenlive:folderid">-1</property>
  <property name="kdenlive:id">69</property>
  <property name="kdenlive:control_uuid">{128d3a04-9566-40f8-91e1-828cae1bfe88}</property>
  <property name="mute_on_pause">0</property>
  <property name="kdenlive:clip_type">0</property>
  <property name="kdenlive:file_size">4574253</property>
  <property name="kdenlive:file_hash">744c4e23531f9fe82ce2da0d3ea105af</property>
  <property name="kdenlive:audio_max1">52</property>
 </chain>
 <playlist id="main_bin">
  <property name="kdenlive:folder.-1.2">シーケンス</property>
  <property name="kdenlive:sequenceFolder">2</property>
  <property name="kdenlive:docproperties.audioChannels">2</property>
  <property name="kdenlive:docproperties.binsort">0</property>
  <property name="kdenlive:docproperties.browserurl"/>
  <property name="kdenlive:docproperties.documentid">1731123465478</property>
  <property name="kdenlive:docproperties.enableTimelineZone">0</property>
  <property name="kdenlive:docproperties.enableexternalproxy">0</property>
  <property name="kdenlive:docproperties.enableproxy">0</property>
  <property name="kdenlive:docproperties.externalproxyparams"/>
  <property name="kdenlive:docproperties.generateimageproxy">0</property>
  <property name="kdenlive:docproperties.generateproxy">0</property>
  <property name="kdenlive:docproperties.guidesCategories">[
    {
        "color": "#9b59b6",
        "comment": "カテゴリ 1",
        "index": 0
    },
    {
        "color": "#3daee9",
        "comment": "カテゴリ 2",
        "index": 1
    },
    {
        "color": "#1abc9c",
        "comment": "カテゴリ 3",
        "index": 2
    },
    {
        "color": "#1cdc9a",
        "comment": "カテゴリ 4",
        "index": 3
    },
    {
        "color": "#c9ce3b",
        "comment": "カテゴリ 5",
        "index": 4
    },
    {
        "color": "#fdbc4b",
        "comment": "カテゴリ 6",
        "index": 5
    },
    {
        "color": "#f39c1f",
        "comment": "カテゴリ 7",
        "index": 6
    },
    {
        "color": "#f47750",
        "comment": "カテゴリ 8",
        "index": 7
    },
    {
        "color": "#da4453",
        "comment": "カテゴリ 9",
        "index": 8
    }
]
</property>
  <property name="kdenlive:docproperties.kdenliveversion">24.08.3</property>
  <property name="kdenlive:docproperties.previewextension"/>
  <property name="kdenlive:docproperties.previewparameters"/>
  <property name="kdenlive:docproperties.profile">atsc_720p_30</property>
  <property name="kdenlive:docproperties.proxyextension"/>
  <property name="kdenlive:docproperties.proxyimageminsize">2000</property>
  <property name="kdenlive:docproperties.proxyimagesize">800</property>
  <property name="kdenlive:docproperties.proxyminsize">1000</property>
  <property name="kdenlive:docproperties.proxyparams"/>
  <property name="kdenlive:docproperties.proxyresize">640</property>
  <property name="kdenlive:docproperties.seekOffset">30000</property>
  <property name="kdenlive:docproperties.uuid">{1fa96e70-153f-4766-a775-0fe3cb0090bb}</property>
  <property name="kdenlive:docproperties.version">1.1</property>
  <property name="kdenlive:expandedFolders"/>
  <property name="kdenlive:binZoom">4</property>
  <property name="kdenlive:extraBins">project_bin:-1:0</property>
  <property name="kdenlive:documentnotes"/>
  <property name="kdenlive:documentnotesversion">2</property>
  <property name="kdenlive:docproperties.opensequences">{1fa96e70-153f-4766-a775-0fe3cb0090bb}</property>
  <property name="kdenlive:docproperties.activetimeline">{1fa96e70-153f-4766-a775-0fe3cb0090bb}</property>
  <property name="kdenlive:docproperties.rendercategory">Generic (HD for web, mobile devices...)</property>
  <property name="kdenlive:docproperties.rendercustomquality">-1</property>
  <property name="kdenlive:docproperties.renderendguide">-1</property>
  <property name="kdenlive:docproperties.renderexportaudio">0</property>
  <property name="kdenlive:docproperties.renderfullcolorrange">0</property>
  <property name="kdenlive:docproperties.rendermode">0</property>
  <property name="kdenlive:docproperties.renderplay">0</property>
  <property name="kdenlive:docproperties.renderpreview">0</property>
  <property name="kdenlive:docproperties.renderprofile">MP4-H264/AAC</property>
  <property name="kdenlive:docproperties.renderrescale">0</property>
  <property name="kdenlive:docproperties.renderrescaleheight">360</property>
  <property name="kdenlive:docproperties.renderrescalewidth">640</property>
  <property name="kdenlive:docproperties.renderspeed">6</property>
  <property name="kdenlive:docproperties.renderstartguide">-1</property>
  <property name="kdenlive:docproperties.rendertcoverlay">0</property>
  <property name="kdenlive:docproperties.rendertctype">-1</property>
  <property name="kdenlive:docproperties.rendertwopass">0</property>
  <property name="kdenlive:docproperties.renderurl">20241108.mp4</property>
  <property name="xml_retain">1</property>
  <entry in="00:00:00.000" out="00:00:00.000" producer="{1fa96e70-153f-4766-a775-0fe3cb0090bb}"/>
  <entry in="00:00:00.000" out="00:00:10.500" producer="chain22"/>
  <entry in="00:00:00.000" out="00:00:23.300" producer="chain23"/>
  <entry in="00:00:00.000" out="00:00:09.300" producer="chain24"/>
  <entry in="00:00:00.000" out="00:00:16.300" producer="chain25"/>
  <entry in="00:00:00.000" out="00:00:18.400" producer="chain26"/>
  <entry in="00:00:00.000" out="00:00:28.200" producer="chain27"/>
  <entry in="00:00:00.000" out="00:00:02.600" producer="chain28"/>
  <entry in="00:00:00.000" out="00:00:20.500" producer="chain29"/>
  <entry in="00:00:00.000" out="00:00:10.200" producer="chain30"/>
  <entry in="00:00:00.000" out="00:00:23.200" producer="chain31"/>
  <entry in="00:00:00.000" out="00:00:22.600" producer="chain32"/>
  <entry in="00:00:00.000" out="00:01:55.700" producer="chain33"/>
  <entry in="00:00:00.000" out="00:00:12.900" producer="chain34"/>
  <entry in="00:00:00.000" out="00:00:35.500" producer="chain35"/>
  <entry in="00:00:00.000" out="00:00:54.700" producer="chain36"/>
  <entry in="00:00:00.000" out="00:00:42.900" producer="chain37"/>
  <entry in="00:00:00.000" out="00:00:37.200" producer="chain38"/>
  <entry in="00:00:00.000" out="00:00:12.300" producer="chain39"/>
  <entry in="00:00:00.000" out="00:00:17.400" producer="chain40"/>
  <entry in="00:00:00.000" out="00:00:31.400" producer="chain41"/>
  <entry in="00:00:00.000" out="00:00:21.100" producer="chain42"/>
  <entry in="00:00:00.000" out="00:00:38.500" producer="chain43"/>
  <entry in="00:00:00.000" out="00:00:46.700" producer="chain44"/>
  <entry in="00:00:00.000" out="00:00:22.200" producer="chain45"/>
  <entry in="00:00:00.000" out="00:00:03.100" producer="chain46"/>
  <entry in="00:00:00.000" out="00:00:10.700" producer="chain47"/>
  <entry in="00:00:00.000" out="00:00:11.900" producer="chain48"/>
  <entry in="00:00:00.000" out="00:00:13.700" producer="chain49"/>
 </playlist>
 <tractor id="tractor4" in="00:00:00.000" out="00:03:10.500">
  <property name="kdenlive:projectTractor">1</property>
  <track in="00:00:00.000" out="00:03:10.500" producer="{1fa96e70-153f-4766-a775-0fe3cb0090bb}"/>
 </tractor>
</mlt>
